%FSLAX25Y25*%
%MOIN*%
G70*
G01*
G75*
G04 Layer_Physical_Order=1*
G04 Layer_Color=255*
%ADD10C,0.01181*%
%ADD11C,0.00787*%
%ADD12C,0.01969*%
%ADD13C,0.03937*%
%ADD14R,0.03937X0.02756*%
%ADD15R,0.03150X0.05118*%
%ADD16R,0.02362X0.01969*%
%ADD17R,0.01969X0.02362*%
%ADD18R,0.04921X0.02756*%
%ADD19R,0.06693X0.03543*%
%ADD20R,0.06299X0.04921*%
%ADD21R,0.01181X0.03347*%
%ADD22R,0.02362X0.03347*%
%ADD23R,0.01969X0.01575*%
%ADD24R,0.02362X0.05512*%
%ADD25R,0.03150X0.07874*%
%ADD26R,0.02362X0.07874*%
%ADD27O,0.07480X0.12992*%
%ADD28R,0.01575X0.04724*%
%ADD29R,0.03543X0.03937*%
%ADD30O,0.05906X0.07874*%
%ADD31R,0.05906X0.07874*%
%ADD32R,0.04331X0.03937*%
%ADD33R,0.01575X0.06693*%
%ADD34R,0.02756X0.04921*%
%ADD35R,0.03543X0.02362*%
%ADD36O,0.02362X0.07874*%
%ADD37O,0.02362X0.05512*%
%ADD38R,0.05118X0.03150*%
%ADD39R,0.03937X0.02756*%
%ADD40R,0.02362X0.03937*%
%ADD41R,0.01969X0.03937*%
%ADD42O,0.05512X0.02362*%
%ADD43O,0.07874X0.09843*%
%ADD44O,0.09843X0.07874*%
%ADD45C,0.03150*%
%ADD46C,0.07874*%
%ADD47C,0.10000*%
%ADD48C,0.05906*%
%ADD49R,0.15300X0.31300*%
%ADD50R,0.33921X0.10400*%
%ADD51R,0.02874X0.02068*%
%ADD52R,0.11321X0.16200*%
%ADD53R,0.02719X0.08050*%
%ADD54R,0.06858X0.03154*%
%ADD55R,0.16400X0.14144*%
%ADD56R,0.09300X0.06156*%
%ADD57C,0.02559*%
G04:AMPARAMS|DCode=58|XSize=39.37mil|YSize=82.68mil|CornerRadius=17.72mil|HoleSize=0mil|Usage=FLASHONLY|Rotation=180.000|XOffset=0mil|YOffset=0mil|HoleType=Round|Shape=RoundedRectangle|*
%AMROUNDEDRECTD58*
21,1,0.03937,0.04724,0,0,180.0*
21,1,0.00394,0.08268,0,0,180.0*
1,1,0.03543,-0.00197,0.02362*
1,1,0.03543,0.00197,0.02362*
1,1,0.03543,0.00197,-0.02362*
1,1,0.03543,-0.00197,-0.02362*
%
%ADD58ROUNDEDRECTD58*%
G04:AMPARAMS|DCode=59|XSize=39.37mil|YSize=62.99mil|CornerRadius=17.72mil|HoleSize=0mil|Usage=FLASHONLY|Rotation=180.000|XOffset=0mil|YOffset=0mil|HoleType=Round|Shape=RoundedRectangle|*
%AMROUNDEDRECTD59*
21,1,0.03937,0.02756,0,0,180.0*
21,1,0.00394,0.06299,0,0,180.0*
1,1,0.03543,-0.00197,0.01378*
1,1,0.03543,0.00197,0.01378*
1,1,0.03543,0.00197,-0.01378*
1,1,0.03543,-0.00197,-0.01378*
%
%ADD59ROUNDEDRECTD59*%
%ADD60C,0.11811*%
%ADD61C,0.02362*%
G36*
X19065Y116836D02*
X19172Y116298D01*
X19477Y115842D01*
X19538Y115801D01*
X19634Y114829D01*
X20219Y112899D01*
X21170Y111121D01*
X22449Y109562D01*
X24008Y108283D01*
X25786Y107333D01*
X27715Y106747D01*
X29722Y106550D01*
X31729Y106747D01*
X33658Y107333D01*
X35437Y108283D01*
X36995Y109562D01*
X38274Y111121D01*
X39225Y112899D01*
X39810Y114829D01*
X39906Y115801D01*
X39968Y115842D01*
X40272Y116298D01*
X40379Y116836D01*
Y123108D01*
X67490D01*
Y-123295D01*
X-67495D01*
Y123108D01*
X-40384D01*
Y116836D01*
X-40277Y116298D01*
X-39972Y115842D01*
X-39911Y115801D01*
X-39815Y114829D01*
X-39230Y112899D01*
X-38279Y111121D01*
X-37000Y109562D01*
X-35441Y108283D01*
X-33663Y107333D01*
X-31733Y106747D01*
X-29727Y106550D01*
X-27720Y106747D01*
X-25791Y107333D01*
X-24012Y108283D01*
X-22454Y109562D01*
X-21174Y111121D01*
X-20224Y112899D01*
X-19639Y114829D01*
X-19543Y115801D01*
X-19481Y115842D01*
X-19177Y116298D01*
X-19070Y116836D01*
Y132950D01*
X2605D01*
X2958Y132597D01*
Y132590D01*
D01*
Y127201D01*
D01*
D01*
Y127201D01*
X2958D01*
X3081Y127078D01*
X3081Y127078D01*
X3214Y126945D01*
X3204Y127201D01*
X3204Y127201D01*
D01*
D01*
D01*
D01*
Y127201D01*
X3200Y127303D01*
X2991Y132590D01*
X3337Y132950D01*
X19065D01*
Y116836D01*
D02*
G37*
%LPC*%
G36*
X-41500Y47107D02*
X-42268Y46954D01*
X-42919Y46519D01*
X-43063Y46304D01*
X-50500D01*
X-50961Y46213D01*
X-50973Y46204D01*
X-51000D01*
X-51461Y46113D01*
X-51851Y45851D01*
X-52555Y45149D01*
X-52816Y44758D01*
X-52907Y44297D01*
D01*
D01*
D01*
X-52907Y44297D01*
D01*
X-53170Y44034D01*
X-53475D01*
Y42010D01*
X-53600Y41907D01*
X-54368Y41754D01*
X-55019Y41319D01*
X-55454Y40668D01*
X-55607Y39900D01*
X-55454Y39132D01*
X-55454Y39132D01*
X-55772Y38746D01*
X-56200D01*
X-56738Y38639D01*
X-57193Y38334D01*
X-58493Y37034D01*
X-58798Y36579D01*
X-58905Y36041D01*
Y24793D01*
X-59425Y24273D01*
X-59816Y23687D01*
X-59954Y22996D01*
Y-15475D01*
X-59998Y-15541D01*
X-60105Y-16079D01*
Y-19300D01*
Y-21357D01*
X-63068D01*
Y-24900D01*
X-59954D01*
Y-27641D01*
X-60277Y-27965D01*
X-60669Y-28551D01*
X-60806Y-29243D01*
Y-62100D01*
X-60806Y-62100D01*
X-60806D01*
X-60669Y-62791D01*
X-60277Y-63377D01*
X-59624Y-64031D01*
X-59038Y-64422D01*
X-58346Y-64560D01*
X-52667D01*
Y-66232D01*
X-52511Y-67413D01*
X-52055Y-68515D01*
X-51329Y-69461D01*
X-50462Y-70126D01*
Y-77649D01*
X-45738D01*
Y-70126D01*
X-44871Y-69461D01*
X-44636Y-69155D01*
X-44163Y-69316D01*
Y-71517D01*
X-44625Y-72208D01*
X-44809Y-73130D01*
Y-78452D01*
X-46895D01*
Y-80689D01*
X-46955Y-80778D01*
X-47138Y-81700D01*
X-47076Y-82009D01*
X-47394Y-82396D01*
X-47700D01*
X-48161Y-82487D01*
X-48551Y-82749D01*
X-48689Y-82885D01*
X-48950Y-83276D01*
X-49041Y-83737D01*
X-49041Y-83737D01*
Y-97201D01*
X-50047Y-98207D01*
X-51243D01*
Y-102144D01*
X-46480D01*
Y-104344D01*
X-47047D01*
D01*
D01*
X-47047Y-104344D01*
X-47244D01*
Y-104344D01*
X-51181D01*
Y-104935D01*
X-51181D01*
X-51181Y-104935D01*
X-51181Y-104935D01*
X-56693D01*
Y-109265D01*
X-55141D01*
Y-110963D01*
X-55141Y-110963D01*
X-55050Y-111424D01*
X-54789Y-111814D01*
X-53077Y-113526D01*
X-52686Y-113787D01*
X-52225Y-113879D01*
X-32675D01*
X-32675Y-113879D01*
X-32214Y-113787D01*
X-31823Y-113526D01*
X-31249Y-112952D01*
X-30987Y-112561D01*
X-30896Y-112100D01*
X-30896Y-112100D01*
Y-107199D01*
X-29876Y-106179D01*
X-13422D01*
X-13300Y-106664D01*
X-13579Y-106813D01*
X-14598Y-107649D01*
X-15434Y-108668D01*
X-16056Y-109831D01*
X-16439Y-111093D01*
X-16568Y-112405D01*
X-16439Y-113717D01*
X-16056Y-114978D01*
X-15434Y-116141D01*
X-14598Y-117160D01*
X-13579Y-117997D01*
X-12416Y-118618D01*
X-11154Y-119001D01*
X-9843Y-119130D01*
X-8530Y-119001D01*
X-7269Y-118618D01*
X-6106Y-117997D01*
X-5087Y-117160D01*
X-4251Y-116141D01*
X-3629Y-114978D01*
X-3246Y-113717D01*
X-3117Y-112405D01*
X-3246Y-111093D01*
X-3629Y-109831D01*
X-4251Y-108668D01*
X-5087Y-107649D01*
X-6106Y-106813D01*
X-6385Y-106664D01*
X-6263Y-106179D01*
X6263D01*
X6385Y-106664D01*
X6106Y-106813D01*
X5087Y-107649D01*
X4251Y-108668D01*
X3629Y-109831D01*
X3246Y-111093D01*
X3117Y-112405D01*
X3246Y-113717D01*
X3629Y-114978D01*
X4251Y-116141D01*
X5087Y-117160D01*
X6106Y-117997D01*
X7269Y-118618D01*
X8530Y-119001D01*
X9843Y-119130D01*
X11154Y-119001D01*
X12416Y-118618D01*
X13579Y-117997D01*
X14598Y-117160D01*
X15434Y-116141D01*
X16056Y-114978D01*
X16439Y-113717D01*
X16568Y-112405D01*
X16439Y-111093D01*
X16056Y-109831D01*
X15434Y-108668D01*
X14598Y-107649D01*
X13579Y-106813D01*
X13300Y-106664D01*
X13422Y-106179D01*
X37751D01*
Y-109465D01*
X39303D01*
Y-113007D01*
X39303Y-113007D01*
X39395Y-113468D01*
X39656Y-113859D01*
X41649Y-115851D01*
X42039Y-116113D01*
X42500Y-116204D01*
X42500Y-116204D01*
X58700D01*
X58700Y-116204D01*
X59161Y-116113D01*
X59552Y-115851D01*
X61051Y-114351D01*
X61313Y-113961D01*
X61404Y-113500D01*
X61404Y-113500D01*
Y-93400D01*
X61313Y-92939D01*
X61208Y-92783D01*
X61051Y-92549D01*
X61051Y-92549D01*
X59952Y-91448D01*
X59561Y-91187D01*
X59100Y-91096D01*
X59100Y-91096D01*
X53374D01*
Y-91096D01*
Y-90962D01*
Y-90822D01*
X53728Y-90469D01*
X60443D01*
Y-86532D01*
X60375D01*
X60058Y-86145D01*
X60107Y-85900D01*
X59954Y-85132D01*
X59519Y-84481D01*
X58868Y-84046D01*
X58100Y-83893D01*
X57332Y-84046D01*
X56681Y-84481D01*
X56246Y-85132D01*
X56093Y-85900D01*
X56142Y-86145D01*
X55825Y-86532D01*
X53374D01*
Y-86238D01*
X46681D01*
Y-90962D01*
X49615D01*
X49760Y-91441D01*
X49749Y-91448D01*
X49749Y-91448D01*
X48849Y-92348D01*
X48587Y-92739D01*
X48527Y-93045D01*
X48515Y-93050D01*
X48472Y-93153D01*
X48281Y-93281D01*
X47846Y-93932D01*
X47693Y-94700D01*
X47846Y-95468D01*
X47861Y-95490D01*
X47625Y-95932D01*
X43194D01*
X43086Y-95823D01*
X42696Y-95562D01*
X42235Y-95471D01*
X42235Y-95471D01*
X35555D01*
X35410Y-94992D01*
X35519Y-94919D01*
X35954Y-94268D01*
X36107Y-93500D01*
X35954Y-92732D01*
X35519Y-92081D01*
X34868Y-91646D01*
X34100Y-91493D01*
X33332Y-91646D01*
X32681Y-92081D01*
X32246Y-92732D01*
X32093Y-93500D01*
X32094Y-93504D01*
X32043Y-93761D01*
X31953Y-93896D01*
X31119D01*
X30883Y-93455D01*
X31013Y-93261D01*
X31013Y-93261D01*
X31013Y-93261D01*
X31104Y-92800D01*
X31104Y-92800D01*
Y-88898D01*
X31583Y-88753D01*
X31648Y-88851D01*
X32348Y-89552D01*
X32739Y-89813D01*
X33200Y-89904D01*
X33200Y-89904D01*
X37665D01*
Y-90962D01*
X44358D01*
Y-86238D01*
X37665D01*
Y-87496D01*
X33704D01*
Y-81761D01*
X34166Y-81569D01*
X34749Y-82152D01*
X34749Y-82152D01*
X34983Y-82308D01*
X35139Y-82413D01*
X35600Y-82504D01*
X42941D01*
Y-84880D01*
X48059D01*
Y-79369D01*
X42941D01*
Y-80096D01*
X36099D01*
X35704Y-79701D01*
Y-76043D01*
X36846D01*
Y-72500D01*
Y-68957D01*
X36846D01*
Y-68858D01*
X37200Y-68504D01*
X37546D01*
X39004Y-69962D01*
Y-75432D01*
X44122D01*
Y-69920D01*
X42368D01*
X41216Y-68768D01*
X41407Y-68306D01*
X51494D01*
X52078Y-68697D01*
X53000Y-68880D01*
X54235D01*
Y-70384D01*
X54397Y-71618D01*
X54873Y-72767D01*
X55630Y-73754D01*
X56617Y-74511D01*
X57767Y-74987D01*
X59000Y-75149D01*
X60233Y-74987D01*
X61383Y-74511D01*
X62370Y-73754D01*
X63127Y-72767D01*
X63603Y-71618D01*
X63765Y-70384D01*
Y-68416D01*
X63603Y-67182D01*
X63127Y-66033D01*
X62370Y-65046D01*
X61383Y-64289D01*
X60233Y-63813D01*
X59000Y-63651D01*
X57767Y-63813D01*
X56617Y-64289D01*
X56563Y-64331D01*
X56437Y-64246D01*
X55515Y-64063D01*
X53000D01*
X52078Y-64246D01*
X51409Y-64694D01*
X47469D01*
Y-61157D01*
X46004D01*
Y-60363D01*
X46219Y-60219D01*
X46654Y-59568D01*
X46807Y-58800D01*
X46654Y-58032D01*
X46219Y-57381D01*
X45568Y-56946D01*
X44800Y-56793D01*
X44032Y-56946D01*
X43381Y-57381D01*
X42946Y-58032D01*
X42793Y-58800D01*
X42946Y-59568D01*
X43381Y-60219D01*
X43596Y-60363D01*
Y-61157D01*
X43532D01*
Y-64694D01*
X41604D01*
Y-63900D01*
X41513Y-63439D01*
X41252Y-63048D01*
X40280Y-62077D01*
X39889Y-61816D01*
X39428Y-61724D01*
X39428Y-61724D01*
X36669D01*
Y-61157D01*
X32732D01*
Y-64675D01*
X32270Y-64867D01*
X31442Y-64039D01*
Y-55623D01*
X31883Y-55388D01*
X32432Y-55754D01*
X33200Y-55907D01*
X33968Y-55754D01*
X34040Y-55706D01*
X61000D01*
X61691Y-55569D01*
X62277Y-55177D01*
X64340Y-53115D01*
X64731Y-52529D01*
X64869Y-51838D01*
X64869Y-51838D01*
X64869Y-51838D01*
Y-51838D01*
Y-46162D01*
X64731Y-45471D01*
X64340Y-44885D01*
X62221Y-42767D01*
X61635Y-42375D01*
X60944Y-42238D01*
X55902D01*
Y-39862D01*
X58230D01*
Y-33563D01*
X57859D01*
Y-26855D01*
X57768Y-26394D01*
X57507Y-26004D01*
X55951Y-24449D01*
X55561Y-24187D01*
X55100Y-24096D01*
X55100Y-24096D01*
X47861D01*
X47669Y-23634D01*
X52389Y-18914D01*
X52389Y-18914D01*
X52545Y-18680D01*
X52650Y-18524D01*
X52741Y-18063D01*
Y-16240D01*
X58230D01*
Y-9941D01*
X57859D01*
Y9345D01*
X57859Y9345D01*
X57768Y9806D01*
X57507Y10196D01*
X57507Y10196D01*
X56352Y11351D01*
X55961Y11613D01*
X55500Y11704D01*
X55500Y11704D01*
X55263D01*
X55119Y11919D01*
X54468Y12354D01*
X53700Y12507D01*
X52932Y12354D01*
X52281Y11919D01*
X51846Y11268D01*
X51693Y10500D01*
X51846Y9732D01*
X52141Y9290D01*
X51863Y8875D01*
X51700Y8907D01*
X50932Y8754D01*
X50281Y8319D01*
X49846Y7668D01*
X49693Y6900D01*
X49846Y6132D01*
X50100Y5751D01*
X49909Y5289D01*
X49732Y5254D01*
X49081Y4819D01*
X48937Y4604D01*
X35400D01*
X35400Y4604D01*
X34939Y4513D01*
X34549Y4251D01*
X34549Y4251D01*
X33248Y2952D01*
X32987Y2561D01*
X32896Y2100D01*
X32896Y2100D01*
Y-1657D01*
X32131D01*
Y-5200D01*
Y-8743D01*
X32185D01*
Y-9154D01*
X32246Y-9461D01*
X32246Y-9461D01*
X32420Y-9722D01*
X32049Y-9941D01*
X32049D01*
Y-13855D01*
X16799D01*
X15841Y-12897D01*
Y-12380D01*
X17196D01*
Y-6869D01*
X12078D01*
Y-12380D01*
X13433D01*
Y-13396D01*
X13433Y-13396D01*
X13447Y-13468D01*
X13130Y-13855D01*
X7999D01*
X7967Y-13823D01*
Y-12380D01*
X9322D01*
Y-6869D01*
X4204D01*
Y-12380D01*
X5559D01*
Y-13855D01*
X2599D01*
X1404Y-12660D01*
Y-8843D01*
X2169D01*
Y-5300D01*
Y-1757D01*
X1918D01*
X1869Y-1509D01*
X1477Y-923D01*
X1271Y-716D01*
X1254Y-632D01*
X819Y19D01*
X168Y454D01*
X-600Y607D01*
X-1368Y454D01*
X-1758Y663D01*
Y10341D01*
X-1850Y10802D01*
X-1954Y10959D01*
X-2111Y11193D01*
X-2111Y11193D01*
X-3269Y12352D01*
X-3660Y12613D01*
X-4121Y12704D01*
X-4121Y12704D01*
X-29021D01*
X-29482Y12613D01*
X-29873Y12352D01*
X-29873Y12352D01*
X-30551Y11673D01*
X-30813Y11282D01*
X-30853Y11077D01*
X-30899Y10966D01*
X-31119Y10819D01*
X-31554Y10168D01*
X-31707Y9400D01*
X-31554Y8632D01*
X-31119Y7981D01*
X-30468Y7546D01*
X-29700Y7393D01*
X-28932Y7546D01*
X-28445Y7871D01*
X-28265Y7775D01*
X-28339Y7280D01*
X-28468Y7254D01*
X-29119Y6819D01*
X-29554Y6168D01*
X-29707Y5400D01*
X-29554Y4632D01*
X-29195Y4095D01*
X-29431Y3654D01*
X-35901D01*
X-36021Y3774D01*
Y12725D01*
X-36113Y13186D01*
X-36374Y13577D01*
X-38196Y15399D01*
Y16000D01*
X-38220Y16120D01*
Y20900D01*
X-38220Y20900D01*
X-38311Y21361D01*
X-38572Y21752D01*
X-38597Y21776D01*
X-38406Y22238D01*
X-35256D01*
X-34968Y22046D01*
X-34200Y21893D01*
X-33432Y22046D01*
X-32781Y22481D01*
X-32346Y23132D01*
X-32193Y23900D01*
X-32346Y24668D01*
X-32781Y25319D01*
X-33432Y25754D01*
X-34200Y25907D01*
X-34968Y25754D01*
X-35619Y25319D01*
X-35800Y25048D01*
X-41096D01*
X-41287Y25510D01*
X-39948Y26849D01*
X-39948Y26849D01*
X-39687Y27239D01*
X-39596Y27700D01*
Y31903D01*
X-39380Y31946D01*
X-38729Y32381D01*
X-38294Y33032D01*
X-38141Y33800D01*
X-38294Y34568D01*
X-38729Y35219D01*
X-39380Y35654D01*
X-40148Y35807D01*
X-40916Y35654D01*
X-41568Y35219D01*
X-41778Y34904D01*
X-50300D01*
X-50761Y34813D01*
X-51152Y34552D01*
X-52555Y33149D01*
X-52816Y32758D01*
X-52840Y32634D01*
X-53475D01*
Y29484D01*
Y26925D01*
Y25572D01*
X-56095D01*
Y35459D01*
X-55618Y35936D01*
X-53475D01*
Y35766D01*
X-49931D01*
Y37624D01*
X-49600Y37896D01*
X-46800D01*
X-46800Y37896D01*
X-46381Y37979D01*
X-45994Y37662D01*
Y35766D01*
X-42451D01*
Y36137D01*
X-42000D01*
X-42000Y36137D01*
X-41539Y36228D01*
X-41148Y36489D01*
X-40148Y37489D01*
X-40148Y37489D01*
X-39992Y37724D01*
X-39887Y37880D01*
X-39796Y38341D01*
Y41992D01*
X-39778D01*
X-39796Y42130D01*
Y43893D01*
X-39794D01*
X-39796Y43906D01*
Y44107D01*
X-39646Y44332D01*
X-39493Y45100D01*
X-39646Y45868D01*
X-40081Y46519D01*
X-40732Y46954D01*
X-41500Y47107D01*
D02*
G37*
G36*
X51996Y-69920D02*
X46878D01*
Y-74249D01*
X46381Y-74581D01*
X45946Y-75232D01*
X45793Y-76000D01*
X45946Y-76768D01*
X46381Y-77419D01*
X47032Y-77854D01*
X47800Y-78007D01*
X48568Y-77854D01*
X49219Y-77419D01*
X49654Y-76768D01*
X49807Y-76000D01*
X49771Y-75818D01*
X50088Y-75432D01*
X51996D01*
Y-69920D01*
D02*
G37*
G36*
X-7476Y119510D02*
X-8282Y119349D01*
X-8966Y118893D01*
X-9423Y118209D01*
X-9583Y117402D01*
X-9423Y116596D01*
X-8966Y115912D01*
X-8282Y115455D01*
X-7476Y115295D01*
X-6669Y115455D01*
X-5985Y115912D01*
X-5529Y116596D01*
X-5368Y117402D01*
X-5529Y118209D01*
X-5985Y118893D01*
X-6669Y119349D01*
X-7476Y119510D01*
D02*
G37*
G36*
X8273D02*
X7466Y119349D01*
X6782Y118893D01*
X6681Y118741D01*
X-3834D01*
Y110473D01*
X-2568D01*
X-2376Y110011D01*
X-3804Y108583D01*
X-4065Y108193D01*
X-4157Y107732D01*
X-5691Y107425D01*
X-7889D01*
X-8032Y107568D01*
X-8293Y107742D01*
X-8600Y107803D01*
X-10500D01*
X-10500Y107803D01*
X-10807Y107742D01*
X-11068Y107568D01*
X-11198Y107438D01*
X-11206Y107425D01*
X-11417D01*
Y106948D01*
X-11433Y106870D01*
Y103161D01*
X-11568Y103071D01*
X-11742Y102811D01*
X-11774Y102650D01*
X-11924Y102425D01*
X-12094Y102015D01*
X-12162Y101926D01*
X-12209Y101832D01*
X-12267Y101745D01*
X-12277Y101693D01*
X-12301Y101645D01*
X-12308Y101541D01*
X-12328Y101437D01*
Y93907D01*
X-12668Y93568D01*
X-14268Y91968D01*
X-14442Y91707D01*
X-14503Y91400D01*
Y83268D01*
X-14442Y82960D01*
X-14287Y82729D01*
Y79703D01*
X-15075D01*
X-15178Y79682D01*
X-15283Y79676D01*
X-15331Y79652D01*
X-15383Y79642D01*
X-15470Y79583D01*
X-15564Y79537D01*
X-15747Y79396D01*
X-16222Y79200D01*
X-16313Y79188D01*
X-16413Y79154D01*
X-16516Y79133D01*
X-16560Y79104D01*
X-16610Y79087D01*
X-16689Y79018D01*
X-16776Y78959D01*
X-17068Y78668D01*
X-17068Y78668D01*
X-17933Y77803D01*
X-20197D01*
Y93400D01*
X-20258Y93707D01*
X-20432Y93968D01*
X-20534Y94070D01*
X-20343Y94532D01*
X-19300D01*
Y98469D01*
X-22843D01*
Y98469D01*
X-22948Y98383D01*
X-23072Y98407D01*
X-23411Y98340D01*
X-23797Y98657D01*
Y99800D01*
Y99900D01*
X-23858Y100207D01*
X-24032Y100468D01*
X-24032Y100468D01*
X-24154Y100590D01*
X-24415Y100764D01*
X-24722Y100825D01*
X-59800D01*
X-60108Y100764D01*
X-60368Y100590D01*
X-60968Y99990D01*
X-61142Y99730D01*
X-61203Y99423D01*
Y73500D01*
Y73400D01*
X-61142Y73093D01*
X-61142Y73093D01*
X-61162Y73086D01*
X-61400Y73003D01*
X-61400Y73003D01*
Y73003D01*
X-61707Y72942D01*
X-61968Y72768D01*
X-64168Y70568D01*
X-64342Y70307D01*
X-64403Y70000D01*
Y56833D01*
X-64565Y55600D01*
X-64403Y54367D01*
Y50665D01*
X-64442Y50607D01*
X-64503Y50300D01*
X-64442Y49993D01*
X-64268Y49732D01*
X-64268Y49732D01*
X-62968Y48432D01*
X-62707Y48258D01*
X-62400Y48197D01*
X-18722D01*
Y21202D01*
X-18722Y21202D01*
X-18722D01*
X-18646Y20818D01*
X-18428Y20493D01*
X-18426Y20490D01*
X-18101Y20273D01*
X-17717Y20197D01*
X17717D01*
X18101Y20273D01*
X18426Y20490D01*
X18644Y20816D01*
X18720Y21200D01*
Y38297D01*
X20575D01*
X21158Y37907D01*
X21097Y37600D01*
Y27200D01*
X21158Y26893D01*
X21332Y26632D01*
X21593Y26458D01*
X21900Y26397D01*
X43238D01*
X43555Y26011D01*
X43493Y25700D01*
X43646Y24932D01*
X43697Y24855D01*
Y22924D01*
X43593Y22400D01*
X43697Y21876D01*
Y20400D01*
X43758Y20093D01*
X43932Y19832D01*
X44193Y19658D01*
X44500Y19597D01*
X55821D01*
X56128Y19658D01*
X56389Y19832D01*
X56563Y20093D01*
X56624Y20400D01*
Y29721D01*
X57164D01*
Y34839D01*
X56624D01*
Y37600D01*
X56563Y37907D01*
X56700Y38297D01*
D01*
D01*
X57007Y38358D01*
X57268Y38532D01*
X57368Y38632D01*
X58068Y39332D01*
X58242Y39593D01*
X58303Y39900D01*
Y72100D01*
Y72500D01*
X58242Y72807D01*
X58068Y73068D01*
X58068Y73068D01*
X57600Y73536D01*
X57566Y73558D01*
X57541Y73589D01*
X57437Y73644D01*
X57339Y73710D01*
X57300Y73718D01*
X57265Y73736D01*
X57148Y73748D01*
X57032Y73771D01*
X56903Y74419D01*
Y74687D01*
X57059D01*
Y78624D01*
X56511D01*
X55768Y79368D01*
X55507Y79542D01*
X55200Y79603D01*
X51333D01*
X51008Y79927D01*
Y91642D01*
X58000D01*
X58307Y91703D01*
X58568Y91877D01*
X58742Y92137D01*
X58803Y92444D01*
Y98600D01*
X58742Y98907D01*
X58568Y99168D01*
X58307Y99342D01*
X58000Y99403D01*
X21432D01*
X20768Y100068D01*
X20507Y100242D01*
X20200Y100303D01*
X12163D01*
X11803Y100663D01*
Y101479D01*
X11742Y101786D01*
X11568Y102046D01*
X11568Y102047D01*
X11503Y102111D01*
Y102504D01*
X11442Y102811D01*
X11433Y102824D01*
Y107370D01*
X11377Y107648D01*
X12145Y107801D01*
X12829Y108257D01*
X13286Y108941D01*
X13446Y109748D01*
X13286Y110554D01*
X12829Y111238D01*
X12145Y111695D01*
X11339Y111855D01*
X10532Y111695D01*
X10044Y111368D01*
X9603Y111604D01*
Y113900D01*
Y114200D01*
X9603Y114200D01*
X9542Y114507D01*
X9368Y114768D01*
X9368Y114768D01*
X9178Y114957D01*
X9134Y115177D01*
X9167Y115515D01*
X9763Y115912D01*
X10220Y116596D01*
X10380Y117402D01*
X10220Y118209D01*
X9763Y118893D01*
X9079Y119349D01*
X8273Y119510D01*
D02*
G37*
%LPD*%
G36*
X-40652Y-1551D02*
X-40652Y-1551D01*
X-40417Y-1708D01*
X-40261Y-1813D01*
X-39800Y-1904D01*
X-26188D01*
Y-5337D01*
Y-8880D01*
X-25424D01*
Y-10455D01*
X-26090D01*
Y-17004D01*
X-27153D01*
Y-10455D01*
X-28035D01*
Y-8880D01*
X-27271D01*
Y-5337D01*
X-31208D01*
Y-8880D01*
X-30443D01*
Y-10455D01*
X-31090D01*
Y-17541D01*
X-30062D01*
X-29973Y-17630D01*
X-29973Y-17630D01*
X-29486Y-18117D01*
X-29677Y-18579D01*
X-36918D01*
X-37494Y-18003D01*
X-37302Y-17541D01*
X-37153D01*
Y-15157D01*
X-36955Y-14861D01*
X-36772Y-13939D01*
Y-7700D01*
X-36955Y-6778D01*
X-37212Y-6394D01*
Y-5337D01*
X-38952D01*
X-39180Y-5291D01*
X-39408Y-5337D01*
X-41149D01*
Y-6394D01*
X-41405Y-6778D01*
X-41465Y-7077D01*
X-41975Y-7178D01*
X-42231Y-6794D01*
Y-5337D01*
Y-1794D01*
X-42231D01*
X-42263Y-1755D01*
X-42193Y-1400D01*
X-42345Y-632D01*
X-42452Y-473D01*
X-42399Y-373D01*
X-41904Y-299D01*
X-40652Y-1551D01*
D02*
G37*
G36*
X50333Y-33563D02*
X49962D01*
Y-39862D01*
X52290D01*
Y-42076D01*
X50541D01*
Y-46013D01*
X52581D01*
X52965Y-46269D01*
X53656Y-46406D01*
X56532D01*
Y-46800D01*
X60469D01*
Y-46776D01*
X60930Y-46585D01*
X61256Y-46910D01*
Y-51090D01*
X60252Y-52094D01*
X38931D01*
Y-50443D01*
X39093D01*
Y-46900D01*
Y-46333D01*
X39678D01*
Y-46829D01*
X43615D01*
Y-44700D01*
X43916Y-44576D01*
X44331Y-44853D01*
Y-46800D01*
X48268D01*
Y-43257D01*
X46231D01*
X45064Y-42089D01*
Y-39862D01*
X47994D01*
Y-33563D01*
X47631D01*
Y-33236D01*
X47631D01*
X47623Y-33173D01*
Y-32219D01*
X47623Y-32219D01*
X47594Y-32070D01*
X47707Y-31500D01*
X47554Y-30732D01*
X47119Y-30081D01*
X46468Y-29646D01*
X45700Y-29493D01*
X44932Y-29646D01*
X44281Y-30081D01*
X43846Y-30732D01*
X43693Y-31500D01*
X43793Y-32005D01*
X43352Y-32241D01*
X41854Y-30743D01*
X41464Y-30482D01*
X41003Y-30390D01*
X41003Y-30390D01*
X25569D01*
X25108Y-30482D01*
X24717Y-30743D01*
X22064Y-33396D01*
X5867D01*
X3263Y-30791D01*
X3454Y-30329D01*
X3800D01*
X3800Y-30329D01*
X4261Y-30238D01*
X4651Y-29977D01*
X6424Y-28204D01*
X50333D01*
Y-33563D01*
D02*
G37*
G36*
X-48904Y1600D02*
X-48904Y1600D01*
X-48813Y1139D01*
X-48783Y1095D01*
X-48900Y507D01*
X-49668Y354D01*
X-50319Y-81D01*
X-50754Y-732D01*
X-50907Y-1500D01*
X-50876Y-1654D01*
X-50991Y-1794D01*
X-50991D01*
Y-5337D01*
Y-6394D01*
X-51248Y-6778D01*
X-51431Y-7700D01*
Y-13900D01*
X-51248Y-14821D01*
X-51090Y-15058D01*
Y-17541D01*
X-47153D01*
Y-15353D01*
X-46868Y-14927D01*
X-46368D01*
X-46090Y-15343D01*
Y-17541D01*
X-42153D01*
Y-15107D01*
X-41975Y-14841D01*
X-41975Y-14841D01*
Y-14841D01*
X-41921Y-14716D01*
X-41424Y-14768D01*
X-41405Y-14861D01*
X-41090Y-15333D01*
Y-17541D01*
X-40384D01*
Y-18020D01*
X-40384Y-18020D01*
X-40293Y-18481D01*
X-40032Y-18871D01*
X-39973Y-18930D01*
X-39973Y-18930D01*
X-39751Y-19151D01*
X-39211Y-19692D01*
X-39402Y-20154D01*
X-43058D01*
X-43519Y-20245D01*
X-43675Y-20350D01*
X-43910Y-20506D01*
X-43910Y-20507D01*
X-44973Y-21569D01*
X-45234Y-21960D01*
X-45325Y-22421D01*
X-45325Y-22421D01*
Y-26948D01*
X-45766Y-27184D01*
X-46273Y-26846D01*
X-47041Y-26693D01*
X-47809Y-26846D01*
X-48460Y-27281D01*
X-48604Y-27496D01*
X-53100D01*
X-53561Y-27587D01*
X-53952Y-27849D01*
X-54973Y-28870D01*
X-55234Y-29260D01*
X-55325Y-29721D01*
X-55325Y-29721D01*
Y-31912D01*
X-56090D01*
Y-38998D01*
X-55325D01*
Y-43455D01*
X-56011D01*
Y-46998D01*
X-52074D01*
Y-43455D01*
X-52917D01*
Y-38998D01*
X-52153D01*
Y-31912D01*
X-52917D01*
Y-30220D01*
X-52601Y-29904D01*
X-48604D01*
X-48460Y-30119D01*
X-47809Y-30554D01*
X-47041Y-30707D01*
X-46273Y-30554D01*
X-45766Y-30216D01*
X-45325Y-30452D01*
Y-31912D01*
X-46090D01*
Y-38998D01*
X-45325D01*
Y-43455D01*
X-45972D01*
Y-46998D01*
X-42035D01*
Y-43455D01*
X-42917D01*
Y-38998D01*
X-42153D01*
Y-31912D01*
X-42917D01*
Y-30536D01*
X-42438Y-30391D01*
X-42419Y-30419D01*
X-41768Y-30854D01*
X-41000Y-31007D01*
X-40232Y-30854D01*
X-39581Y-30419D01*
X-39146Y-29768D01*
X-38993Y-29000D01*
X-39146Y-28232D01*
X-39581Y-27581D01*
X-39796Y-27437D01*
Y-24137D01*
X1435D01*
X1646Y-24532D01*
X1493Y-25300D01*
X1646Y-26068D01*
X2081Y-26719D01*
X2732Y-27154D01*
X3326Y-27272D01*
X3401Y-27519D01*
X3103Y-27921D01*
X-12048D01*
X-12146Y-27432D01*
X-12581Y-26781D01*
X-13232Y-26346D01*
X-14000Y-26193D01*
X-14768Y-26346D01*
X-15419Y-26781D01*
X-15854Y-27432D01*
X-15952Y-27921D01*
X-18925D01*
X-18925Y-27921D01*
X-19386Y-28013D01*
X-19777Y-28274D01*
X-19777Y-28274D01*
X-22165Y-30662D01*
X-22426Y-31053D01*
X-22518Y-31514D01*
X-22518Y-31514D01*
Y-39033D01*
X-24505Y-41020D01*
X-24766Y-41411D01*
X-24858Y-41872D01*
X-24858Y-41872D01*
Y-60744D01*
X-25368Y-60846D01*
X-26019Y-61281D01*
X-26454Y-61932D01*
X-26607Y-62700D01*
X-26454Y-63468D01*
X-26662Y-63857D01*
X-27385D01*
X-29481Y-61760D01*
X-29937Y-61456D01*
X-30475Y-61349D01*
X-30952D01*
Y-60588D01*
X-37448D01*
Y-60995D01*
X-43533D01*
Y-60720D01*
X-43689Y-59538D01*
X-44145Y-58436D01*
X-44871Y-57491D01*
X-45817Y-56765D01*
X-46918Y-56309D01*
X-48100Y-56153D01*
X-49282Y-56309D01*
X-50383Y-56765D01*
X-51329Y-57491D01*
X-52055Y-58436D01*
X-52511Y-59538D01*
X-52667Y-60720D01*
Y-60947D01*
X-56166D01*
X-57136Y-59977D01*
Y-29933D01*
X-56870Y-29667D01*
X-56478Y-29081D01*
X-56341Y-28390D01*
Y-17541D01*
X-56090D01*
Y-17541D01*
X-52153D01*
Y-10455D01*
X-52834D01*
Y-8880D01*
X-52271D01*
Y-5337D01*
X-56095D01*
Y1736D01*
X-53475D01*
Y1566D01*
X-49931D01*
Y4125D01*
Y4496D01*
X-48904D01*
Y1600D01*
D02*
G37*
G36*
X52796Y2431D02*
Y-9941D01*
X42916D01*
X42724Y-9479D01*
X43501Y-8702D01*
X43681Y-8719D01*
X44332Y-9154D01*
X45100Y-9307D01*
X45868Y-9154D01*
X46519Y-8719D01*
X46954Y-8068D01*
X47107Y-7300D01*
X46954Y-6532D01*
X46519Y-5881D01*
X45868Y-5446D01*
X45100Y-5293D01*
X44332Y-5446D01*
X43681Y-5881D01*
X43537Y-6096D01*
X43200D01*
X43200Y-6096D01*
X42739Y-6187D01*
X42349Y-6448D01*
X41230Y-7566D01*
X40769Y-7375D01*
Y-5200D01*
X39860D01*
X39846Y-5197D01*
X38960D01*
X38800Y-5165D01*
X36400D01*
X36068Y-3499D01*
Y-1657D01*
X35304D01*
Y1601D01*
X35899Y2196D01*
X48937D01*
X49081Y1981D01*
X49732Y1546D01*
X50500Y1393D01*
X51268Y1546D01*
X51919Y1981D01*
X52317Y2576D01*
X52796Y2431D01*
D02*
G37*
G36*
X31296Y-76782D02*
X30817Y-76927D01*
X30519Y-76481D01*
X29868Y-76046D01*
X29100Y-75893D01*
X28332Y-76046D01*
X27681Y-76481D01*
X27246Y-77132D01*
X27093Y-77900D01*
X27246Y-78668D01*
X27681Y-79319D01*
X27931Y-79487D01*
Y-82427D01*
X27629D01*
Y-82427D01*
X23692D01*
Y-78884D01*
X22936D01*
X22791Y-78405D01*
X23219Y-78119D01*
X23654Y-77468D01*
X23807Y-76700D01*
X23654Y-75932D01*
X23594Y-75841D01*
Y-72388D01*
X23889D01*
Y-72388D01*
X27826D01*
Y-72388D01*
X31296D01*
Y-76782D01*
D02*
G37*
G36*
X-37448Y-64919D02*
X-30952D01*
Y-64917D01*
X-30490Y-64725D01*
X-29568Y-65647D01*
Y-67400D01*
Y-70943D01*
X-28804D01*
Y-71772D01*
X-29568D01*
Y-75315D01*
X-25631D01*
Y-71772D01*
X-26396D01*
Y-70943D01*
X-25631D01*
Y-70542D01*
X-25179Y-70328D01*
X-24843Y-70604D01*
Y-72369D01*
X-24276D01*
Y-75115D01*
X-24276Y-75115D01*
X-24371Y-75231D01*
X-24643D01*
Y-79168D01*
X-19063D01*
X-17491Y-80740D01*
X-17543Y-80864D01*
X-17769Y-81202D01*
X-19919D01*
Y-87698D01*
X-19560D01*
Y-91056D01*
X-20298Y-91794D01*
X-41952D01*
X-42488Y-91257D01*
Y-90489D01*
X-41577Y-89578D01*
X-38500D01*
X-38326Y-89543D01*
X-36531D01*
Y-86637D01*
X-32300D01*
X-31378Y-86453D01*
X-30700Y-86000D01*
X-30332D01*
Y-85534D01*
X-30075Y-85150D01*
X-29891Y-84228D01*
X-30075Y-83307D01*
X-30332Y-82923D01*
Y-82457D01*
X-30700D01*
X-30974Y-82274D01*
X-31225Y-81897D01*
X-33025Y-80097D01*
X-33807Y-79575D01*
X-34728Y-79391D01*
X-39992D01*
Y-73879D01*
X-39969Y-73846D01*
X-39786Y-72924D01*
X-39969Y-72003D01*
X-40226Y-71619D01*
Y-68200D01*
X-43565D01*
X-43843Y-67784D01*
X-43689Y-67413D01*
X-43533Y-66232D01*
Y-64158D01*
X-37448D01*
Y-64919D01*
D02*
G37*
G36*
X28962Y-64538D02*
X29039Y-64567D01*
X29125Y-64999D01*
X29386Y-65389D01*
X32149Y-68151D01*
X32539Y-68413D01*
X32909Y-68486D01*
Y-68957D01*
X32909Y-68957D01*
X32909Y-68957D01*
Y-69524D01*
X31665D01*
Y-68844D01*
X27728D01*
Y-68844D01*
X23889D01*
D01*
D01*
X23889Y-68844D01*
X23594D01*
Y-68844D01*
X19657D01*
Y-72388D01*
X15720D01*
Y-73703D01*
X14527D01*
X14383Y-73488D01*
X13732Y-73053D01*
X12964Y-72900D01*
X9814D01*
X9046Y-73053D01*
X8845Y-73188D01*
X8404Y-72952D01*
Y-70100D01*
X8404Y-70100D01*
X8313Y-69639D01*
X8051Y-69248D01*
X7907Y-69104D01*
X8007Y-68600D01*
X7854Y-67832D01*
X7541Y-67363D01*
X7777Y-66922D01*
X25282D01*
X25282Y-66922D01*
X25743Y-66831D01*
X26133Y-66570D01*
X26937Y-65767D01*
X27198Y-65376D01*
X27242Y-65153D01*
X27971Y-64851D01*
X28380Y-64538D01*
X28962Y-64538D01*
D02*
G37*
G36*
X32049Y-39862D02*
X32049D01*
X32049Y-40221D01*
X27812Y-44458D01*
X27550Y-44849D01*
X27459Y-45310D01*
X27459Y-45310D01*
Y-55706D01*
X27061Y-55972D01*
X26085Y-55843D01*
X25109Y-55972D01*
X24199Y-56349D01*
X23417Y-56948D01*
X22818Y-57730D01*
X22441Y-58639D01*
X22313Y-59616D01*
Y-61584D01*
X22441Y-62561D01*
X22818Y-63471D01*
X23275Y-64065D01*
X23053Y-64514D01*
X13369D01*
X13148Y-64065D01*
X13604Y-63471D01*
X13981Y-62561D01*
X14109Y-61584D01*
Y-59616D01*
X13983Y-58657D01*
X15488Y-57152D01*
X15750Y-56761D01*
X15841Y-56300D01*
X15841Y-56300D01*
Y-52074D01*
X16320Y-51929D01*
X16581Y-52319D01*
X17232Y-52754D01*
X18000Y-52907D01*
X18768Y-52754D01*
X19419Y-52319D01*
X19854Y-51668D01*
X20007Y-50900D01*
X19926Y-50495D01*
X19969Y-50443D01*
X19969D01*
Y-46900D01*
Y-46800D01*
X20332D01*
Y-46800D01*
X24269D01*
Y-43257D01*
X23504D01*
Y-39816D01*
X25404Y-37917D01*
X32049D01*
Y-39862D01*
D02*
G37*
G36*
X9862Y-46894D02*
Y-50437D01*
X9894D01*
Y-52460D01*
X9846Y-52532D01*
X9693Y-53300D01*
X9846Y-54068D01*
X10281Y-54719D01*
X10932Y-55154D01*
X11700Y-55307D01*
X12468Y-55154D01*
X12992Y-54804D01*
X13433Y-55040D01*
Y-55801D01*
X12598Y-56636D01*
X12223Y-56349D01*
X11313Y-55972D01*
X10337Y-55843D01*
X9361Y-55972D01*
X8451Y-56349D01*
X7670Y-56948D01*
X7070Y-57730D01*
X6693Y-58639D01*
X6650Y-58967D01*
X6150D01*
X6107Y-58639D01*
X5730Y-57730D01*
X5130Y-56948D01*
X4349Y-56349D01*
X3439Y-55972D01*
X2463Y-55843D01*
X1487Y-55972D01*
X577Y-56349D01*
X386Y-56495D01*
X132Y-56546D01*
X-519Y-56981D01*
X-954Y-57632D01*
X-1107Y-58400D01*
X-1099Y-58441D01*
X-1181Y-58639D01*
X-1224Y-58967D01*
X-1724D01*
X-1767Y-58639D01*
X-2144Y-57730D01*
X-2743Y-56948D01*
X-3525Y-56349D01*
X-4435Y-55972D01*
X-5411Y-55843D01*
X-6387Y-55972D01*
X-7297Y-56349D01*
X-8078Y-56948D01*
X-8678Y-57730D01*
X-9054Y-58638D01*
X-9545Y-58541D01*
Y-55876D01*
X-17025D01*
Y-65324D01*
X-14990D01*
X-14954Y-65506D01*
X-14562Y-66092D01*
X-13040Y-67614D01*
X-13089Y-68112D01*
X-13652Y-68488D01*
X-14087Y-69139D01*
X-14098Y-69196D01*
X-17696D01*
Y-50559D01*
X-17303D01*
Y-50559D01*
X-13366D01*
Y-49727D01*
X-13234Y-49639D01*
X-12100Y-48504D01*
X-5492D01*
Y-52327D01*
X19D01*
Y-49870D01*
X807D01*
Y-50437D01*
X807D01*
X807Y-51040D01*
X746Y-51132D01*
X593Y-51900D01*
X746Y-52668D01*
X1181Y-53319D01*
X1832Y-53754D01*
X2600Y-53907D01*
X3368Y-53754D01*
X4019Y-53319D01*
X4454Y-52668D01*
X4607Y-51900D01*
X4454Y-51132D01*
X4285Y-50878D01*
X4520Y-50437D01*
X4744D01*
Y-46894D01*
X5138D01*
Y-46894D01*
X9075D01*
Y-45066D01*
X9862D01*
Y-46894D01*
D02*
G37*
G36*
X-24600Y99900D02*
Y99800D01*
Y97656D01*
X-24926Y97168D01*
X-25045Y96569D01*
X-25058Y96565D01*
D01*
X-25272Y96500D01*
X-25600Y96500D01*
D01*
X-25796D01*
X-25800D01*
D01*
D01*
D01*
D01*
D01*
Y96500D01*
Y96500D01*
X-27150D01*
X-25807Y96400D01*
Y96400D01*
X-25800Y96400D01*
D01*
Y96400D01*
X-25800D01*
D01*
D01*
X-25800D01*
D01*
X-25700D01*
X-25640D01*
X-25600D01*
X-25600D01*
D01*
D01*
D01*
D01*
D01*
X-25600Y96400D01*
X-25524D01*
D01*
X-25500D01*
X-25500D01*
Y96400D01*
X-25500D01*
D01*
D01*
X-25180Y96080D01*
Y96080D01*
X-25000Y95900D01*
X-24974Y95874D01*
X-24926Y95632D01*
X-24491Y94981D01*
X-23840Y94546D01*
X-23597Y94498D01*
X-23300Y94200D01*
X-21800D01*
X-21000Y93400D01*
Y77803D01*
X-26696D01*
X-27003Y77742D01*
X-27264Y77568D01*
X-27364Y77468D01*
X-27568Y77264D01*
X-27742Y77003D01*
X-27803Y76696D01*
Y76575D01*
X-27854D01*
Y73000D01*
X-50141D01*
Y73013D01*
X-55259D01*
Y73000D01*
X-56041D01*
Y73013D01*
X-60013D01*
X-60400Y73400D01*
Y73500D01*
Y99423D01*
X-59800Y100022D01*
X-24722D01*
X-24600Y99900D01*
D02*
G37*
G36*
X5300Y116500D02*
X6600Y115200D01*
Y114700D01*
X8300D01*
X8610Y114390D01*
X8610Y114390D01*
X8744Y114256D01*
X8785Y114194D01*
X8800Y114121D01*
Y113900D01*
Y111604D01*
Y109200D01*
X9300Y108700D01*
X10610Y107390D01*
X10630Y107291D01*
Y102824D01*
Y102504D01*
X10684D01*
X10700Y102425D01*
Y102111D01*
Y101779D01*
X10935Y101544D01*
X10935Y101544D01*
X10935Y101544D01*
X10944Y101535D01*
X10986Y101473D01*
X11000Y101400D01*
Y100663D01*
Y100330D01*
X11595Y99735D01*
X11595Y99735D01*
X11595Y99735D01*
X11830Y99500D01*
X20121D01*
X20194Y99485D01*
X20256Y99444D01*
X20865Y98835D01*
X20865Y98835D01*
X20865Y98835D01*
X21100Y98600D01*
X48700D01*
X50200Y97100D01*
Y91019D01*
X50152D01*
Y86688D01*
X50200D01*
Y79600D01*
X50440Y79360D01*
X50765Y79035D01*
X51000Y78800D01*
X55121D01*
X55194Y78786D01*
X55256Y78744D01*
X55943Y78057D01*
X55943Y78057D01*
X55943Y78057D01*
X56100Y77900D01*
Y74687D01*
Y74419D01*
Y73500D01*
X55959Y73359D01*
X55897Y73317D01*
X55824Y73303D01*
X52959D01*
X52852Y73317D01*
D01*
X52800Y73324D01*
X44494D01*
X44342Y73354D01*
X44042Y73479D01*
X43937Y73492D01*
X43937D01*
X43117Y73600D01*
D01*
X43065Y73607D01*
X36107D01*
X36034Y73622D01*
X35972Y73663D01*
X32466Y77169D01*
X32424Y77201D01*
D01*
X32186Y77384D01*
X31685Y77769D01*
X31587Y77809D01*
D01*
X31230Y77957D01*
X30775Y78145D01*
X30599Y78168D01*
X30575Y78177D01*
X30523Y78184D01*
X30487Y78220D01*
X30465Y78235D01*
X30200Y78500D01*
X11200D01*
Y78217D01*
X11165Y78182D01*
X11113Y78175D01*
X11089Y78167D01*
X11063Y78164D01*
X11030Y78159D01*
D01*
X10925Y78145D01*
X10470Y77957D01*
X10113Y77809D01*
D01*
X10015Y77769D01*
X9932Y77704D01*
X9932Y77704D01*
X9311Y77228D01*
X9234Y77169D01*
X9197Y77132D01*
D01*
X8933Y76868D01*
X8632Y76568D01*
X8033Y75786D01*
X7877Y75409D01*
X7767Y75145D01*
X7681Y75016D01*
X6421Y73756D01*
X6359Y73715D01*
X6286Y73700D01*
X-13873D01*
Y73527D01*
X-13935Y73465D01*
X-14052Y73348D01*
X-14300Y73100D01*
X-14380Y73020D01*
X-14479Y73000D01*
X-26921D01*
X-27000Y73016D01*
Y76617D01*
X-26985Y76690D01*
X-26944Y76752D01*
X-26796Y76900D01*
X-26752Y76944D01*
X-26690Y76986D01*
X-26617Y77000D01*
X-17600D01*
X-16500Y78100D01*
X-16354Y78246D01*
X-16264Y78336D01*
X-16243Y78350D01*
X-16206Y78387D01*
X-16154Y78394D01*
X-16130Y78402D01*
X-16118Y78404D01*
D01*
X-16013Y78417D01*
X-15804Y78504D01*
X-15440Y78655D01*
X-15440Y78655D01*
X-15342Y78695D01*
X-15259Y78759D01*
D01*
X-15138Y78852D01*
X-15115Y78863D01*
X-15074Y78895D01*
X-15022D01*
X-14996Y78900D01*
X-14000D01*
X-13963Y78937D01*
X-13484D01*
Y83268D01*
X-13681D01*
X-13686Y83274D01*
X-13700Y83347D01*
Y91321D01*
X-13686Y91394D01*
X-13644Y91456D01*
X-12100Y93000D01*
X-11760Y93340D01*
X-11525Y93575D01*
Y93628D01*
Y101358D01*
X-11520Y101384D01*
Y101436D01*
X-11489Y101477D01*
X-11477Y101500D01*
X-11457Y101526D01*
D01*
X-11393Y101610D01*
X-11213Y102044D01*
X-11127Y102173D01*
X-11100Y102200D01*
X-11000Y102300D01*
Y102460D01*
X-10986Y102494D01*
Y102494D01*
X-10986Y102495D01*
X-10977Y102504D01*
X-10630D01*
Y106791D01*
X-10630Y106791D01*
Y106870D01*
X-10556Y106944D01*
X-10494Y106985D01*
X-10421Y107000D01*
X-8679D01*
X-8606Y106985D01*
X-8544Y106944D01*
X-8268Y106668D01*
Y102504D01*
X-8200D01*
Y96600D01*
X-7700Y96100D01*
X-6298D01*
X-5768Y95746D01*
X-5000Y95593D01*
X-4232Y95746D01*
X-3702Y96100D01*
X-2932D01*
X-2919Y96081D01*
X-2268Y95646D01*
X-1500Y95493D01*
X-732Y95646D01*
X-81Y96081D01*
X-68Y96100D01*
X3002D01*
X3532Y95746D01*
X4300Y95593D01*
X5068Y95746D01*
X5598Y96100D01*
X6200D01*
X6700Y96600D01*
X6900Y96800D01*
Y98400D01*
Y98634D01*
X7419Y98981D01*
X7854Y99632D01*
X8007Y100400D01*
X7854Y101168D01*
X7800Y101249D01*
Y102504D01*
X8268D01*
Y103168D01*
X8273Y103173D01*
Y103500D01*
Y106728D01*
X8268Y106732D01*
Y107425D01*
X4148D01*
X4140Y107433D01*
X4100Y107634D01*
Y110473D01*
X4434D01*
Y116034D01*
X5000Y116600D01*
X5300Y116500D01*
D02*
G37*
G36*
X-55812Y71712D02*
X-55807Y71697D01*
Y71657D01*
X-55800Y71621D01*
X-55800D01*
X-55800Y71621D01*
Y71044D01*
Y65033D01*
Y64700D01*
X-55700Y64600D01*
X-51300Y60200D01*
X-48073D01*
X-48073D01*
X-48007Y60156D01*
X-48007D01*
X-47771Y59998D01*
X-47771Y59998D01*
X-47771Y59998D01*
X-47638Y59909D01*
X-47482Y59878D01*
X-47482Y59878D01*
X-47027Y59788D01*
X-47027D01*
X-46870Y59757D01*
X-46714Y59788D01*
X-46714D01*
X-46259Y59878D01*
X-46259Y59878D01*
X-46102Y59909D01*
X-45969Y59998D01*
X-45969Y59998D01*
X-45969Y59998D01*
X-45727Y60160D01*
X-45667Y60200D01*
X-45667Y60200D01*
X-45504D01*
X-45351Y60170D01*
X-45317Y60155D01*
X-45317Y60155D01*
X-45219Y60115D01*
X-45115Y60101D01*
X-45115D01*
X-44922Y60076D01*
X-44500Y60020D01*
X-43977Y60089D01*
X-43885Y60101D01*
D01*
X-43781Y60115D01*
X-43648Y60170D01*
X-43496Y60200D01*
X-43073D01*
X-43073D01*
X-43007Y60156D01*
X-43007D01*
X-42771Y59998D01*
X-42771Y59998D01*
X-42771Y59998D01*
X-42638Y59909D01*
X-42481Y59878D01*
X-42481Y59878D01*
X-42027Y59788D01*
X-42027D01*
X-41870Y59757D01*
X-41714Y59788D01*
X-41714D01*
X-41259Y59878D01*
X-41259Y59878D01*
X-41102Y59909D01*
X-40969Y59998D01*
X-40969Y59998D01*
X-40969Y59998D01*
X-40888Y60052D01*
X-40451Y60345D01*
X-40362Y60477D01*
X-40362Y60477D01*
Y60477D01*
X-40240Y60660D01*
X-39835Y61065D01*
X-39835Y61065D01*
X-39835Y61065D01*
X-39800Y61100D01*
X-39600Y61300D01*
Y64700D01*
Y65321D01*
X-39586Y65394D01*
X-39544Y65456D01*
X-38856Y66144D01*
X-38794Y66185D01*
X-38721Y66200D01*
X-1663D01*
X-1590Y66185D01*
X-1528Y66144D01*
X-984Y65600D01*
X-856Y65472D01*
X-814Y65410D01*
X-800Y65337D01*
X-800Y65337D01*
X-800D01*
Y65000D01*
Y60503D01*
Y60100D01*
X-400Y59700D01*
X14167D01*
X14167Y59700D01*
X14167Y59700D01*
X14500D01*
X14735Y59935D01*
X14735Y59935D01*
X14735Y59935D01*
X14865Y60065D01*
X14865Y60065D01*
X14900Y60100D01*
X15100Y60300D01*
Y60400D01*
Y68998D01*
X15114Y69071D01*
X15156Y69133D01*
X16031Y70008D01*
X16031Y70008D01*
X16076Y70076D01*
X16800Y70800D01*
X17000Y71000D01*
X22746D01*
X22769Y70964D01*
X23030Y70790D01*
X23337Y70729D01*
X23692D01*
X23765Y70715D01*
X23827Y70673D01*
X24500Y70000D01*
X27844Y66656D01*
X27900Y66572D01*
Y66400D01*
X28300Y66000D01*
X36900D01*
Y65500D01*
X38421D01*
X38494Y65486D01*
X38556Y65444D01*
X39244Y64756D01*
X39285Y64694D01*
X39300Y64621D01*
Y63800D01*
Y52179D01*
X39285Y52106D01*
X39244Y52044D01*
X37856Y50656D01*
X37794Y50615D01*
X37721Y50600D01*
X18786D01*
X18732Y50872D01*
X18514Y51197D01*
X18189Y51415D01*
X17805Y51491D01*
X-17673D01*
X-17719Y51500D01*
X-18103Y51424D01*
X-18428Y51207D01*
X-18646Y50881D01*
X-18722Y50497D01*
Y49000D01*
X-62321D01*
X-62394Y49014D01*
X-62456Y49056D01*
X-63644Y50244D01*
X-63684Y50303D01*
X-63680Y50320D01*
X-63600Y50400D01*
Y50600D01*
Y69921D01*
X-63586Y69994D01*
X-63544Y70056D01*
X-61456Y72144D01*
X-61394Y72185D01*
X-61321Y72200D01*
X-56300D01*
X-55812Y71712D01*
D02*
G37*
G36*
X29898Y77667D02*
X29919Y77653D01*
X29956Y77616D01*
X30000Y77587D01*
X30019Y77567D01*
X30041Y77553D01*
X30056Y77547D01*
X30122Y77488D01*
X30172Y77471D01*
X30216Y77442D01*
X30303Y77425D01*
X30317Y77417D01*
X30342Y77408D01*
X30369Y77405D01*
X30419Y77388D01*
X30470Y77381D01*
X30495Y77373D01*
X30565Y77363D01*
X30922Y77215D01*
X30922D01*
X31280Y77067D01*
X31697Y76747D01*
D01*
X31697Y76747D01*
X31935Y76564D01*
X31935D01*
X31935Y76564D01*
X35404Y73095D01*
X35470Y73051D01*
X35526Y72995D01*
X35588Y72954D01*
X35661Y72924D01*
X35665Y72921D01*
X35669Y72920D01*
X35749Y72887D01*
X35796Y72868D01*
X35800Y72865D01*
X35804Y72864D01*
X35877Y72834D01*
X35877Y72834D01*
D01*
D01*
X35950Y72820D01*
X36029D01*
X36107Y72804D01*
X43013D01*
X43832Y72696D01*
X43832D01*
X43832D01*
X44035Y72612D01*
X44113Y72597D01*
X44186Y72567D01*
X44338Y72536D01*
X44417D01*
X44494Y72521D01*
X52747D01*
X52854Y72507D01*
X52907Y72510D01*
X52959Y72500D01*
X55824D01*
X55901Y72515D01*
X55980D01*
X56053Y72530D01*
X56053Y72530D01*
X56054D01*
X56126Y72560D01*
X56131Y72561D01*
X56135Y72564D01*
X56179Y72582D01*
X56261Y72616D01*
X56266Y72617D01*
X56270Y72620D01*
X56343Y72650D01*
X56343Y72650D01*
X56343Y72650D01*
X56405Y72691D01*
X56461Y72747D01*
X56526Y72791D01*
X56668Y72932D01*
X56739Y73040D01*
X56875Y72984D01*
X56991Y72961D01*
X57029D01*
X57059Y72936D01*
X57069Y72931D01*
X57444Y72556D01*
X57486Y72494D01*
X57500Y72421D01*
Y72100D01*
Y39979D01*
X57486Y39906D01*
X57444Y39844D01*
X56800Y39200D01*
X56756Y39156D01*
X56694Y39114D01*
X56621Y39100D01*
X18720D01*
Y49743D01*
X18786Y49797D01*
X37800D01*
X38107Y49858D01*
X38368Y50032D01*
X39868Y51532D01*
X40042Y51793D01*
X40103Y52100D01*
Y63800D01*
Y64700D01*
X40042Y65007D01*
X39868Y65268D01*
X39068Y66068D01*
X38807Y66242D01*
X38500Y66303D01*
X38309D01*
X38289Y66333D01*
X37638Y66768D01*
X36870Y66921D01*
X36279Y66803D01*
X32780D01*
X31870Y66923D01*
X30960Y66803D01*
X28662D01*
X28642Y66907D01*
X28468Y67168D01*
X28468Y67168D01*
X25068Y70568D01*
X24339Y71297D01*
X24078Y71471D01*
X23771Y71532D01*
X23337D01*
Y72549D01*
X15463D01*
Y70576D01*
X14532Y69645D01*
X14358Y69385D01*
X14297Y69077D01*
Y60632D01*
X14167Y60503D01*
X3D01*
Y65000D01*
Y65416D01*
X3Y65416D01*
X-58Y65723D01*
X-232Y65983D01*
X-417Y66168D01*
X-1017Y66768D01*
X-1277Y66942D01*
X-1584Y67003D01*
X-38800D01*
X-39107Y66942D01*
X-39368Y66768D01*
X-40168Y65968D01*
X-40342Y65707D01*
X-40403Y65400D01*
Y64700D01*
Y61633D01*
X-40808Y61227D01*
X-40852Y61162D01*
X-40908Y61106D01*
X-41030Y60923D01*
X-41415Y60666D01*
X-41870Y60575D01*
X-42325Y60666D01*
X-42627Y60868D01*
X-42700Y60898D01*
X-42766Y60942D01*
X-42843Y60957D01*
X-42916Y60987D01*
X-42995D01*
X-43073Y61003D01*
X-43576D01*
X-43883Y60942D01*
X-43990Y60897D01*
X-44500Y60830D01*
X-45010Y60897D01*
X-45117Y60942D01*
X-45425Y61003D01*
X-45667D01*
X-45745Y60987D01*
X-45824D01*
X-45897Y60957D01*
X-45974Y60942D01*
X-46040Y60898D01*
X-46113Y60868D01*
X-46415Y60666D01*
X-46870Y60575D01*
X-47325Y60666D01*
X-47627Y60868D01*
X-47700Y60898D01*
X-47766Y60942D01*
X-47843Y60957D01*
X-47916Y60987D01*
X-47995D01*
X-48073Y61003D01*
X-50968D01*
X-54997Y65033D01*
Y71044D01*
Y71700D01*
X-54997Y71700D01*
X-55020Y71813D01*
X-54703Y72200D01*
X-53856D01*
X-52700Y71044D01*
X-51534Y72210D01*
X-50204D01*
X-50141Y72197D01*
X-27854D01*
X-27618Y72244D01*
X-27195D01*
X-27157Y72228D01*
X-27077Y72213D01*
X-26998D01*
X-26921Y72197D01*
X-14479D01*
X-14401Y72213D01*
X-14322D01*
X-14224Y72232D01*
X-14195Y72244D01*
X-13484D01*
Y72780D01*
X-13367Y72897D01*
X6286D01*
X6364Y72913D01*
X6443Y72913D01*
X6516Y72927D01*
X6516D01*
X6516Y72927D01*
X6516Y72927D01*
X6589Y72957D01*
X6593Y72958D01*
X6597Y72961D01*
X6642Y72980D01*
X6724Y73013D01*
X6728Y73014D01*
X6732Y73017D01*
X6805Y73047D01*
X6805Y73047D01*
X6805Y73047D01*
X6805Y73047D01*
X6867Y73088D01*
X6923Y73144D01*
X6989Y73188D01*
X8249Y74449D01*
X8293Y74515D01*
X8349Y74570D01*
X8435Y74699D01*
X8465Y74772D01*
X8509Y74838D01*
X8619Y75102D01*
X8619Y75102D01*
X8734Y75381D01*
X9237Y76037D01*
X9501Y76301D01*
X9764Y76564D01*
X9765Y76564D01*
X9800Y76591D01*
X9800Y76591D01*
X10420Y77067D01*
D01*
X10420Y77067D01*
X10420Y77067D01*
X10778Y77215D01*
X10778D01*
X11135Y77363D01*
X11135D01*
X11168Y77368D01*
X11168Y77368D01*
X11168D01*
X11194Y77371D01*
X11218Y77379D01*
X11270Y77386D01*
X11320Y77403D01*
X11347Y77407D01*
X11371Y77415D01*
X11385Y77423D01*
X11472Y77440D01*
X11516Y77470D01*
X11566Y77487D01*
X11645Y77556D01*
X11732Y77614D01*
X11768Y77650D01*
X11768Y77650D01*
X11768Y77650D01*
X11790Y77683D01*
X11802Y77693D01*
X11804Y77697D01*
X29868D01*
X29898Y77667D01*
D02*
G37*
%LPC*%
G36*
X45100Y96268D02*
X41557D01*
Y94231D01*
X41019Y93693D01*
X40758Y93303D01*
X40743Y93228D01*
X40281Y92919D01*
X39846Y92268D01*
X39693Y91500D01*
X39846Y90732D01*
X40145Y90284D01*
X40016Y90091D01*
X39863Y89323D01*
Y83811D01*
X40016Y83043D01*
X40451Y82392D01*
X41102Y81957D01*
X41870Y81804D01*
X42638Y81957D01*
X43289Y82392D01*
X43724Y83043D01*
X43877Y83811D01*
Y89323D01*
X43724Y90091D01*
X43425Y90539D01*
X43554Y90732D01*
X43707Y91500D01*
X43619Y91945D01*
X43936Y92331D01*
X45100D01*
Y96268D01*
D02*
G37*
G36*
X-46600Y91807D02*
X-47368Y91654D01*
X-48019Y91219D01*
X-48454Y90568D01*
X-48607Y89800D01*
X-48454Y89032D01*
X-48227Y88692D01*
X-48289Y88380D01*
X-48289Y88380D01*
X-48289D01*
X-48724Y87729D01*
X-48877Y86961D01*
Y83811D01*
X-48724Y83043D01*
X-48289Y82392D01*
X-47638Y81957D01*
X-46870Y81804D01*
X-46102Y81957D01*
X-45451Y82392D01*
X-45016Y83043D01*
X-44863Y83811D01*
Y86961D01*
X-45016Y87729D01*
X-45243Y88069D01*
X-45181Y88381D01*
X-45181Y88381D01*
X-45181D01*
X-44746Y89032D01*
X-44593Y89800D01*
X-44746Y90568D01*
X-45181Y91219D01*
X-45832Y91654D01*
X-46600Y91807D01*
D02*
G37*
G36*
X-36870Y91907D02*
X-37638Y91754D01*
X-38289Y91319D01*
X-38724Y90668D01*
X-38877Y89900D01*
X-38724Y89132D01*
X-38289Y88481D01*
Y88380D01*
X-38724Y87729D01*
X-38877Y86961D01*
Y83811D01*
X-38724Y83043D01*
X-38289Y82392D01*
X-37638Y81957D01*
X-36870Y81804D01*
X-36102Y81957D01*
X-35451Y82392D01*
X-35016Y83043D01*
X-34863Y83811D01*
Y86961D01*
X-35016Y87729D01*
X-35451Y88380D01*
Y88481D01*
X-35016Y89132D01*
X-34863Y89900D01*
X-35016Y90668D01*
X-35451Y91319D01*
X-36102Y91754D01*
X-36870Y91907D01*
D02*
G37*
G36*
X-34200Y-7693D02*
X-34968Y-7846D01*
X-35619Y-8281D01*
X-36054Y-8932D01*
X-36207Y-9700D01*
X-36063Y-10423D01*
X-36090Y-10455D01*
X-36090D01*
Y-17541D01*
X-32153D01*
Y-10455D01*
X-32153D01*
X-32306Y-10268D01*
X-32193Y-9700D01*
X-32346Y-8932D01*
X-32781Y-8281D01*
X-33432Y-7846D01*
X-34200Y-7693D01*
D02*
G37*
G36*
X2500Y88968D02*
X1732Y88815D01*
X1081Y88380D01*
X646Y87729D01*
X493Y86961D01*
Y83811D01*
X646Y83043D01*
X704Y82956D01*
X693Y82900D01*
X846Y82132D01*
X1281Y81481D01*
X1932Y81046D01*
X2700Y80893D01*
X3468Y81046D01*
X4119Y81481D01*
X4554Y82132D01*
X4707Y82900D01*
X4554Y83668D01*
X4496Y83755D01*
X4507Y83811D01*
Y86961D01*
X4354Y87729D01*
X3919Y88380D01*
X3268Y88815D01*
X2500Y88968D01*
D02*
G37*
G36*
X-27153Y-31912D02*
X-31090D01*
Y-38998D01*
X-30555D01*
X-30363Y-39460D01*
X-30699Y-39796D01*
X-31550D01*
X-31550Y-39796D01*
X-32011Y-39887D01*
X-32401Y-40148D01*
X-32401Y-40148D01*
X-32447Y-40194D01*
X-32501Y-40183D01*
X-32917Y-40010D01*
Y-38998D01*
X-32153D01*
Y-31912D01*
X-36090D01*
Y-38998D01*
X-35325D01*
Y-39601D01*
X-36551Y-40827D01*
X-36813Y-41218D01*
X-36904Y-41679D01*
X-36904Y-41679D01*
Y-43457D01*
X-37917D01*
Y-38998D01*
X-37153D01*
Y-31912D01*
X-41090D01*
Y-38998D01*
X-40325D01*
Y-43457D01*
X-40369D01*
Y-47000D01*
Y-50543D01*
X-36432D01*
Y-50275D01*
X-36372Y-49976D01*
X-35911Y-49884D01*
X-35520Y-49623D01*
X-35230Y-49334D01*
X-34769Y-49525D01*
Y-50543D01*
X-34004D01*
Y-51801D01*
X-34699Y-52496D01*
X-48302D01*
X-48537Y-52055D01*
X-48346Y-51768D01*
X-48193Y-51000D01*
X-48207Y-50928D01*
X-48056Y-50744D01*
X-47567Y-50542D01*
X-47054D01*
Y-46998D01*
Y-43455D01*
X-47917D01*
Y-38998D01*
X-47153D01*
Y-31912D01*
X-51090D01*
Y-38998D01*
X-50325D01*
Y-43455D01*
X-50991D01*
Y-46998D01*
Y-49161D01*
X-51619Y-49581D01*
X-52054Y-50232D01*
X-52207Y-51000D01*
X-52068Y-51700D01*
X-52483Y-51978D01*
X-52532Y-51946D01*
X-53300Y-51793D01*
X-54068Y-51946D01*
X-54719Y-52381D01*
X-55154Y-53032D01*
X-55307Y-53800D01*
X-55154Y-54568D01*
X-54719Y-55219D01*
X-54068Y-55654D01*
X-53300Y-55807D01*
X-52532Y-55654D01*
X-51881Y-55219D01*
X-51670Y-54904D01*
X-34200D01*
X-34200Y-54904D01*
X-33739Y-54813D01*
X-33349Y-54552D01*
X-31949Y-53152D01*
X-31687Y-52761D01*
X-31596Y-52300D01*
X-31596Y-52300D01*
Y-50543D01*
X-30832D01*
Y-47000D01*
Y-43457D01*
X-31596D01*
Y-42749D01*
X-31051Y-42204D01*
X-30200D01*
X-30200Y-42204D01*
X-29739Y-42113D01*
X-29348Y-41851D01*
X-28270Y-40773D01*
X-28269Y-40773D01*
X-28008Y-40382D01*
X-27917Y-39921D01*
X-27917Y-39921D01*
Y-38998D01*
X-27153D01*
Y-31912D01*
D02*
G37*
G36*
X34400Y96069D02*
X30857D01*
Y93951D01*
X30757Y93803D01*
X30666Y93342D01*
X30666Y93342D01*
Y92716D01*
X30581Y92659D01*
X30146Y92008D01*
X29993Y91240D01*
X30146Y90472D01*
X30208Y90379D01*
X30016Y90091D01*
X29863Y89323D01*
Y83811D01*
X30016Y83043D01*
X30451Y82392D01*
X31102Y81957D01*
X31870Y81804D01*
X32638Y81957D01*
X33289Y82392D01*
X33724Y83043D01*
X33877Y83811D01*
Y89323D01*
X33724Y90091D01*
X33662Y90184D01*
X33854Y90472D01*
X34007Y91240D01*
X33907Y91745D01*
X34224Y92132D01*
X34400D01*
Y96069D01*
D02*
G37*
G36*
X-7500Y88968D02*
X-8268Y88815D01*
X-8919Y88380D01*
X-9354Y87729D01*
X-9507Y86961D01*
Y83811D01*
X-9406Y83304D01*
X-9407Y83300D01*
X-9254Y82532D01*
X-8819Y81881D01*
X-8168Y81446D01*
X-7400Y81293D01*
X-6632Y81446D01*
X-5981Y81881D01*
X-5546Y82532D01*
X-5393Y83300D01*
X-5494Y83807D01*
X-5493Y83811D01*
Y86961D01*
X-5646Y87729D01*
X-6081Y88380D01*
X-6732Y88815D01*
X-7500Y88968D01*
D02*
G37*
%LPD*%
D10*
X-33807Y-3565D02*
G03*
X-35382Y-4218I0J-2228D01*
G01*
X-36218D02*
G03*
X-37793Y-3565I-1575J-1575D01*
G01*
X-31207D02*
G03*
X-32782Y-4218I0J-2228D01*
G01*
X-33618D02*
G03*
X-35193Y-3565I-1575J-1575D01*
G01*
X29664Y-74159D02*
G03*
X28075Y-74818I0J-2247D01*
G01*
X27208Y-74783D02*
G03*
X25858Y-74159I-1350J-1151D01*
G01*
X-28318Y-50982D02*
G03*
X-27700Y-49491I-1491J1491D01*
G01*
Y-53309D02*
G03*
X-28318Y-51818I-2109J0D01*
G01*
X-27700Y-44413D02*
G03*
X-26967Y-46182I2502J0D01*
G01*
Y-47018D02*
G03*
X-27700Y-48787I1769J-1769D01*
G01*
Y-42000D02*
G03*
X-27006Y-43551I2081J0D01*
G01*
X-26982Y-44409D02*
G03*
X-27700Y-46141I1732J-1732D01*
G01*
X24809Y-29400D02*
G03*
X23318Y-30018I0J-2109D01*
G01*
X22482D02*
G03*
X20991Y-29400I-1491J-1491D01*
G01*
X17700Y-29400D02*
G03*
X18208Y-30568I1598J0D01*
G01*
X23093Y-29400D02*
G03*
X18222Y-31418I0J-6888D01*
G01*
X20242Y-29400D02*
G03*
X17387Y-30582I0J-4037D01*
G01*
X42809Y-50600D02*
G03*
X42218Y-49172I-2019J0D01*
G01*
X44826Y-50600D02*
G03*
X43818Y-51018I0J-1426D01*
G01*
Y-50182D02*
G03*
X44826Y-50600I1008J1008D01*
G01*
X-11263Y-52163D02*
G03*
X-11609Y-53000I837J-837D01*
G01*
X-12200Y-52409D02*
G03*
X-11021Y-51921I0J1667D01*
G01*
X41774Y-29400D02*
G03*
X42782Y-28982I0J1426D01*
G01*
Y-29818D02*
G03*
X41774Y-29400I-1008J-1008D01*
G01*
X-27700Y-54174D02*
G03*
X-27282Y-55182I1426J0D01*
G01*
X-28118D02*
G03*
X-27700Y-54174I-1008J1008D01*
G01*
X-44223Y42459D02*
G03*
X-47477Y41088I0J-4547D01*
G01*
X-47026Y42459D02*
G03*
X-48323Y41912I0J-1812D01*
G01*
X-46941Y42459D02*
G03*
X-47310Y41521I892J-892D01*
G01*
X-47879Y42090D02*
G03*
X-46941Y42459I45J1261D01*
G01*
X-46182Y31618D02*
G03*
X-44834Y31059I1348J1348D01*
G01*
X-46582Y19318D02*
G03*
X-45234Y18759I1348J1348D01*
G01*
X-45632Y8259D02*
G03*
X-46782Y7782I0J-1627D01*
G01*
Y8618D02*
G03*
X-45917Y8259I865J865D01*
G01*
X-44200Y-13919D02*
X-44121Y-13998D01*
X-49121D02*
X-49023Y-13900D01*
X-58700Y-22828D02*
Y-19300D01*
X-59000Y-23128D02*
X-58841D01*
X-61100D02*
X-59000D01*
X-58841D02*
X-58541Y-22828D01*
Y-19459D01*
X-32700Y-62753D02*
X-30475D01*
X-33053Y-62400D02*
X-32700Y-62753D01*
X-58541Y-60559D02*
X-56700Y-62400D01*
X-58700Y-19300D02*
X-58541Y-19459D01*
X-58700Y-19300D02*
Y-16079D01*
X-30475Y-62753D02*
X-27600Y-65628D01*
X-48100Y-63476D02*
X-47378Y-62753D01*
X-34200D01*
X-56800Y-14700D02*
X-54823D01*
X-57321D02*
X-56800D01*
X-59000Y-23128D02*
X-58700Y-22828D01*
X-46745Y8259D02*
X-44223D01*
X-46887Y31059D02*
X-44223D01*
X-56200Y37341D02*
X-51703D01*
X-51800Y25844D02*
X-51703Y25941D01*
X-57500Y23643D02*
X-51800D01*
X-57500D02*
Y36041D01*
Y13871D02*
Y23643D01*
Y3053D02*
X-57412Y3141D01*
X-51703D01*
X-57500Y3053D02*
Y13871D01*
Y-14000D02*
Y3053D01*
X-57270Y13641D02*
X-51703D01*
X-57500Y13871D02*
X-57270Y13641D01*
X-57500Y36041D02*
X-56200Y37341D01*
X-54239Y-13880D02*
X-54121Y-13998D01*
X-54239Y-13880D02*
Y-7108D01*
X-54823Y-14700D02*
X-54121Y-13998D01*
X-57500Y-14000D02*
X-56800Y-14700D01*
X-47900Y41500D02*
X-46941Y42459D01*
X-44223D01*
X48000Y-41400D02*
X48978Y-40422D01*
X36172Y93628D02*
Y94100D01*
Y93628D02*
X36800Y93000D01*
Y86637D02*
Y93000D01*
Y86637D02*
X36870Y86567D01*
X-39180Y-3565D02*
X-29239D01*
X46271Y-48601D02*
X46300Y-48572D01*
X60600Y-50100D02*
X60700Y-50000D01*
X53100Y-49556D02*
X53644Y-50100D01*
X32600Y-49200D02*
Y-48772D01*
Y-49200D02*
X33400Y-50000D01*
X-24121Y-38421D02*
Y-35455D01*
X-27700Y-42000D02*
X-24121Y-38421D01*
X-27700Y-55600D02*
Y-42000D01*
X48978Y-36712D02*
Y-29803D01*
X48116Y-28941D02*
X48978Y-29803D01*
X43959Y-28941D02*
X48116D01*
X43500Y-29400D02*
X43959Y-28941D01*
X43200Y-29400D02*
X43500D01*
X25858Y-74159D02*
X29696D01*
X29696Y-74159D01*
X25661Y-80655D02*
Y-74356D01*
X25858Y-74159D01*
X-10801Y-51701D02*
X-9449D01*
X-12100Y-53000D02*
X-10801Y-51701D01*
X-12200Y-53000D02*
X-12100D01*
X-56700Y-62400D02*
X-33053D01*
X-58541Y-60559D02*
Y-28783D01*
Y-22828D01*
X-58700Y-16079D02*
X-58147Y-15526D01*
X-57321Y-14700D01*
X-51800Y23643D02*
X-34200D01*
X-51800D02*
Y23765D01*
Y25844D01*
X41647Y-48601D02*
X46271D01*
X46500Y-51200D02*
Y-50900D01*
X46300Y-48601D02*
Y-48572D01*
Y-51000D02*
X46500Y-51200D01*
X41647Y-48601D02*
X43260Y-50214D01*
Y-50500D02*
Y-50214D01*
Y-50500D02*
X43360Y-50600D01*
X43400D01*
X46300D01*
X58516D02*
X59016Y-50100D01*
X60515Y-48601D01*
X46271D02*
X46300D01*
Y-51000D02*
Y-50600D01*
Y-48601D01*
X53644Y-50100D02*
X59016D01*
X60600D01*
X46300Y-50600D02*
X48900D01*
X48978Y-50522D01*
Y-48601D01*
Y-40422D01*
Y-36712D01*
X48900Y-50600D02*
X58516D01*
X46300Y-48601D02*
X48978D01*
X60515D01*
X17700Y-30895D02*
Y-29400D01*
Y-30895D02*
X17805Y-31000D01*
X17700Y-29400D02*
X43200D01*
X17028Y107779D02*
X17704D01*
X22700Y102783D01*
X62817D01*
X66900Y98700D01*
X66927D01*
Y-120405D02*
Y98700D01*
X64600Y-122731D02*
X64669D01*
X64700Y-122700D01*
X-65553Y-87946D02*
Y-84228D01*
X64600Y-122731D02*
X64631Y-122700D01*
X66927Y-120405D01*
X-63700Y-122700D02*
X64631D01*
X64700D01*
X-65553Y-120846D02*
Y-87946D01*
Y-120846D02*
X-63700Y-122700D01*
X-46859Y18759D02*
X-44223D01*
X-47000Y18900D02*
X-46859Y18759D01*
D11*
X8844Y-36556D02*
G03*
X8287Y-37900I1344J-1344D01*
G01*
X7500Y-37113D02*
G03*
X8844Y-36556I0J1901D01*
G01*
X21625Y-74377D02*
G03*
X22357Y-76143I2497J0D01*
G01*
X21243D02*
G03*
X21625Y-75221I-923J923D01*
G01*
Y-75425D02*
G03*
X22016Y-75943I538J0D01*
G01*
X21308Y-76085D02*
G03*
X21625Y-75425I-527J660D01*
G01*
X29900Y-80839D02*
G03*
X28668Y-78558I-2727J0D01*
G01*
X29900Y-79381D02*
G03*
X29100Y-77900I-1771J0D01*
G01*
X18000Y-48999D02*
G03*
X18557Y-50343I1901J0D01*
G01*
X17443D02*
G03*
X18000Y-48999I-1344J1344D01*
G01*
X58672Y-88562D02*
G03*
X57638Y-86538I-2499J0D01*
G01*
X58672Y-87020D02*
G03*
X58100Y-85900I-1382J0D01*
G01*
X-14643Y-78443D02*
G03*
X-11108Y-79907I3535J3535D01*
G01*
X-15200Y-79000D02*
G03*
X-13009Y-79907I2191J2191D01*
G01*
X4300Y-81118D02*
G03*
X3943Y-80257I-1218J0D01*
G01*
X5057Y-80257D02*
G03*
X4300Y-82084I1827J-1827D01*
G01*
X25499Y-91000D02*
G03*
X26843Y-90443I0J1901D01*
G01*
Y-91557D02*
G03*
X25499Y-91000I-1344J-1344D01*
G01*
X46419Y-35137D02*
G03*
X45143Y-32057I-4355J0D01*
G01*
X46419Y-33236D02*
G03*
X45700Y-31500I-2455J0D01*
G01*
X-12975Y-29125D02*
G03*
X-13747Y-28945I-530J-530D01*
G01*
X-13224Y-28336D02*
G03*
X-12975Y-29125I884J-155D01*
G01*
X-13900Y3100D02*
G03*
X-14409Y4199I-1441J0D01*
G01*
X-13391D02*
G03*
X-13900Y3100I932J-1099D01*
G01*
X-10300Y2100D02*
G03*
X-10834Y3322I-1663J0D01*
G01*
X-9766D02*
G03*
X-10300Y2100I1129J-1222D01*
G01*
X-29700Y10821D02*
G03*
X-29283Y10068I888J0D01*
G01*
X-30117D02*
G03*
X-29700Y10821I-471J753D01*
G01*
X-24200Y7121D02*
G03*
X-23685Y5996I1487J0D01*
G01*
X-24715D02*
G03*
X-24200Y7121I-972J1125D01*
G01*
X-41000Y41992D02*
G03*
X-42057Y44543I-3608J0D01*
G01*
X-41000Y43893D02*
G03*
X-41500Y45100I-1707J0D01*
G01*
X-6210Y98888D02*
G03*
X-5000Y98387I1210J1210D01*
G01*
X-5787Y97600D02*
G03*
X-6400Y99079I-2091J0D01*
G01*
X-2844Y98844D02*
G03*
X-1500Y98287I1344J1344D01*
G01*
X-2287Y97500D02*
G03*
X-2844Y98844I-1901J0D01*
G01*
X4921Y101479D02*
G03*
X5869Y101176I766J766D01*
G01*
X5224Y100531D02*
G03*
X4921Y101479I-1069J181D01*
G01*
X-46600Y87899D02*
G03*
X-47157Y89243I-1901J0D01*
G01*
X-46043D02*
G03*
X-46600Y87899I1344J-1344D01*
G01*
X31870Y89653D02*
G03*
X31443Y90683I-1457J0D01*
G01*
X32557D02*
G03*
X31870Y89026I1658J-1658D01*
G01*
X41870Y92842D02*
G03*
X42212Y92098I979J0D01*
G01*
X41444Y92245D02*
G03*
X41870Y92842I-205J597D01*
G01*
Y89188D02*
G03*
X41143Y90943I-2482J0D01*
G01*
X42257Y90943D02*
G03*
X41870Y90010I934J-934D01*
G01*
X3347Y98554D02*
G03*
X4089Y98359I538J538D01*
G01*
X3542Y97811D02*
G03*
X3347Y98554I-733J204D01*
G01*
X1200Y101928D02*
G03*
X1478Y101257I949J0D01*
G01*
X461Y101339D02*
G03*
X1200Y102783I-1041J1444D01*
G01*
X-980Y100700D02*
G03*
X365Y101257I0J1901D01*
G01*
Y100143D02*
G03*
X-980Y100700I-1344J-1344D01*
G01*
X-21072Y96500D02*
G03*
X-22488Y95872I0J-1910D01*
G01*
X-22515Y96957D02*
G03*
X-21412Y96500I1103J1103D01*
G01*
X-36870Y87999D02*
G03*
X-37427Y89343I-1901J0D01*
G01*
X-36313D02*
G03*
X-36870Y87999I1344J-1344D01*
G01*
X-5744Y-12756D02*
G03*
X-4400Y-13313I1344J1344D01*
G01*
X-5187Y-14100D02*
G03*
X-5744Y-12756I-1901J0D01*
G01*
X-4700Y-36601D02*
G03*
X-5257Y-35257I-1901J0D01*
G01*
X-4143D02*
G03*
X-4700Y-36601I1344J-1344D01*
G01*
X-8500Y-36501D02*
G03*
X-9057Y-35157I-1901J0D01*
G01*
X-7943D02*
G03*
X-8500Y-36501I1344J-1344D01*
G01*
X-14400Y-36500D02*
G03*
X-16228Y-35969I-1398J-1398D01*
G01*
X45619Y-100700D02*
G03*
X46270Y-100853I449J449D01*
G01*
X45772Y-101350D02*
G03*
X45619Y-100700I-602J201D01*
G01*
X45962Y-102157D02*
G03*
X42445Y-100700I-3517J-3517D01*
G01*
X46519Y-101600D02*
G03*
X44346Y-100700I-2173J-2173D01*
G01*
X54101Y-99200D02*
G03*
X52757Y-99757I0J-1901D01*
G01*
Y-98643D02*
G03*
X54101Y-99200I1344J1344D01*
G01*
X55601Y-95100D02*
G03*
X54257Y-95657I0J-1901D01*
G01*
Y-94543D02*
G03*
X55601Y-95100I1344J1344D01*
G01*
X49700Y-93200D02*
G03*
X50147Y-94052I1035J0D01*
G01*
X49253D02*
G03*
X49700Y-93200I-588J852D01*
G01*
X53600Y6900D02*
G03*
X52257Y6343I0J-1898D01*
G01*
Y7457D02*
G03*
X53600Y6900I1343J1342D01*
G01*
X32756Y-94844D02*
G03*
X33313Y-93500I-1344J1344D01*
G01*
X34100Y-94287D02*
G03*
X32756Y-94844I0J-1901D01*
G01*
X-47899Y16200D02*
G03*
X-49243Y15643I0J-1901D01*
G01*
X-49243Y16757D02*
G03*
X-47899Y16200I1344J1344D01*
G01*
X-51701Y16200D02*
G03*
X-50357Y16757I0J1901D01*
G01*
X-50357Y15643D02*
G03*
X-51701Y16200I-1344J-1344D01*
G01*
X-45109Y28500D02*
G03*
X-48143Y27243I0J-4291D01*
G01*
X-47010Y28500D02*
G03*
X-48700Y27800I0J-2390D01*
G01*
X-49326Y27323D02*
G03*
X-51703Y28500I-2377J-1811D01*
G01*
X-48700Y27800D02*
G03*
X-50113Y28500I-1413J-1077D01*
G01*
X-44200Y-3301D02*
G03*
X-44757Y-1957I-1901J0D01*
G01*
X-43643D02*
G03*
X-44200Y-3301I1344J-1344D01*
G01*
X-49023Y-49823D02*
G03*
X-49416Y-50923I966J-966D01*
G01*
X-50123Y-50216D02*
G03*
X-49023Y-49823I134J1360D01*
G01*
X-8957Y-12943D02*
G03*
X-7800Y-10150I-2793J2793D01*
G01*
X-8400Y-13500D02*
G03*
X-7800Y-12051I-1448J1448D01*
G01*
X-23653Y-61753D02*
G03*
X-23843Y-62484I526J-526D01*
G01*
X-24384Y-61943D02*
G03*
X-23653Y-61753I204J716D01*
G01*
X-2962Y-8437D02*
G03*
X-2140Y-10421I2806J0D01*
G01*
X-3254D02*
G03*
X-2962Y-9717I-704J704D01*
G01*
X4557Y-92143D02*
G03*
X7591Y-93400I3034J3034D01*
G01*
X4000Y-92700D02*
G03*
X5690Y-93400I1690J1690D01*
G01*
X-3401Y-93000D02*
G03*
X-2057Y-92443I0J1901D01*
G01*
Y-93557D02*
G03*
X-3401Y-93000I-1344J-1344D01*
G01*
X-49023Y-3105D02*
G03*
X-49457Y-2057I-1482J0D01*
G01*
X-48368Y-2080D02*
G03*
X-49023Y-3569I1364J-1488D01*
G01*
X-34100Y-11842D02*
G03*
X-34757Y-10257I-2242J0D01*
G01*
X-33643Y-10257D02*
G03*
X-34100Y-11360I1103J-1103D01*
G01*
X2775Y-50422D02*
G03*
X3157Y-51343I1302J0D01*
G01*
X2043Y-51343D02*
G03*
X2775Y-49576I-1767J1767D01*
G01*
X5401Y-25300D02*
G03*
X4057Y-25857I0J-1901D01*
G01*
Y-24743D02*
G03*
X5401Y-25300I1344J1344D01*
G01*
X2775Y-51578D02*
Y-48665D01*
X51537Y-18063D02*
Y-13090D01*
X46667Y-22933D02*
X51537Y-18063D01*
X-40500Y-22933D02*
X46667D01*
X-41000Y-23433D02*
X-40500Y-22933D01*
X-41000Y-29500D02*
Y-23433D01*
X-44121Y-35455D02*
Y-22421D01*
X-43058Y-21358D01*
X45942D01*
X48978Y-18322D01*
Y-13090D01*
X44817Y-19783D02*
X46419Y-18181D01*
Y-13090D01*
X-38900Y-18300D02*
X-37417Y-19783D01*
X-39180Y-18020D02*
X-39121Y-18079D01*
X-39180Y-18020D02*
Y-13939D01*
X-39121Y-18079D02*
Y-13998D01*
X-38900Y-18300D02*
Y-14219D01*
X-39121Y-18079D02*
X-38900Y-18300D01*
X-37417Y-19783D02*
X44817D01*
X-27692Y-18209D02*
X42720D01*
X43860Y-17068D01*
Y-13090D01*
X-29239Y-16661D02*
Y-13880D01*
X-29121Y-16779D02*
X-27692Y-18209D01*
X-29239Y-13880D02*
Y-7108D01*
Y-16661D02*
X-29121Y-16779D01*
Y-13998D01*
X37459Y-16634D02*
X38742Y-15351D01*
Y-13090D01*
X-8400Y-13500D02*
X-7800Y-12900D01*
X-5900Y-12600D02*
X-4400Y-14100D01*
X-24219Y-13900D02*
X-24121Y-13998D01*
X-24219Y-13900D02*
Y-7108D01*
X-29239Y-13880D02*
X-29121Y-13998D01*
X-34121D02*
X-34100Y-13977D01*
X-49023Y-1623D02*
X-48900Y-1500D01*
X-49023Y-3565D02*
Y-1623D01*
X-27600Y-69172D02*
X-25679D01*
X-22086Y-65578D01*
X-22079D01*
X-27600Y-73544D02*
Y-69172D01*
X3600Y-93400D02*
X29300D01*
X-17753Y-91300D02*
X-17200D01*
X-15500Y-93000D01*
X-1500D01*
X4000D02*
Y-92700D01*
X3600Y-93400D02*
X4000Y-93000D01*
X29300Y-93400D02*
X29900Y-92800D01*
Y-84272D01*
X-24600Y-62700D02*
X-23653Y-61753D01*
X40884Y-45128D02*
X41301Y-44712D01*
X37125Y-45128D02*
X40884D01*
X41301Y-44712D02*
X41647Y-45058D01*
X41301Y-44712D02*
Y-36712D01*
X22200Y-45128D02*
X22300Y-45028D01*
X18000Y-45128D02*
X22200D01*
X10337Y-60600D02*
X14637Y-56300D01*
X26085Y-60900D02*
Y-60600D01*
Y-64915D02*
Y-60900D01*
X27100D01*
X3141Y-65718D02*
X25282D01*
X26085Y-64915D01*
X-47700Y5700D02*
X-44223D01*
X-51703D02*
X-47700D01*
X-51703Y16200D02*
X-44223D01*
X-44200Y-3565D02*
Y-1400D01*
X-51703Y21119D02*
X-51222Y21600D01*
X-51703Y18759D02*
Y21119D01*
Y8259D02*
Y9897D01*
X-50875Y10725D01*
X27100Y-60900D02*
X28663Y-59337D01*
Y-45310D01*
X1600Y-93900D02*
X2800Y-95100D01*
X28663Y-45310D02*
X33148Y-40825D01*
X35712D01*
X36183Y-40355D01*
Y-36712D01*
X30238Y-45962D02*
X30972Y-45228D01*
X30238Y-64538D02*
Y-45962D01*
X33000Y-67300D02*
X38045D01*
X30238Y-64538D02*
X33000Y-67300D01*
X30972Y-45228D02*
X32600D01*
Y-44400D01*
X34600Y-42400D01*
X37645D01*
X53700Y-95100D02*
X57700D01*
X45232Y-112531D02*
X46125Y-113425D01*
X58000D01*
X58300Y-113125D01*
Y-95700D01*
X57700Y-95100D02*
X58300Y-95700D01*
X59100Y-92300D02*
X60200Y-93400D01*
Y-113500D02*
Y-93400D01*
X58700Y-115000D02*
X60200Y-113500D01*
X42500Y-115000D02*
X58700D01*
X40507Y-113007D02*
Y-107300D01*
Y-113007D02*
X42500Y-115000D01*
X54000Y-12994D02*
X54096Y-13090D01*
X45232Y-112531D02*
Y-107300D01*
X53893D02*
X54700Y-106493D01*
Y-99400D01*
X54500Y-99200D02*
X54700Y-99400D01*
X52200Y-99200D02*
X54500D01*
X49169Y-107300D02*
Y-100137D01*
X47003Y-97972D02*
X49169Y-100137D01*
X47003Y-97972D02*
Y-97900D01*
X-32928Y-83600D02*
X-32300Y-84228D01*
X-47837Y-83737D02*
X-47700Y-83600D01*
X-47837Y-97700D02*
Y-83737D01*
X-49472Y-99335D02*
X-47837Y-97700D01*
X-49472Y-100176D02*
Y-99335D01*
X-45276Y-107100D02*
Y-100829D01*
X-45928Y-100176D02*
X-45276Y-100829D01*
X-23472Y-66972D02*
X-22079Y-65578D01*
X21724Y-84199D02*
X25661D01*
X21625Y-75425D02*
Y-74159D01*
X52972Y-66500D02*
X53000Y-66472D01*
X40400Y-66000D02*
X40900Y-66500D01*
X40400Y-66000D02*
Y-63900D01*
X39428Y-62928D02*
X40400Y-63900D01*
X34700Y-62928D02*
X39428D01*
X38045Y-67300D02*
X41563Y-70818D01*
Y-72676D02*
Y-70818D01*
X44676Y-81300D02*
X45500Y-82124D01*
X35600Y-81300D02*
X44676D01*
X34500Y-80200D02*
X35600Y-81300D01*
X34500Y-80200D02*
Y-74272D01*
X43860Y-42588D02*
Y-36712D01*
Y-42588D02*
X46300Y-45028D01*
X37645Y-42400D02*
X38742Y-41303D01*
Y-36712D01*
X24905D02*
X33624D01*
X22300Y-39318D02*
X24905Y-36712D01*
X22300Y-45028D02*
Y-39318D01*
X29696Y-70616D02*
X30097Y-70215D01*
X29696Y-70616D02*
X29696Y-70616D01*
X25858Y-70616D02*
X29696D01*
X21625D02*
X25858D01*
X16980Y-84907D02*
X17688Y-84199D01*
X11389Y-84907D02*
X16980D01*
X11389Y-79907D02*
X20976D01*
X21724Y-80655D01*
X20877Y-74907D02*
X21625Y-74159D01*
X-22872Y-74915D02*
X-22794Y-74838D01*
X-23072Y-75115D02*
X-22872Y-74915D01*
Y-70600D01*
Y-77200D02*
Y-75315D01*
X-23072Y-70400D02*
X-22872Y-70600D01*
X-22794Y-74838D02*
X-10728D01*
X-10658Y-74907D01*
X-19328Y-77200D02*
X-16621Y-79907D01*
X-23072Y-75115D02*
X-22872Y-75315D01*
X-23072Y-75115D02*
Y-70400D01*
Y-70108D01*
X-20475Y-67511D01*
Y-43148D01*
X-11151Y-70400D02*
X-10658Y-69907D01*
X-19528Y-70400D02*
X-11151D01*
X-19528D02*
X-18900Y-69772D01*
Y-43800D01*
X-51703Y42459D02*
Y44297D01*
X-50600Y45000D02*
X-50500Y45100D01*
X-51000Y45000D02*
X-50600D01*
X-51703Y44297D02*
X-51000Y45000D01*
X-2737Y-49767D02*
X-1634Y-48665D01*
X-2737Y-50161D02*
Y-49767D01*
X-1634Y-48665D02*
X2775D01*
X-9449Y-42685D02*
X-8500Y-41736D01*
Y-34600D01*
X-2737Y-43862D02*
X10571D01*
X11830Y-45122D01*
X-4700Y-41899D02*
X-2737Y-43862D01*
X-4700Y-41899D02*
Y-34700D01*
X6763Y-14322D02*
Y-9624D01*
X-39121Y-13998D02*
X-38900Y-14219D01*
X-54121Y-35455D02*
Y-29721D01*
X-53100Y-28700D01*
X-47041D01*
X-39180Y-13939D02*
X-39121Y-13998D01*
X-46800Y39100D02*
X-46000Y39900D01*
X-49600Y39100D02*
X-46800D01*
X-50400Y39900D02*
X-49600Y39100D01*
X-51703Y39900D02*
X-50400D01*
X-46000D02*
X-44223D01*
X-51703Y32297D02*
X-50300Y33700D01*
X-51703Y31059D02*
Y32297D01*
X36183Y-7189D02*
X36400Y-6972D01*
X34100D02*
X36400D01*
X-54121Y-45148D02*
X-54042Y-45227D01*
X-54121Y-45148D02*
Y-35455D01*
X-49121Y-45128D02*
X-49023Y-45227D01*
X-49121Y-45128D02*
Y-35455D01*
X-44121Y-45109D02*
X-44003Y-45227D01*
X-44121Y-45109D02*
Y-35455D01*
X-31550Y-41000D02*
X-30200D01*
X-29121Y-39921D01*
Y-35455D01*
X-32800Y-42250D02*
X-31550Y-41000D01*
X-32800Y-45228D02*
Y-42250D01*
X-35700Y-41679D02*
X-34121Y-40100D01*
X-35700Y-48100D02*
Y-41679D01*
X-34121Y-40100D02*
Y-37000D01*
X-38400Y-48772D02*
X-36372D01*
X-35700Y-48100D01*
X-39121Y-44507D02*
X-38400Y-45228D01*
X-39121Y-44507D02*
Y-35455D01*
X-2200Y100700D02*
X921D01*
X41870Y86567D02*
Y92842D01*
X-2838Y101338D02*
Y104849D01*
X2838Y104849D02*
X2953Y104964D01*
X2859Y107441D02*
X2953Y107347D01*
X2500Y107800D02*
X2859Y107441D01*
Y114607D01*
X-2953Y104964D02*
Y107732D01*
X300Y110984D01*
Y114607D01*
X2953Y104964D02*
Y107347D01*
X2083Y107800D02*
X2500D01*
X2064Y107818D02*
X2083Y107800D01*
X-639Y107818D02*
X2064D01*
X-984Y107473D02*
X-639Y107818D01*
X-984Y104964D02*
Y107473D01*
X984Y104964D02*
X1181Y104767D01*
Y102802D02*
Y104767D01*
Y102802D02*
X1200Y102783D01*
Y100979D02*
Y102783D01*
X921Y100700D02*
X1200Y100979D01*
X-2838Y101338D02*
X-2200Y100700D01*
X-2953Y104964D02*
X-2838Y104849D01*
X31870Y93342D02*
X32628Y94100D01*
X41870Y92842D02*
X43328Y94300D01*
X4921Y101479D02*
Y104964D01*
Y101479D02*
X6000Y100400D01*
X-51222Y21600D02*
X-40124D01*
X-39424Y20900D01*
Y16024D02*
X-39400Y16000D01*
X-39424Y14700D02*
X-39400Y14724D01*
X-39625Y10725D02*
X-38800Y9900D01*
X-50875Y10725D02*
X-39625D01*
X-44223Y13641D02*
X-39424D01*
Y14700D01*
X31870Y86567D02*
Y93342D01*
X2953Y102009D02*
Y104964D01*
Y102009D02*
X3283Y101678D01*
Y101563D02*
Y101678D01*
Y101563D02*
X3347Y101500D01*
Y98554D02*
Y101500D01*
Y98554D02*
X4300Y97600D01*
X-4921Y100921D02*
X-1500Y97500D01*
X-4921Y100921D02*
Y104964D01*
X-6890Y99568D02*
Y104964D01*
X-5000Y97600D02*
X-4921D01*
X-50500Y45100D02*
X-41000D01*
X-44223Y37341D02*
X-42000D01*
X-41000Y38341D02*
Y45100D01*
X-42000Y37341D02*
X-41000Y38341D01*
X-40800Y27700D02*
Y33700D01*
X-42559Y25941D02*
X-40800Y27700D01*
X-44223Y25941D02*
X-42559D01*
X-36870Y85386D02*
Y89900D01*
X-46600Y85656D02*
Y89800D01*
X-46870Y85386D02*
X-46600Y85656D01*
X-39424Y16024D02*
Y20900D01*
X-39400Y14724D02*
Y14900D01*
Y16000D01*
X-39424Y14700D02*
Y14924D01*
Y16024D01*
Y14924D02*
X-39400Y14900D01*
X-37225Y12725D01*
X-5900Y-12600D02*
Y7800D01*
X-9062Y7962D02*
X-7800Y6700D01*
Y-12900D02*
Y6700D01*
X-34100Y-13977D02*
Y-9700D01*
X-41672Y1173D02*
X-39800Y-700D01*
X-38800Y3141D02*
Y9900D01*
Y1600D02*
X-38075Y875D01*
X-38800Y1600D02*
Y3141D01*
X-44223D02*
X-38800D01*
X-37225Y3275D02*
Y12725D01*
Y3275D02*
X-36400Y2450D01*
X-10300Y2100D02*
Y3900D01*
X-11525Y875D02*
X-10300Y2100D01*
X-38075Y875D02*
X-11525D01*
X-13900Y3100D02*
Y4800D01*
X-14550Y2450D02*
X-13900Y3100D01*
X-36400Y2450D02*
X-14550D01*
X-7637Y9537D02*
X-5900Y7800D01*
X-21314Y-31514D02*
X-18925Y-29125D01*
X-51703Y28500D02*
X-44223D01*
X-50300Y33700D02*
X-40800D01*
X1600Y-93900D02*
Y-67259D01*
Y-66818D02*
X2700Y-65718D01*
X1600Y-67259D02*
Y-66818D01*
Y-67259D02*
X3141Y-65718D01*
X-41870Y78320D02*
X-41700Y78150D01*
X-41870Y78320D02*
Y79874D01*
Y85386D01*
X-29700Y10821D02*
X-29021Y11500D01*
X-29700Y9400D02*
Y10821D01*
X-26363Y9537D02*
X-7637D01*
X-26800Y9100D02*
X-26363Y9537D01*
X-26800Y5700D02*
Y9100D01*
X-27200Y5300D02*
X-26800Y5700D01*
X-23359Y7962D02*
X-9062D01*
X-24200Y5400D02*
Y7121D01*
X-23359Y7962D01*
X-39800Y-700D02*
X-24500D01*
X-24000Y-1200D01*
Y-3346D02*
Y-1200D01*
X-24219Y-3565D02*
X-24000Y-3346D01*
X-47700Y1600D02*
Y5700D01*
Y1600D02*
X-47272Y1173D01*
X-41672D01*
X-16621Y-79907D02*
X-10658D01*
X44800Y-62228D02*
Y-58800D01*
Y-62228D02*
X45500Y-62928D01*
X46419Y-36712D02*
Y-32219D01*
X45700Y-31500D02*
X46419Y-32219D01*
X56655Y-36712D02*
Y-26855D01*
X3500Y-25300D02*
X55100D01*
X56655Y-26855D01*
X6918Y-91000D02*
X27400D01*
X4300Y-88382D02*
X6918Y-91000D01*
X4300Y-88382D02*
Y-79800D01*
X4400D01*
X4500Y-79700D01*
X50128Y-88500D02*
X55128D01*
X50028Y-88600D02*
X50128Y-88500D01*
X58672D02*
Y-86472D01*
X58100Y-85900D02*
X58672Y-86472D01*
X7657Y-84907D02*
X11389D01*
X7200Y-84450D02*
X7657Y-84907D01*
X7200Y-84450D02*
Y-70100D01*
X5800Y-68700D02*
X5900Y-68600D01*
X6000D01*
X18000Y-50900D02*
Y-48672D01*
X5800Y-68700D02*
X7200Y-70100D01*
X-20475Y-43148D02*
X-16800Y-39473D01*
X-22079Y-42524D02*
X-19162Y-39608D01*
X-22079Y-65578D02*
Y-42524D01*
X-21314Y-39532D02*
Y-31514D01*
X-23653Y-41872D02*
X-21314Y-39532D01*
X-23653Y-61753D02*
Y-41872D01*
X41301Y-13090D02*
Y-9199D01*
X43200Y-7300D01*
X45100D01*
X56655Y-13090D02*
Y9345D01*
X55500Y10500D02*
X56655Y9345D01*
X53700Y10500D02*
X55500D01*
X51700Y6900D02*
X53600D01*
X54000Y6500D01*
Y-12994D02*
Y6500D01*
X50600Y-92300D02*
X59100D01*
X49700Y-93200D02*
X50600Y-92300D01*
X49700Y-94700D02*
Y-93200D01*
X35400Y3400D02*
X50500D01*
X34100Y2100D02*
X35400Y3400D01*
X34100Y-3428D02*
Y2100D01*
X49437Y-74363D02*
Y-72676D01*
X47800Y-76000D02*
X49437Y-74363D01*
X-12975Y-29125D02*
X3800D01*
X51537Y-36712D02*
Y-27537D01*
X51000Y-27000D02*
X51537Y-27537D01*
X5925Y-27000D02*
X51000D01*
X3800Y-29125D02*
X5925Y-27000D01*
X32500Y-72000D02*
X33772Y-70728D01*
X40912Y-88700D02*
X41012Y-88600D01*
X33772Y-70728D02*
X34500D01*
X33200Y-88700D02*
X40912D01*
X32500Y-88000D02*
X33200Y-88700D01*
X32500Y-88000D02*
Y-72000D01*
X21625Y-70616D02*
X21737Y-70728D01*
X33772D01*
X29900Y-80728D02*
Y-78700D01*
X29100Y-77900D02*
X29900Y-78700D01*
X21800Y-76700D02*
Y-75600D01*
X21625Y-75425D02*
X21800Y-75600D01*
X29900Y-78700D02*
Y-78600D01*
X11389Y-74907D02*
X20877D01*
X-15335Y-48787D02*
X-14085D01*
X-12598Y-47300D01*
X-3000D01*
X-1634Y-48665D01*
X-22972Y96500D02*
X-21072D01*
X-23072Y96400D02*
X-22972Y96500D01*
X-47700Y-83600D02*
X-42829D01*
X-32928D01*
X7500Y-37900D02*
X9000Y-36400D01*
X22990D02*
X26221Y-33169D01*
X9000Y-36400D02*
X14637D01*
X22990D01*
X14637Y-56300D02*
Y-36400D01*
X-15335Y-45244D02*
X-12008D01*
X-9449Y-42685D01*
X-18900Y-43800D02*
X-17750Y-42650D01*
X-14700Y-42685D02*
X-14400Y-42385D01*
X-17715Y-42685D02*
X-14700D01*
X-17750Y-42650D02*
X-17715Y-42685D01*
X26221Y-33169D02*
X40018D01*
X41301Y-36712D02*
Y-34451D01*
X40018Y-33169D02*
X41301Y-34451D01*
X25569Y-31594D02*
X41003D01*
X43860Y-34451D01*
Y-35200D02*
Y-34451D01*
X22563Y-34600D02*
X25569Y-31594D01*
X32500Y-95100D02*
X34100Y-93500D01*
X2800Y-95100D02*
X32500D01*
X-47837Y-97700D02*
X-46812Y-96675D01*
X39575Y-104975D02*
X40507Y-105907D01*
Y-107300D02*
Y-105907D01*
X-30375Y-104975D02*
X39575D01*
X-32100Y-106700D02*
X-30375Y-104975D01*
X-32100Y-112100D02*
Y-106700D01*
X-32675Y-112675D02*
X-32100Y-112100D01*
X-34800Y-111100D02*
X-33800Y-110100D01*
Y-106173D01*
X-31027Y-103400D01*
X43717D01*
X45232Y-104915D01*
Y-107300D02*
Y-104915D01*
X-52225Y-112675D02*
X-32675D01*
X-53937Y-110963D02*
X-52225Y-112675D01*
X-53937Y-110963D02*
Y-107100D01*
X-48700Y-111100D02*
X-34800D01*
X-49213Y-110587D02*
X-48700Y-111100D01*
X-49213Y-110587D02*
Y-107100D01*
X-46812Y-96675D02*
X42235D01*
X43460Y-97900D01*
X-2697Y-10978D02*
X-2038Y-11637D01*
Y-15439D02*
Y-11637D01*
X-843Y-16634D02*
X37459D01*
X-2038Y-15439D02*
X-843Y-16634D01*
X33624Y-14535D02*
Y-13090D01*
X33100Y-15059D02*
X33624Y-14535D01*
X200Y-13159D02*
Y-7072D01*
Y-13159D02*
X2100Y-15059D01*
X6763Y-14322D02*
X7500Y-15059D01*
X14637Y-13396D02*
X16300Y-15059D01*
X14637Y-13396D02*
Y-9624D01*
X16300Y-15059D02*
X33100D01*
X2100D02*
X7500D01*
X16300D01*
X-2962Y-10713D02*
X-2697Y-10978D01*
X-2962Y-10713D02*
Y10341D01*
X-4121Y11500D02*
X-2962Y10341D01*
X-29021Y11500D02*
X-4121D01*
X-19162Y-39608D02*
Y-31916D01*
X-18361Y-31115D01*
X5368Y-34600D02*
X22563D01*
X-18361Y-31115D02*
X1883D01*
X5368Y-34600D01*
X-50200Y-51000D02*
X-49023Y-49823D01*
Y-48770D01*
X-34200Y-53700D02*
X-32800Y-52300D01*
Y-48772D01*
X-53300Y-53700D02*
X-34200D01*
X-40551Y-99301D02*
X-39500Y-98250D01*
X39600Y-100700D02*
X45619D01*
X46519Y-101600D01*
X-40551Y-107100D02*
Y-99301D01*
X-39500Y-98250D02*
X37150D01*
X39600Y-100700D01*
X-6890Y99568D02*
X-4921Y97600D01*
X-14000Y-28100D02*
X-12975Y-29125D01*
X-18925D02*
X-12975D01*
X-14400Y-42385D02*
Y-36500D01*
X-16400Y-35200D02*
X-15700D01*
X-14400Y-36500D01*
X55515Y-66472D02*
X58000Y-68957D01*
D12*
X200Y-3674D02*
G03*
X-733Y-1545I-2895J0D01*
G01*
X-17753Y-91300D02*
Y-84450D01*
Y-91804D02*
Y-91300D01*
X-44653Y-90100D02*
X-42325Y-87772D01*
X-38500D01*
X-44653Y-91646D02*
Y-90100D01*
Y-91646D02*
X-42700Y-93600D01*
X-19550D01*
X-17753Y-91804D01*
Y-84450D02*
X-16304Y-85900D01*
X-2400D02*
X-565Y-84065D01*
X-2953Y-66900D02*
X-565Y-69287D01*
X-11200Y-66900D02*
X-2953D01*
X-13285Y-64815D02*
X-11200Y-66900D01*
X-13285Y-64815D02*
Y-60600D01*
X53100Y-44044D02*
X54096Y-43048D01*
Y-36712D01*
X36183Y-13090D02*
Y-7189D01*
X36400Y-6972D02*
X38800D01*
X9449Y95000D02*
Y104964D01*
Y93704D02*
Y95000D01*
X10884D01*
X21712Y95081D02*
X23031D01*
X18703Y98090D02*
X21712Y95081D01*
X13974Y98090D02*
X18703D01*
X10884Y95000D02*
X13974Y98090D01*
X-12000Y76684D02*
X-11300Y75984D01*
X-12000Y76684D02*
Y89900D01*
X-9400Y92500D01*
X7500Y91755D02*
X9449Y93704D01*
X5418Y108991D02*
X6000Y108409D01*
X5418Y108991D02*
Y114607D01*
X9252Y105161D02*
X9449Y104964D01*
X9252Y105161D02*
Y107371D01*
X8214Y108409D02*
X9252Y107371D01*
X6000Y108409D02*
X8214D01*
X-9400Y92500D02*
Y94400D01*
Y99100D01*
X-9449Y94400D02*
X-9400D01*
X9400D01*
X11700Y-53300D02*
Y-48796D01*
X11830Y-48665D01*
X33200Y-53900D02*
X37200D01*
X37125Y-53825D02*
Y-48672D01*
Y-53825D02*
X37200Y-53900D01*
X-565Y-84065D02*
Y-69287D01*
X-16304Y-85900D02*
X-2400D01*
X200Y-3528D02*
Y-2200D01*
X-600Y-1400D02*
X200Y-2200D01*
X-65553Y-87946D02*
X-63600Y-89900D01*
X-51547D01*
X-51346Y-90100D01*
X-59000Y-62100D02*
X-58346Y-62753D01*
X-59000Y-62100D02*
Y-29243D01*
X-58147Y22996D02*
X-57500Y23643D01*
X-58346Y-62753D02*
X-47378D01*
X-58147Y-28390D02*
Y-15526D01*
Y22996D01*
X-59000Y-29243D02*
X-58541Y-28783D01*
X-58147Y-28390D01*
X-57500Y23643D02*
X-57378Y23765D01*
X-51800D01*
X-46324D01*
X53100Y-44044D02*
X53656Y-44600D01*
X59871Y-44044D02*
X60427Y-44600D01*
X37200Y-53900D02*
X61000D01*
X59871Y-44044D02*
X60944D01*
X63062Y-46162D01*
Y-51838D02*
Y-46162D01*
X61000Y-53900D02*
X63062Y-51838D01*
X53656Y-44600D02*
X60427D01*
X53100Y-44044D02*
X59871D01*
X-65553Y-84228D02*
Y98100D01*
X-9449Y99100D02*
Y104964D01*
X40900Y-66500D02*
X52972D01*
D13*
X-27938Y96500D02*
G03*
X-27045Y94345I3047J0D01*
G01*
X-14188Y102611D02*
G03*
X-15187Y100200I2411J-2411D01*
G01*
X-14365Y100987D02*
G03*
X-16732Y100068I-142J-3145D01*
G01*
X-16732Y103930D02*
G03*
X-14957Y99643I6062J0D01*
G01*
X-14708Y100925D02*
G03*
X-16732Y97864I1302J-3060D01*
G01*
X-14957Y100757D02*
G03*
X-16732Y96470I4286J-4286D01*
G01*
X-19279Y102083D02*
G03*
X-16732Y106007I-1750J3924D01*
G01*
Y98840D02*
G03*
X-19153Y103450I-5600J0D01*
G01*
X-25098Y81102D02*
X-24400Y81800D01*
X-11300Y75984D02*
X-2697D01*
X-15157D02*
X-11300D01*
X7685Y69685D02*
X11777D01*
X7085D02*
X7685D01*
X7300Y69300D02*
X7500Y69100D01*
X7000Y69600D02*
X7300Y69300D01*
X33756Y70544D02*
X52800D01*
X27072Y43303D02*
X44371D01*
X53031D01*
X30356Y70544D02*
X33756D01*
X7500Y81693D02*
X8709D01*
X41000Y75984D02*
X47441D01*
X8709Y81693D02*
X21654D01*
X19900Y80899D02*
X29214D01*
X36870Y80114D02*
X41000Y75984D01*
X36870Y80114D02*
Y86567D01*
X7085Y69685D02*
X11300Y73900D01*
X7000Y69600D02*
X7085Y69685D01*
X-15915D02*
X7085D01*
X3000Y75984D02*
X8709Y81693D01*
X-2697Y75984D02*
X3000D01*
X27000Y73900D02*
X30356Y70544D01*
X-44500Y62800D02*
Y67200D01*
X-16000Y69600D02*
X-15915Y69685D01*
X-42100Y69600D02*
X-16000D01*
X-47200Y63009D02*
X-46870Y63339D01*
X27048Y43279D02*
X27072Y43303D01*
X43300Y69600D02*
X44371Y68529D01*
X-44500Y67200D02*
X-42100Y69600D01*
X44371Y43301D02*
Y43303D01*
X7500Y63339D02*
Y69100D01*
X47441Y75984D02*
X48228Y76772D01*
X23031Y88583D02*
Y95081D01*
X-2500Y76181D02*
Y85386D01*
X-2697Y75984D02*
X-2500Y76181D01*
X7500Y81693D02*
Y85386D01*
X23031Y83071D02*
Y88583D01*
X21654Y81693D02*
X23031Y83071D01*
X7500Y85386D02*
Y91755D01*
X-2500Y85386D02*
Y91755D01*
X-2500Y91755D02*
X-2500Y91755D01*
X-35239Y79874D02*
X-34011Y81102D01*
X-25098D02*
X-24606D01*
X-25344Y80856D02*
X-25098Y81102D01*
X-24853Y80856D02*
X-24606Y81102D01*
X-29656Y79194D02*
Y79242D01*
X-30700Y78150D02*
X-29656Y79194D01*
X-28041Y80856D02*
X-25344D01*
X-24853D01*
X-29656Y79242D02*
X-29024Y79874D01*
X-28041Y80856D01*
X-52900Y78900D02*
X-52150Y78150D01*
X-52900Y78900D02*
Y92800D01*
X-50600Y95100D01*
X-27800D01*
X-35239Y79874D02*
X-29024D01*
X-27800Y95100D02*
X-24900Y92200D01*
X-52150Y78150D02*
X-41700D01*
X-30700D01*
X-50274Y79874D02*
X-41870D01*
X-35239D01*
X-60952Y102802D02*
X-19600D01*
X-65553Y98200D02*
X-60952Y102802D01*
X-65553Y98100D02*
Y98200D01*
X-16732Y100068D02*
X-13800Y103000D01*
X-16732Y100068D02*
Y106007D01*
Y81102D02*
Y100068D01*
X-34011Y81102D02*
X-25098D01*
X-24900Y84700D02*
Y92200D01*
D14*
X-2737Y-43862D02*
D03*
X-2737Y-50161D02*
D03*
D15*
X-9449Y-42685D02*
D03*
X-9449Y-51701D02*
D03*
D16*
X-32300Y-84228D02*
D03*
Y-87772D02*
D03*
X18000Y-45128D02*
D03*
Y-48672D02*
D03*
X22300Y-45028D02*
D03*
Y-48572D02*
D03*
X200Y-7072D02*
D03*
Y-3528D02*
D03*
X-27600Y-73544D02*
D03*
Y-77087D02*
D03*
X46300Y-45028D02*
D03*
Y-48572D02*
D03*
X-38500Y-87772D02*
D03*
Y-84228D02*
D03*
X-27600Y-69172D02*
D03*
Y-65628D02*
D03*
X34878Y-74272D02*
D03*
Y-70728D02*
D03*
X58500Y-48572D02*
D03*
Y-45028D02*
D03*
X41647Y-45058D02*
D03*
Y-48601D02*
D03*
X37125Y-48672D02*
D03*
Y-45128D02*
D03*
X32600Y-45228D02*
D03*
Y-48772D02*
D03*
X11830Y-48665D02*
D03*
Y-45122D02*
D03*
X7106Y-48665D02*
D03*
Y-45122D02*
D03*
X2775D02*
D03*
Y-48665D02*
D03*
X-15335Y-45244D02*
D03*
Y-48787D02*
D03*
X-32800Y-45228D02*
D03*
Y-48772D02*
D03*
X-38400Y-45228D02*
D03*
Y-48772D02*
D03*
X-44003Y-48770D02*
D03*
Y-45227D02*
D03*
X-49023Y-48770D02*
D03*
Y-45227D02*
D03*
X-54042D02*
D03*
Y-48770D02*
D03*
X-61100Y-26672D02*
D03*
Y-23128D02*
D03*
X-54239Y-7108D02*
D03*
Y-3565D02*
D03*
X-49023Y-7108D02*
D03*
Y-3565D02*
D03*
X-44200D02*
D03*
Y-7108D02*
D03*
X-39180D02*
D03*
Y-3565D02*
D03*
X-29239D02*
D03*
Y-7108D02*
D03*
X-24219D02*
D03*
Y-3565D02*
D03*
X34100Y-3428D02*
D03*
Y-6972D02*
D03*
X38800Y-3428D02*
D03*
Y-6972D02*
D03*
X17688Y-80655D02*
D03*
Y-84199D02*
D03*
X21724Y-80655D02*
D03*
Y-84199D02*
D03*
X25661Y-80655D02*
D03*
Y-84199D02*
D03*
X29900Y-80728D02*
D03*
Y-84272D02*
D03*
X17688Y-74159D02*
D03*
Y-70616D02*
D03*
X21625Y-74159D02*
D03*
Y-70616D02*
D03*
X25858Y-74159D02*
D03*
Y-70616D02*
D03*
X29696Y-74159D02*
D03*
Y-70616D02*
D03*
X34700Y-66472D02*
D03*
Y-62928D02*
D03*
X45500Y-66472D02*
D03*
Y-62928D02*
D03*
X53000D02*
D03*
Y-66472D02*
D03*
D17*
X-19328Y-77200D02*
D03*
X-22872D02*
D03*
X-19528Y-70400D02*
D03*
X-23072D02*
D03*
X36172Y94100D02*
D03*
X32628D02*
D03*
X46872Y94300D02*
D03*
X43328D02*
D03*
X-21072Y96500D02*
D03*
X-17528D02*
D03*
X55128Y-88500D02*
D03*
X58672D02*
D03*
X-45928Y-100176D02*
D03*
X-49472D02*
D03*
X47003Y-97900D02*
D03*
X43460D02*
D03*
D18*
X-34200Y-62753D02*
D03*
Y-69446D02*
D03*
X-24606Y74410D02*
D03*
Y81102D02*
D03*
X53400Y95547D02*
D03*
Y88854D02*
D03*
X-16732Y74410D02*
D03*
Y81102D02*
D03*
D19*
X53031Y43303D02*
D03*
Y32280D02*
D03*
X44371Y43301D02*
D03*
Y32277D02*
D03*
X35712Y43279D02*
D03*
Y32255D02*
D03*
X27048Y43279D02*
D03*
Y32255D02*
D03*
D20*
X19400Y81899D02*
D03*
Y69301D02*
D03*
D21*
X984Y104964D02*
D03*
X-6890D02*
D03*
X-4921D02*
D03*
X-2953D02*
D03*
X-984D02*
D03*
X2953D02*
D03*
X4921D02*
D03*
X6890D02*
D03*
D22*
X12598D02*
D03*
X9449D02*
D03*
X-12598D02*
D03*
X-9449D02*
D03*
D23*
X-51703Y25941D02*
D03*
Y28500D02*
D03*
Y31059D02*
D03*
X-44223D02*
D03*
Y28500D02*
D03*
Y25941D02*
D03*
X-51703Y37341D02*
D03*
Y39900D02*
D03*
Y42459D02*
D03*
X-44223D02*
D03*
Y39900D02*
D03*
Y37341D02*
D03*
X-51703Y3141D02*
D03*
Y5700D02*
D03*
Y8259D02*
D03*
X-44223D02*
D03*
Y5700D02*
D03*
Y3141D02*
D03*
X-51703Y13641D02*
D03*
Y16200D02*
D03*
Y18759D02*
D03*
X-44223D02*
D03*
Y16200D02*
D03*
Y13641D02*
D03*
D24*
X-54121Y-35455D02*
D03*
X-49121D02*
D03*
X-44121D02*
D03*
X-39121D02*
D03*
X-34121D02*
D03*
X-29121D02*
D03*
X-24121D02*
D03*
X-29121Y-13998D02*
D03*
X-34121D02*
D03*
X-39121D02*
D03*
X-44121D02*
D03*
X-49121D02*
D03*
X-54121D02*
D03*
X-24121D02*
D03*
D25*
X-48100Y-72924D02*
D03*
D26*
X-42195D02*
D03*
X-54005D02*
D03*
D27*
X-48100Y-63476D02*
D03*
D28*
X33624Y-36712D02*
D03*
X36183D02*
D03*
X38742D02*
D03*
X41301D02*
D03*
X43860D02*
D03*
X46419D02*
D03*
X48978D02*
D03*
X51537D02*
D03*
X54096D02*
D03*
X56655D02*
D03*
Y-13090D02*
D03*
X54096D02*
D03*
X51537D02*
D03*
X48978D02*
D03*
X46419D02*
D03*
X43860D02*
D03*
X41301D02*
D03*
X38742D02*
D03*
X36183D02*
D03*
X33624D02*
D03*
D29*
X10700Y-176D02*
D03*
X14637Y-9624D02*
D03*
X6763D02*
D03*
X49437Y-72676D02*
D03*
X41563D02*
D03*
X45500Y-82124D02*
D03*
D30*
X26085Y-60600D02*
D03*
X-5411D02*
D03*
X2463D02*
D03*
X10337D02*
D03*
X18211D02*
D03*
X-13873Y125867D02*
D03*
X14473Y112206D02*
D03*
Y125867D02*
D03*
X-13873Y112206D02*
D03*
Y125867D02*
D03*
X14473D02*
D03*
X-13873Y112206D02*
D03*
X14473D02*
D03*
D31*
X-13285Y-60600D02*
D03*
D32*
X-2456Y127206D02*
D03*
X3056D02*
D03*
D33*
X-4818Y114607D02*
D03*
X-2259D02*
D03*
X300D02*
D03*
X2859D02*
D03*
X5418D02*
D03*
D34*
X-51346Y-90100D02*
D03*
X-44653D02*
D03*
X-44729Y-81700D02*
D03*
X-51422D02*
D03*
X-24016Y88583D02*
D03*
X-17323D02*
D03*
X-24446Y-84450D02*
D03*
X-17753D02*
D03*
D35*
X53100Y-44044D02*
D03*
Y-49556D02*
D03*
X54500Y76656D02*
D03*
Y71144D02*
D03*
X-52700Y76556D02*
D03*
Y71044D02*
D03*
X-58600D02*
D03*
Y76556D02*
D03*
D36*
X41870Y86567D02*
D03*
Y62157D02*
D03*
X31870D02*
D03*
X36870Y86567D02*
D03*
X46870D02*
D03*
X36870Y62157D02*
D03*
X46870D02*
D03*
X31870Y86567D02*
D03*
D37*
X-7500Y63339D02*
D03*
X-2500D02*
D03*
X-7500Y85386D02*
D03*
X7500Y63339D02*
D03*
Y85386D02*
D03*
X-2500D02*
D03*
X2500Y63339D02*
D03*
Y85386D02*
D03*
X-46870Y63339D02*
D03*
X-41870D02*
D03*
X-46870Y85386D02*
D03*
X-31870Y63339D02*
D03*
Y85386D02*
D03*
X-41870D02*
D03*
X-36870Y63339D02*
D03*
Y85386D02*
D03*
D38*
X50028Y-88600D02*
D03*
X41012D02*
D03*
D39*
X40507Y-107300D02*
D03*
X53893D02*
D03*
X-53937Y-107100D02*
D03*
X-40551D02*
D03*
D40*
X45232Y-107300D02*
D03*
X-49213Y-107100D02*
D03*
D41*
X49169Y-107300D02*
D03*
X-45276Y-107100D02*
D03*
D42*
X11389Y-79907D02*
D03*
X-10658Y-79907D02*
D03*
Y-69907D02*
D03*
X11389Y-74907D02*
D03*
Y-84907D02*
D03*
X-10658Y-74907D02*
D03*
Y-84907D02*
D03*
X11389Y-69907D02*
D03*
D43*
X59000Y-69400D02*
D03*
D44*
X59200Y-59739D02*
D03*
D45*
X-39180Y-13939D02*
Y-7700D01*
X-44200Y-13919D02*
Y-8100D01*
X-49023Y-13900D02*
Y-7700D01*
X-42400Y-81200D02*
X-41800Y-81800D01*
X-34728D02*
X-32928Y-83600D01*
X-42201Y-84228D02*
X-38500D01*
X-32300D01*
X-44729Y-81700D02*
X-42829Y-83600D01*
X-42201Y-84228D01*
X-42400Y-81200D02*
Y-73130D01*
X-42195Y-72924D01*
X-41800Y-81800D02*
X-34728D01*
X53000Y-66472D02*
X55515D01*
D46*
X-9843Y-112405D02*
X-8500Y-113747D01*
X31870Y59370D02*
Y62157D01*
X19500Y56400D02*
Y65100D01*
X18800Y55700D02*
X19500Y56400D01*
X18800Y55700D02*
X28200D01*
X-6400D02*
X18800D01*
X44371Y43303D02*
Y68529D01*
X-33000Y55700D02*
X-6400D01*
X-39424Y55858D02*
X-38082Y57200D01*
X28200Y55700D02*
X31870Y59370D01*
X-34500Y57200D02*
X-33000Y55700D01*
X-34500Y57200D02*
Y61100D01*
X-6400Y55700D02*
Y60200D01*
X-5800Y60800D01*
X-59800Y55600D02*
X-59542Y55858D01*
X-38082Y57200D02*
X-34500D01*
D47*
X27048Y32255D02*
X35712D01*
D48*
X7685Y69685D02*
X11168Y73168D01*
X7300Y69300D02*
X7685Y69685D01*
X5100Y67100D02*
X7300Y69300D01*
X34465Y69835D02*
X43065D01*
X33756Y70544D02*
X34465Y69835D01*
X43065D02*
X43300Y69600D01*
X29798Y74502D02*
X33756Y70544D01*
X11300Y73900D02*
X11902Y74502D01*
D49*
X48550Y56850D02*
D03*
D50*
X38861Y32400D02*
D03*
D51*
X-26537Y96134D02*
D03*
D52*
X50161Y28500D02*
D03*
D53*
X2760Y128925D02*
D03*
D54*
X36417Y-7577D02*
D03*
D55*
X16500Y90028D02*
D03*
D56*
X53350Y95522D02*
D03*
D57*
X11339Y109748D02*
D03*
X-11417D02*
D03*
X8273Y117402D02*
D03*
X-7476D02*
D03*
D58*
X17028Y107779D02*
D03*
X-17008D02*
D03*
D59*
X-17028Y124236D02*
D03*
X17028D02*
D03*
D60*
X9843Y-112405D02*
D03*
X-9843D02*
D03*
D61*
X3500Y-25300D02*
D03*
X900Y-58400D02*
D03*
X2600Y-51900D02*
D03*
X-34200Y-9700D02*
D03*
X-48900Y-1500D02*
D03*
X-1500Y-93000D02*
D03*
X4000Y-92700D02*
D03*
X-2697Y-10978D02*
D03*
X-7000Y-63300D02*
D03*
X-24600Y-62700D02*
D03*
X-8400Y-13500D02*
D03*
X-50200Y-51000D02*
D03*
X-44200Y-1400D02*
D03*
X-53300Y-53800D02*
D03*
X-53600Y39900D02*
D03*
X-48700Y27800D02*
D03*
X-49800Y16200D02*
D03*
X34100Y-93500D02*
D03*
X51700Y6900D02*
D03*
X49700Y-94700D02*
D03*
X53700Y-95100D02*
D03*
X52200Y-99200D02*
D03*
X46519Y-101600D02*
D03*
X-16800Y-39200D02*
D03*
X-16400Y-35200D02*
D03*
X-8500Y-34600D02*
D03*
X-4700Y-34700D02*
D03*
X-4400Y-14100D02*
D03*
X-47041Y-28700D02*
D03*
X-41000Y-29000D02*
D03*
X-47200Y8200D02*
D03*
X-47000Y18900D02*
D03*
X-46600Y31200D02*
D03*
X-47900Y41500D02*
D03*
X-40148Y33800D02*
D03*
X-36870Y89900D02*
D03*
X-19600Y102802D02*
D03*
X-17756Y100200D02*
D03*
X-14400D02*
D03*
X-27150Y96500D02*
D03*
X-23072Y96400D02*
D03*
X9500Y97600D02*
D03*
X-9400Y99100D02*
D03*
Y101800D02*
D03*
X921Y100700D02*
D03*
X4300Y97600D02*
D03*
X41700Y91500D02*
D03*
X32000Y91240D02*
D03*
X-46600Y89800D02*
D03*
X6000Y100400D02*
D03*
X-1500Y97500D02*
D03*
X2700Y82900D02*
D03*
X-5000Y97600D02*
D03*
X-41500Y45100D02*
D03*
X-24200Y5400D02*
D03*
X-27700D02*
D03*
X-29700Y9400D02*
D03*
X-34200Y23900D02*
D03*
X-10300Y3900D02*
D03*
X-13900Y4800D02*
D03*
X-14000Y-28200D02*
D03*
X-7400Y83300D02*
D03*
X6000Y13871D02*
D03*
X53200Y28300D02*
D03*
X51000Y28400D02*
D03*
X47600D02*
D03*
X45500Y25700D02*
D03*
X48721Y25600D02*
D03*
X52200D02*
D03*
X53100Y23000D02*
D03*
X50800Y22500D02*
D03*
X48300Y22400D02*
D03*
X45600D02*
D03*
X-59800Y54800D02*
D03*
X-56800Y58400D02*
D03*
X-60200D02*
D03*
X-62200Y56800D02*
D03*
Y54600D02*
D03*
X-60600Y52700D02*
D03*
X-58200D02*
D03*
X-58400Y56700D02*
D03*
X-56700Y54400D02*
D03*
X45700Y-31500D02*
D03*
X44800Y-58800D02*
D03*
X33200Y-53900D02*
D03*
X11700Y-53300D02*
D03*
X-800Y-71900D02*
D03*
X27400Y-91000D02*
D03*
X4500Y-79700D02*
D03*
X-15200Y-79000D02*
D03*
X58100Y-85900D02*
D03*
X33400Y-50000D02*
D03*
X6000Y-68600D02*
D03*
X18000Y-50900D02*
D03*
X-600Y-1400D02*
D03*
X-27700Y-55600D02*
D03*
X45100Y-7300D02*
D03*
X53700Y10500D02*
D03*
X50500Y3400D02*
D03*
X47800Y-76000D02*
D03*
X43200Y-29400D02*
D03*
X29100Y-77900D02*
D03*
X21800Y-76700D02*
D03*
X-12200Y-53000D02*
D03*
X43400Y-50600D02*
D03*
X7500Y-37900D02*
D03*
X17805Y-31000D02*
D03*
X16339Y1000D02*
D03*
X20864Y1300D02*
D03*
X26937Y900D02*
D03*
X27629Y5700D02*
D03*
X18800Y6000D02*
D03*
X13148Y6200D02*
D03*
X6200Y6000D02*
D03*
X1271D02*
D03*
X4999Y2000D02*
D03*
X23654Y-3200D02*
D03*
X27300Y-7108D02*
D03*
X22900Y-29600D02*
D03*
X21158Y-31900D02*
D03*
X14700Y-31125D02*
D03*
X-27400Y-43991D02*
D03*
X-27385Y-46600D02*
D03*
X-27900Y-51400D02*
D03*
X-47200Y-20000D02*
D03*
X-49931Y-22200D02*
D03*
X63100Y72300D02*
D03*
X63000Y67700D02*
D03*
X62700Y62900D02*
D03*
Y56000D02*
D03*
X63300Y48500D02*
D03*
X63100Y42900D02*
D03*
X64300Y37700D02*
D03*
X63700Y94546D02*
D03*
X63600Y89500D02*
D03*
X63400Y86000D02*
D03*
X63600Y79500D02*
D03*
X48300Y-1300D02*
D03*
X42335Y-1200D02*
D03*
X28200Y-39700D02*
D03*
X20100Y-58000D02*
D03*
X19854Y-61500D02*
D03*
X28700Y-67100D02*
D03*
X15800Y-68844D02*
D03*
X27658Y-74400D02*
D03*
X-33900Y-73000D02*
D03*
X-31687Y-77132D02*
D03*
X-27500Y-80864D02*
D03*
X-27385Y-87800D02*
D03*
X-21600Y-90100D02*
D03*
X-36800Y-76300D02*
D03*
X-33200Y-3800D02*
D03*
X-35800D02*
D03*
X-32600Y-28600D02*
D03*
X-28035Y-28700D02*
D03*
X-22872Y-27200D02*
D03*
X-13600Y97000D02*
D03*
X-15747Y98000D02*
D03*
X-18103D02*
D03*
X-17028Y95300D02*
D03*
X-15100Y102650D02*
D03*
X-21300Y100242D02*
D03*
X-22300Y104000D02*
D03*
X-25900D02*
D03*
X-30900Y103700D02*
D03*
X-36113Y103900D02*
D03*
X-41870Y104100D02*
D03*
X-39180Y102400D02*
D03*
X-33700Y102200D02*
D03*
X-28800Y102015D02*
D03*
X-24000Y101926D02*
D03*
X-21200Y106870D02*
D03*
X-38082Y106800D02*
D03*
X22600Y105800D02*
D03*
X26500Y104964D02*
D03*
X31100Y104849D02*
D03*
X36279Y105000D02*
D03*
X41700Y107000D02*
D03*
X44300Y112206D02*
D03*
X45800Y107347D02*
D03*
X44800Y104964D02*
D03*
X41700Y102650D02*
D03*
X37400Y101832D02*
D03*
X32896Y101500D02*
D03*
X29300Y101745D02*
D03*
X25800D02*
D03*
X22700Y102783D02*
D03*
X15500Y102504D02*
D03*
M02*
