M48
;Layer_Color=9474304
;FILE_FORMAT=2:5
INCH,LZ
;TYPE=PLATED
T1F00S00C0.01575
T3F00S00C0.02559
T4F00S00C0.07874
;TYPE=NON_PLATED
T5F00S00C0.02559
%
T01
X00522Y-00992
X00537Y-00951
X00581Y-00859
X00497Y-00947
X0046519Y-01016
X00341Y-00935
X00274Y-0091
X00291Y-00779
X0027658Y-00744
X00218Y-00767
X00158Y-0068844
X0006Y-00686
X-00008Y-00719
X00045Y-00797
X0004Y-00927
X-00015Y-0093
X-00216Y-00901
X-0027385Y-00878
X-00275Y-0080864
X-0031687Y-0077132
X-00368Y-00763
X-00339Y-0073
X-00246Y-00627
X-00277Y-00556
X-00279Y-00514
X-0027385Y-00466
X-00274Y-0043991
X-00168Y-00392
X-00164Y-00352
X-00085Y-00346
X-00047Y-00347
X00075Y-00379
X00147Y-0031125
X0017805Y-0031
X0021158Y-00319
X00229Y-00296
X00282Y-00397
X00334Y-005
X00332Y-00539
X00434Y-00506
X00448Y-00588
X00478Y-0076
X00287Y-00671
X0019854Y-00615
X00201Y-0058
X0018Y-00509
X00117Y-00533
X00026Y-00519
X00009Y-00584
X-0007Y-00633
X-00122Y-0053
X-0014Y-00282
X-0022872Y-00272
X-0028035Y-00287
X-00326Y-00286
X-0041Y-0029
X-0047041Y-00287
X-0049931Y-00222
X-00502Y-0051
X-00533Y-00538
X-00152Y-0079
X00035Y-00253
X00432Y-00294
X00457Y-00315
X00451Y-00073
X0042335Y-00012
X00483Y-00013
X00505Y00034
X00508Y00225
X00483Y00224
X00456
X00455Y00257
X0048721Y00256
X00476Y00284
X0051
X0027629Y00057
X0026937Y00009
X0020864Y00013
X0016339Y0001
X00188Y0006
X0013148Y00062
X00062Y0006
X0001271
X0004999Y0002
X-00006Y-00014
X-0002697Y-0010978
X-00044Y-00141
X-00084Y-00135
X-00103Y00039
X-00139Y00048
X-00242Y00054
X-00277
X-00297Y00094
X-00332Y-00038
X-00358
X-00342Y-00097
X-00442Y-00014
X-00489Y-00015
X-00472Y00082
X-00498Y00162
X-0047Y00189
X-00487Y00278
X-00466Y00312
X-0040148Y00338
X-00415Y00451
X-00479Y00415
X-00536Y00399
X-00582Y00527
X-00606
X-00598Y00548
X-00622Y00546
Y00568
X-00602Y00584
X-00568
X-00584Y00567
X-00567Y00544
X-00466Y00898
X-003687Y00899
X-0036113Y01039
X-00337Y01022
X-00309Y01037
X-00288Y0102015
X-00259Y0104
X-00223
X-0024Y0101926
X-00213Y0100242
X-0017756Y01002
X-0018103Y0098
X-0015747
X-00136Y0097
X-00144Y01002
X-00151Y010265
X-00196Y0102802
X-00212Y010687
X-0023072Y00964
X-002715Y00965
X-0017028Y00953
X-00094Y00991
Y01018
X-0005Y00976
X-00015Y00975
X0000921Y01007
X0006Y01004
X00043Y00976
X00095
X00155Y0102504
X00227Y0102783
X00226Y01058
X00265Y0104964
X00258Y0101745
X00293
X0032896Y01015
X00374Y0101832
X0036279Y0105
X00311Y0104849
X00417Y0107
Y010265
X00448Y0104964
X00458Y0107347
X00443Y0112206
X00417Y00915
X0032Y009124
X00027Y00829
X-00074Y00833
X-003918Y01024
X-004187Y01041
X-0038082Y01068
X-00342Y00239
X0006Y0013871
X0023654Y-00032
X00273Y-0007108
X-00472Y-002
X00517Y00069
X00537Y00105
X00531Y0023
X00522Y00256
X00532Y00283
X00643Y00377
X00631Y00429
X00633Y00485
X00627Y0056
Y00629
X0063Y00677
X00631Y00723
X00636Y00795
X00634Y0086
X00636Y00895
X00637Y0094546
T03
X-0011417Y0109748
X0011339
T04
X-0009843Y-0112405
X0009843
T05
X-0007476Y0117402
X0008273
M30
