%FSLAX25Y25*%
%MOIN*%
G70*
G01*
G75*
%ADD10C,0.00500*%
%ADD11C,0.00667*%
D10*
X10059Y109748D02*
X12618D01*
X11339Y108468D02*
Y111027D01*
X15846Y107779D02*
X18209D01*
X17028Y106598D02*
Y108960D01*
X-18189Y107779D02*
X-15827D01*
X-17008Y106598D02*
Y108960D01*
X-18209Y124236D02*
X-15846D01*
X-17028Y123055D02*
Y125417D01*
X15846Y124236D02*
X18209D01*
X17028Y123055D02*
Y125417D01*
X-12697Y109748D02*
X-10138D01*
X-11417Y108468D02*
Y111027D01*
X-15054Y125867D02*
X-12692D01*
X-13873Y124686D02*
Y127048D01*
X6993Y117402D02*
X9552D01*
X8273Y116123D02*
Y118682D01*
X-8755Y117402D02*
X-6196D01*
X-7476Y116123D02*
Y118682D01*
X13292Y125867D02*
X15654D01*
X14473Y124686D02*
Y127048D01*
X-15054Y112206D02*
X-12692D01*
X-13873Y111024D02*
Y113387D01*
X13292Y112206D02*
X15654D01*
X14473Y111024D02*
Y113387D01*
X5906Y-112405D02*
X13780D01*
X9843Y-116342D02*
Y-108468D01*
X-13780Y-112405D02*
X-5906D01*
X-9843Y-116342D02*
Y-108468D01*
X2713Y-25300D02*
X4287D01*
X3500Y-26087D02*
Y-24513D01*
X113Y-58400D02*
X1687D01*
X900Y-59187D02*
Y-57613D01*
X1813Y-51900D02*
X3387D01*
X2600Y-52687D02*
Y-51113D01*
X-34987Y-9700D02*
X-33413D01*
X-34200Y-10487D02*
Y-8913D01*
X-49687Y-1500D02*
X-48113D01*
X-48900Y-2287D02*
Y-713D01*
X-2287Y-93000D02*
X-713D01*
X-1500Y-93787D02*
Y-92213D01*
X3213Y-92700D02*
X4787D01*
X4000Y-93487D02*
Y-91913D01*
X-3484Y-10978D02*
X-1910D01*
X-2697Y-11765D02*
Y-10191D01*
X-7787Y-63300D02*
X-6213D01*
X-7000Y-64087D02*
Y-62513D01*
X-25387Y-62700D02*
X-23813D01*
X-24600Y-63487D02*
Y-61913D01*
X-9187Y-13500D02*
X-7613D01*
X-8400Y-14287D02*
Y-12713D01*
X-50987Y-51000D02*
X-49413D01*
X-50200Y-51787D02*
Y-50213D01*
X-44987Y-1400D02*
X-43412D01*
X-44200Y-2188D02*
Y-613D01*
X-54087Y-53800D02*
X-52513D01*
X-53300Y-54587D02*
Y-53013D01*
X-54387Y39900D02*
X-52813D01*
X-53600Y39113D02*
Y40687D01*
X-49487Y27800D02*
X-47913D01*
X-48700Y27013D02*
Y28587D01*
X-50587Y16200D02*
X-49013D01*
X-49800Y15413D02*
Y16987D01*
X33313Y-93500D02*
X34887D01*
X34100Y-94287D02*
Y-92713D01*
X50913Y6900D02*
X52487D01*
X51700Y6113D02*
Y7687D01*
X48913Y-94700D02*
X50487D01*
X49700Y-95487D02*
Y-93913D01*
X52913Y-95100D02*
X54487D01*
X53700Y-95887D02*
Y-94313D01*
X51413Y-99200D02*
X52987D01*
X52200Y-99987D02*
Y-98413D01*
X45732Y-101600D02*
X47307D01*
X46519Y-102387D02*
Y-100813D01*
X-17587Y-39200D02*
X-16013D01*
X-16800Y-39987D02*
Y-38413D01*
X-17187Y-35200D02*
X-15613D01*
X-16400Y-35987D02*
Y-34413D01*
X-9287Y-34600D02*
X-7713D01*
X-8500Y-35387D02*
Y-33813D01*
X-5487Y-34700D02*
X-3913D01*
X-4700Y-35487D02*
Y-33913D01*
X-5187Y-14100D02*
X-3613D01*
X-4400Y-14887D02*
Y-13313D01*
X-47828Y-28700D02*
X-46253D01*
X-47041Y-29487D02*
Y-27913D01*
X-41787Y-29000D02*
X-40213D01*
X-41000Y-29787D02*
Y-28213D01*
X-47987Y8200D02*
X-46413D01*
X-47200Y7413D02*
Y8987D01*
X-47787Y18900D02*
X-46213D01*
X-47000Y18113D02*
Y19687D01*
X-47387Y31200D02*
X-45813D01*
X-46600Y30413D02*
Y31987D01*
X-48687Y41500D02*
X-47113D01*
X-47900Y40713D02*
Y42287D01*
X-40936Y33800D02*
X-39361D01*
X-40148Y33013D02*
Y34587D01*
X-37657Y89900D02*
X-36083D01*
X-36870Y89113D02*
Y90687D01*
X-20387Y102802D02*
X-18813D01*
X-19600Y102014D02*
Y103589D01*
X-18543Y100200D02*
X-16969D01*
X-17756Y99413D02*
Y100987D01*
X-15187Y100200D02*
X-13613D01*
X-14400Y99413D02*
Y100987D01*
X-27938Y96500D02*
X-26363D01*
X-27150Y95713D02*
Y97287D01*
X-23859Y96400D02*
X-22284D01*
X-23072Y95613D02*
Y97187D01*
X8713Y97600D02*
X10287D01*
X9500Y96813D02*
Y98387D01*
X-10187Y99100D02*
X-8613D01*
X-9400Y98313D02*
Y99887D01*
X-10187Y101800D02*
X-8613D01*
X-9400Y101013D02*
Y102587D01*
X134Y100700D02*
X1709D01*
X921Y99913D02*
Y101487D01*
X3513Y97600D02*
X5087D01*
X4300Y96813D02*
Y98387D01*
X40913Y91500D02*
X42487D01*
X41700Y90713D02*
Y92287D01*
X31213Y91240D02*
X32787D01*
X32000Y90453D02*
Y92028D01*
X-47387Y89800D02*
X-45813D01*
X-46600Y89013D02*
Y90587D01*
X5213Y100400D02*
X6787D01*
X6000Y99613D02*
Y101187D01*
X-2287Y97500D02*
X-713D01*
X-1500Y96713D02*
Y98287D01*
X1913Y82900D02*
X3487D01*
X2700Y82113D02*
Y83687D01*
X-5787Y97600D02*
X-4213D01*
X-5000Y96813D02*
Y98387D01*
X-42287Y45100D02*
X-40713D01*
X-41500Y44313D02*
Y45887D01*
X-24987Y5400D02*
X-23413D01*
X-24200Y4613D02*
Y6187D01*
X-28487Y5400D02*
X-26913D01*
X-27700Y4613D02*
Y6187D01*
X-30487Y9400D02*
X-28913D01*
X-29700Y8613D02*
Y10187D01*
X-34987Y23900D02*
X-33413D01*
X-34200Y23113D02*
Y24687D01*
X-11087Y3900D02*
X-9513D01*
X-10300Y3113D02*
Y4687D01*
X-14687Y4800D02*
X-13113D01*
X-13900Y4013D02*
Y5587D01*
X-14787Y-28200D02*
X-13213D01*
X-14000Y-28987D02*
Y-27413D01*
X-8187Y83300D02*
X-6613D01*
X-7400Y82513D02*
Y84087D01*
X5213Y13871D02*
X6787D01*
X6000Y13083D02*
Y14658D01*
X52413Y28300D02*
X53987D01*
X53200Y27513D02*
Y29087D01*
X50213Y28400D02*
X51787D01*
X51000Y27613D02*
Y29187D01*
X46813Y28400D02*
X48387D01*
X47600Y27613D02*
Y29187D01*
X44713Y25700D02*
X46287D01*
X45500Y24913D02*
Y26487D01*
X47934Y25600D02*
X49509D01*
X48721Y24813D02*
Y26387D01*
X51413Y25600D02*
X52987D01*
X52200Y24813D02*
Y26387D01*
X52313Y23000D02*
X53887D01*
X53100Y22213D02*
Y23787D01*
X50013Y22500D02*
X51587D01*
X50800Y21713D02*
Y23287D01*
X47513Y22400D02*
X49087D01*
X48300Y21613D02*
Y23187D01*
X44813Y22400D02*
X46387D01*
X45600Y21613D02*
Y23187D01*
X-60587Y54800D02*
X-59013D01*
X-59800Y54013D02*
Y55587D01*
X-57587Y58400D02*
X-56013D01*
X-56800Y57613D02*
Y59187D01*
X-60987Y58400D02*
X-59413D01*
X-60200Y57613D02*
Y59187D01*
X-62987Y56800D02*
X-61413D01*
X-62200Y56013D02*
Y57587D01*
X-62987Y54600D02*
X-61413D01*
X-62200Y53813D02*
Y55387D01*
X-61387Y52700D02*
X-59813D01*
X-60600Y51913D02*
Y53487D01*
X-58987Y52700D02*
X-57413D01*
X-58200Y51913D02*
Y53487D01*
X-59187Y56700D02*
X-57613D01*
X-58400Y55913D02*
Y57487D01*
X-57487Y54400D02*
X-55913D01*
X-56700Y53613D02*
Y55187D01*
X44913Y-31500D02*
X46487D01*
X45700Y-32287D02*
Y-30713D01*
X44013Y-58800D02*
X45587D01*
X44800Y-59587D02*
Y-58013D01*
X32413Y-53900D02*
X33987D01*
X33200Y-54687D02*
Y-53113D01*
X10913Y-53300D02*
X12487D01*
X11700Y-54087D02*
Y-52513D01*
X-1587Y-71900D02*
X-13D01*
X-800Y-72687D02*
Y-71113D01*
X26613Y-91000D02*
X28187D01*
X27400Y-91787D02*
Y-90213D01*
X3713Y-79700D02*
X5287D01*
X4500Y-80487D02*
Y-78913D01*
X-15987Y-79000D02*
X-14413D01*
X-15200Y-79787D02*
Y-78213D01*
X57313Y-85900D02*
X58887D01*
X58100Y-86687D02*
Y-85113D01*
X32613Y-50000D02*
X34187D01*
X33400Y-50787D02*
Y-49213D01*
X5213Y-68600D02*
X6787D01*
X6000Y-69387D02*
Y-67813D01*
X17213Y-50900D02*
X18787D01*
X18000Y-51687D02*
Y-50113D01*
X-1387Y-1400D02*
X187D01*
X-600Y-2187D02*
Y-613D01*
X-28487Y-55600D02*
X-26913D01*
X-27700Y-56387D02*
Y-54813D01*
X44313Y-7300D02*
X45887D01*
X45100Y-8087D02*
Y-6513D01*
X52913Y10500D02*
X54487D01*
X53700Y9713D02*
Y11287D01*
X49713Y3400D02*
X51287D01*
X50500Y2613D02*
Y4187D01*
X47013Y-76000D02*
X48587D01*
X47800Y-76787D02*
Y-75213D01*
X42413Y-29400D02*
X43987D01*
X43200Y-30187D02*
Y-28613D01*
X28313Y-77900D02*
X29887D01*
X29100Y-78687D02*
Y-77113D01*
X21013Y-76700D02*
X22587D01*
X21800Y-77487D02*
Y-75913D01*
X-12987Y-53000D02*
X-11413D01*
X-12200Y-53787D02*
Y-52213D01*
X42613Y-50600D02*
X44187D01*
X43400Y-51387D02*
Y-49813D01*
X6713Y-37900D02*
X8287D01*
X7500Y-38687D02*
Y-37113D01*
X17017Y-31000D02*
X18592D01*
X17805Y-31787D02*
Y-30213D01*
X15551Y1000D02*
X17126D01*
X16339Y213D02*
Y1787D01*
X20076Y1300D02*
X21651D01*
X20864Y513D02*
Y2087D01*
X26149Y900D02*
X27724D01*
X26937Y113D02*
Y1687D01*
X26842Y5700D02*
X28417D01*
X27629Y4913D02*
Y6487D01*
X18013Y6000D02*
X19587D01*
X18800Y5213D02*
Y6787D01*
X12360Y6200D02*
X13935D01*
X13148Y5413D02*
Y6987D01*
X5413Y6000D02*
X6987D01*
X6200Y5213D02*
Y6787D01*
X484Y6000D02*
X2059D01*
X1271Y5213D02*
Y6787D01*
X4212Y2000D02*
X5786D01*
X4999Y1213D02*
Y2787D01*
X22867Y-3200D02*
X24442D01*
X23654Y-3987D02*
Y-2413D01*
X26513Y-7108D02*
X28087D01*
X27300Y-7896D02*
Y-6321D01*
X22113Y-29600D02*
X23687D01*
X22900Y-30387D02*
Y-28813D01*
X20371Y-31900D02*
X21946D01*
X21158Y-32687D02*
Y-31113D01*
X13913Y-31125D02*
X15487D01*
X14700Y-31913D02*
Y-30338D01*
X-28187Y-43991D02*
X-26613D01*
X-27400Y-44779D02*
Y-43204D01*
X-28172Y-46600D02*
X-26597D01*
X-27385Y-47387D02*
Y-45813D01*
X-28687Y-51400D02*
X-27113D01*
X-27900Y-52187D02*
Y-50613D01*
X-47987Y-20000D02*
X-46413D01*
X-47200Y-20787D02*
Y-19213D01*
X-50719Y-22200D02*
X-49144D01*
X-49931Y-22987D02*
Y-21413D01*
X62313Y72300D02*
X63887D01*
X63100Y71513D02*
Y73087D01*
X62213Y67700D02*
X63787D01*
X63000Y66913D02*
Y68487D01*
X61913Y62900D02*
X63487D01*
X62700Y62113D02*
Y63687D01*
X61913Y56000D02*
X63487D01*
X62700Y55213D02*
Y56787D01*
X62513Y48500D02*
X64087D01*
X63300Y47713D02*
Y49287D01*
X62313Y42900D02*
X63887D01*
X63100Y42113D02*
Y43687D01*
X63513Y37700D02*
X65087D01*
X64300Y36913D02*
Y38487D01*
X62913Y94546D02*
X64487D01*
X63700Y93758D02*
Y95333D01*
X62813Y89500D02*
X64387D01*
X63600Y88713D02*
Y90287D01*
X62613Y86000D02*
X64187D01*
X63400Y85213D02*
Y86787D01*
X62813Y79500D02*
X64387D01*
X63600Y78713D02*
Y80287D01*
X47513Y-1300D02*
X49087D01*
X48300Y-2087D02*
Y-513D01*
X41548Y-1200D02*
X43123D01*
X42335Y-1987D02*
Y-413D01*
X27413Y-39700D02*
X28987D01*
X28200Y-40487D02*
Y-38913D01*
X19313Y-58000D02*
X20887D01*
X20100Y-58787D02*
Y-57213D01*
X19067Y-61500D02*
X20642D01*
X19854Y-62287D02*
Y-60713D01*
X27913Y-67100D02*
X29487D01*
X28700Y-67887D02*
Y-66313D01*
X15013Y-68844D02*
X16587D01*
X15800Y-69632D02*
Y-68057D01*
X26870Y-74400D02*
X28445D01*
X27658Y-75187D02*
Y-73613D01*
X-34687Y-73000D02*
X-33113D01*
X-33900Y-73787D02*
Y-72213D01*
X-32475Y-77132D02*
X-30900D01*
X-31687Y-77919D02*
Y-76345D01*
X-28287Y-80864D02*
X-26713D01*
X-27500Y-81651D02*
Y-80076D01*
X-28172Y-87800D02*
X-26597D01*
X-27385Y-88587D02*
Y-87013D01*
X-22387Y-90100D02*
X-20813D01*
X-21600Y-90887D02*
Y-89313D01*
X-37587Y-76300D02*
X-36013D01*
X-36800Y-77087D02*
Y-75513D01*
X-33987Y-3800D02*
X-32413D01*
X-33200Y-4587D02*
Y-3013D01*
X-36587Y-3800D02*
X-35013D01*
X-35800Y-4587D02*
Y-3013D01*
X-33387Y-28600D02*
X-31813D01*
X-32600Y-29387D02*
Y-27813D01*
X-28822Y-28700D02*
X-27248D01*
X-28035Y-29487D02*
Y-27913D01*
X-23659Y-27200D02*
X-22084D01*
X-22872Y-27987D02*
Y-26413D01*
X-14387Y97000D02*
X-12813D01*
X-13600Y96213D02*
Y97787D01*
X-16535Y98000D02*
X-14960D01*
X-15747Y97213D02*
Y98787D01*
X-18890Y98000D02*
X-17315D01*
X-18103Y97213D02*
Y98787D01*
X-17815Y95300D02*
X-16240D01*
X-17028Y94513D02*
Y96087D01*
X-15887Y102650D02*
X-14313D01*
X-15100Y101863D02*
Y103437D01*
X-22087Y100242D02*
X-20513D01*
X-21300Y99454D02*
Y101029D01*
X-23087Y104000D02*
X-21513D01*
X-22300Y103213D02*
Y104787D01*
X-26687Y104000D02*
X-25113D01*
X-25900Y103213D02*
Y104787D01*
X-31687Y103700D02*
X-30113D01*
X-30900Y102913D02*
Y104487D01*
X-36900Y103900D02*
X-35325D01*
X-36113Y103113D02*
Y104687D01*
X-42658Y104100D02*
X-41083D01*
X-41870Y103313D02*
Y104887D01*
X-39968Y102400D02*
X-38393D01*
X-39180Y101613D02*
Y103187D01*
X-34487Y102200D02*
X-32913D01*
X-33700Y101413D02*
Y102987D01*
X-29587Y102015D02*
X-28013D01*
X-28800Y101228D02*
Y102802D01*
X-24787Y101926D02*
X-23213D01*
X-24000Y101139D02*
Y102714D01*
X-21987Y106870D02*
X-20413D01*
X-21200Y106083D02*
Y107658D01*
X-38870Y106800D02*
X-37295D01*
X-38082Y106013D02*
Y107587D01*
X21813Y105800D02*
X23387D01*
X22600Y105013D02*
Y106587D01*
X25713Y104964D02*
X27287D01*
X26500Y104177D02*
Y105752D01*
X30313Y104849D02*
X31887D01*
X31100Y104062D02*
Y105637D01*
X35491Y105000D02*
X37066D01*
X36279Y104213D02*
Y105787D01*
X40913Y107000D02*
X42487D01*
X41700Y106213D02*
Y107787D01*
X43513Y112206D02*
X45087D01*
X44300Y111418D02*
Y112993D01*
X45013Y107347D02*
X46587D01*
X45800Y106560D02*
Y108135D01*
X44013Y104964D02*
X45587D01*
X44800Y104177D02*
Y105752D01*
X40913Y102650D02*
X42487D01*
X41700Y101863D02*
Y103437D01*
X36613Y101832D02*
X38187D01*
X37400Y101045D02*
Y102620D01*
X32108Y101500D02*
X33683D01*
X32896Y100713D02*
Y102287D01*
X28513Y101745D02*
X30087D01*
X29300Y100957D02*
Y102532D01*
X25013Y101745D02*
X26587D01*
X25800Y100957D02*
Y102532D01*
X21913Y102783D02*
X23487D01*
X22700Y101995D02*
Y103570D01*
X14713Y102504D02*
X16287D01*
X15500Y101716D02*
Y103291D01*
M02*
