%FSLAX25Y25*%
%MOIN*%
G70*
G01*
G75*
G04 Layer_Color=8388736*
%ADD10C,0.01181*%
%ADD11C,0.00787*%
%ADD12C,0.01969*%
%ADD13C,0.03937*%
%ADD14R,0.03937X0.02756*%
%ADD15R,0.03150X0.05118*%
%ADD16R,0.02362X0.01969*%
%ADD17R,0.01969X0.02362*%
%ADD18R,0.04921X0.02756*%
%ADD19R,0.06693X0.03543*%
%ADD20R,0.06299X0.04921*%
%ADD21R,0.01181X0.03347*%
%ADD22R,0.02362X0.03347*%
%ADD23R,0.01969X0.01575*%
%ADD24R,0.02362X0.05512*%
%ADD25R,0.03150X0.07874*%
%ADD26R,0.02362X0.07874*%
%ADD27O,0.07480X0.12992*%
%ADD28R,0.01575X0.04724*%
%ADD29R,0.03543X0.03937*%
%ADD30O,0.05906X0.07874*%
%ADD31R,0.05906X0.07874*%
%ADD32R,0.04331X0.03937*%
%ADD33R,0.01575X0.06693*%
%ADD34R,0.02756X0.04921*%
%ADD35R,0.03543X0.02362*%
%ADD36O,0.02362X0.07874*%
%ADD37O,0.02362X0.05512*%
%ADD38R,0.05118X0.03150*%
%ADD39R,0.03937X0.02756*%
%ADD40R,0.02362X0.03937*%
%ADD41R,0.01969X0.03937*%
%ADD42O,0.05512X0.02362*%
%ADD43O,0.07874X0.09843*%
%ADD44O,0.09843X0.07874*%
%ADD45C,0.03150*%
%ADD46C,0.07874*%
%ADD47C,0.10000*%
%ADD48C,0.05906*%
%ADD49R,0.15300X0.31300*%
%ADD50R,0.33921X0.10400*%
%ADD51R,0.02874X0.02068*%
%ADD52R,0.11321X0.16200*%
%ADD53R,0.02719X0.08050*%
%ADD54R,0.06858X0.03154*%
%ADD55R,0.16400X0.14144*%
%ADD56R,0.09300X0.06156*%
%ADD57C,0.02559*%
G04:AMPARAMS|DCode=58|XSize=39.37mil|YSize=82.68mil|CornerRadius=17.72mil|HoleSize=0mil|Usage=FLASHONLY|Rotation=180.000|XOffset=0mil|YOffset=0mil|HoleType=Round|Shape=RoundedRectangle|*
%AMROUNDEDRECTD58*
21,1,0.03937,0.04724,0,0,180.0*
21,1,0.00394,0.08268,0,0,180.0*
1,1,0.03543,-0.00197,0.02362*
1,1,0.03543,0.00197,0.02362*
1,1,0.03543,0.00197,-0.02362*
1,1,0.03543,-0.00197,-0.02362*
%
%ADD58ROUNDEDRECTD58*%
G04:AMPARAMS|DCode=59|XSize=39.37mil|YSize=62.99mil|CornerRadius=17.72mil|HoleSize=0mil|Usage=FLASHONLY|Rotation=180.000|XOffset=0mil|YOffset=0mil|HoleType=Round|Shape=RoundedRectangle|*
%AMROUNDEDRECTD59*
21,1,0.03937,0.02756,0,0,180.0*
21,1,0.00394,0.06299,0,0,180.0*
1,1,0.03543,-0.00197,0.01378*
1,1,0.03543,0.00197,0.01378*
1,1,0.03543,0.00197,-0.01378*
1,1,0.03543,-0.00197,-0.01378*
%
%ADD59ROUNDEDRECTD59*%
%ADD60C,0.11811*%
%ADD61C,0.02362*%
%ADD62C,0.11811*%
%ADD63R,0.65400X0.19300*%
%ADD64R,0.65700X0.19200*%
%ADD65R,0.23000X0.09900*%
%ADD66R,0.11700X0.10615*%
%ADD67C,0.00197*%
%ADD68C,0.00394*%
%ADD69C,0.01000*%
%ADD70C,0.00984*%
%ADD71C,0.02362*%
%ADD72C,0.00500*%
%ADD73C,0.00800*%
%ADD74C,0.00591*%
%ADD75C,0.00400*%
%ADD76C,0.09843*%
%ADD77R,0.04331X0.03150*%
%ADD78R,0.03950X0.05918*%
%ADD79R,0.03162X0.02769*%
%ADD80R,0.02769X0.03162*%
%ADD81R,0.05721X0.03556*%
%ADD82R,0.07493X0.04343*%
%ADD83R,0.07099X0.05721*%
%ADD84R,0.01981X0.04147*%
%ADD85R,0.03162X0.04147*%
%ADD86R,0.02769X0.02375*%
%ADD87R,0.03162X0.06312*%
%ADD88R,0.03950X0.08674*%
%ADD89R,0.03162X0.08674*%
%ADD90O,0.08280X0.13792*%
%ADD91R,0.02375X0.05524*%
%ADD92R,0.04343X0.04737*%
%ADD93O,0.06706X0.08674*%
%ADD94R,0.06706X0.08674*%
%ADD95R,0.05131X0.04737*%
%ADD96R,0.02375X0.07493*%
%ADD97R,0.03556X0.05721*%
%ADD98R,0.04343X0.03162*%
%ADD99O,0.03162X0.08674*%
%ADD100O,0.03162X0.06312*%
%ADD101R,0.05918X0.03950*%
%ADD102R,0.04737X0.03556*%
%ADD103R,0.03162X0.04737*%
%ADD104R,0.02769X0.04737*%
%ADD105O,0.06312X0.03162*%
%ADD106O,0.08674X0.10642*%
%ADD107O,0.10642X0.08674*%
%ADD108C,0.03359*%
G04:AMPARAMS|DCode=109|XSize=47.37mil|YSize=90.68mil|CornerRadius=21.72mil|HoleSize=0mil|Usage=FLASHONLY|Rotation=180.000|XOffset=0mil|YOffset=0mil|HoleType=Round|Shape=RoundedRectangle|*
%AMROUNDEDRECTD109*
21,1,0.04737,0.04724,0,0,180.0*
21,1,0.00394,0.09068,0,0,180.0*
1,1,0.04343,-0.00197,0.02362*
1,1,0.04343,0.00197,0.02362*
1,1,0.04343,0.00197,-0.02362*
1,1,0.04343,-0.00197,-0.02362*
%
%ADD109ROUNDEDRECTD109*%
G04:AMPARAMS|DCode=110|XSize=47.37mil|YSize=70.99mil|CornerRadius=21.72mil|HoleSize=0mil|Usage=FLASHONLY|Rotation=180.000|XOffset=0mil|YOffset=0mil|HoleType=Round|Shape=RoundedRectangle|*
%AMROUNDEDRECTD110*
21,1,0.04737,0.02756,0,0,180.0*
21,1,0.00394,0.07099,0,0,180.0*
1,1,0.04343,-0.00197,0.01378*
1,1,0.04343,0.00197,0.01378*
1,1,0.04343,0.00197,-0.01378*
1,1,0.04343,-0.00197,-0.01378*
%
%ADD110ROUNDEDRECTD110*%
%ADD111C,0.12611*%
%ADD112C,0.03162*%
D61*
X-8400Y-13500D02*
D03*
X-53600Y39900D02*
D03*
X-48700Y27800D02*
D03*
X-49800Y16200D02*
D03*
X-36870Y89900D02*
D03*
X-19600Y102802D02*
D03*
X-17756Y100200D02*
D03*
X-14400D02*
D03*
X-27150Y96500D02*
D03*
X-23072Y96400D02*
D03*
X-9400Y99100D02*
D03*
X41700Y91500D02*
D03*
X32000Y91240D02*
D03*
X-46600Y89800D02*
D03*
X2700Y82900D02*
D03*
X-7400Y83300D02*
D03*
X6000Y13871D02*
D03*
X53200Y28300D02*
D03*
X51000Y28400D02*
D03*
X47600D02*
D03*
X45500Y25700D02*
D03*
X48721Y25600D02*
D03*
X52200D02*
D03*
X53100Y23000D02*
D03*
X50800Y22500D02*
D03*
X48300Y22400D02*
D03*
X45600D02*
D03*
X-56800Y58400D02*
D03*
X-60200D02*
D03*
X-62200Y56800D02*
D03*
Y54600D02*
D03*
X-60600Y52700D02*
D03*
X-58200D02*
D03*
X-58400Y56700D02*
D03*
X-56700Y54400D02*
D03*
X47800Y-76000D02*
D03*
X16339Y1000D02*
D03*
X20864Y1300D02*
D03*
X26937Y900D02*
D03*
X27629Y5700D02*
D03*
X18800Y6000D02*
D03*
X13148Y6200D02*
D03*
X6200Y6000D02*
D03*
X1271D02*
D03*
X4999Y2000D02*
D03*
X23654Y-3200D02*
D03*
X27300Y-7108D02*
D03*
X22900Y-29600D02*
D03*
X21158Y-31900D02*
D03*
X14700Y-31125D02*
D03*
X-27400Y-43991D02*
D03*
X-27385Y-46600D02*
D03*
X-27900Y-51400D02*
D03*
X-47200Y-20000D02*
D03*
X-49931Y-22200D02*
D03*
X63100Y72300D02*
D03*
X63000Y67700D02*
D03*
X62700Y62900D02*
D03*
Y56000D02*
D03*
X63300Y48500D02*
D03*
X63100Y42900D02*
D03*
X64300Y37700D02*
D03*
X63700Y94546D02*
D03*
X63600Y89500D02*
D03*
X63400Y86000D02*
D03*
X63600Y79500D02*
D03*
X48300Y-1300D02*
D03*
X42335Y-1200D02*
D03*
X28200Y-39700D02*
D03*
X20100Y-58000D02*
D03*
X19854Y-61500D02*
D03*
X28700Y-67100D02*
D03*
X15800Y-68844D02*
D03*
X27658Y-74400D02*
D03*
X-33900Y-73000D02*
D03*
X-31687Y-77132D02*
D03*
X-27500Y-80864D02*
D03*
X-27385Y-87800D02*
D03*
X-21600Y-90100D02*
D03*
X-36800Y-76300D02*
D03*
X-33200Y-3800D02*
D03*
X-35800D02*
D03*
X-32600Y-28600D02*
D03*
X-28035Y-28700D02*
D03*
X-22872Y-27200D02*
D03*
X-13600Y97000D02*
D03*
X-15747Y98000D02*
D03*
X-18103D02*
D03*
X-17028Y95300D02*
D03*
X-15100Y102650D02*
D03*
X-21300Y100242D02*
D03*
X-22300Y104000D02*
D03*
X-25900D02*
D03*
X-30900Y103700D02*
D03*
X-36113Y103900D02*
D03*
X-41870Y104100D02*
D03*
X-39180Y102400D02*
D03*
X-33700Y102200D02*
D03*
X-28800Y102015D02*
D03*
X-24000Y101926D02*
D03*
X-21200Y106870D02*
D03*
X-38082Y106800D02*
D03*
X22600Y105800D02*
D03*
X26500Y104964D02*
D03*
X31100Y104849D02*
D03*
X36279Y105000D02*
D03*
X41700Y107000D02*
D03*
X44300Y112206D02*
D03*
X45800Y107347D02*
D03*
X44800Y104964D02*
D03*
X41700Y102650D02*
D03*
X37400Y101832D02*
D03*
X32896Y101500D02*
D03*
X29300Y101745D02*
D03*
X25800D02*
D03*
X22700Y102783D02*
D03*
X15500Y102504D02*
D03*
D76*
X44042Y106550D02*
D03*
X19538Y90900D02*
D03*
X-47325Y108941D02*
D03*
D77*
X-2737Y-43862D02*
D03*
X-2737Y-50161D02*
D03*
D78*
X-9449Y-42685D02*
D03*
X-9449Y-51701D02*
D03*
D79*
X-32300Y-84228D02*
D03*
Y-87772D02*
D03*
X18000Y-45128D02*
D03*
Y-48672D02*
D03*
X22300Y-45028D02*
D03*
Y-48572D02*
D03*
X200Y-7072D02*
D03*
Y-3528D02*
D03*
X-27600Y-73544D02*
D03*
Y-77087D02*
D03*
X46300Y-45028D02*
D03*
Y-48572D02*
D03*
X-38500Y-87772D02*
D03*
Y-84228D02*
D03*
X-27600Y-69172D02*
D03*
Y-65628D02*
D03*
X34878Y-74272D02*
D03*
Y-70728D02*
D03*
X58500Y-48572D02*
D03*
Y-45028D02*
D03*
X41647Y-45058D02*
D03*
Y-48601D02*
D03*
X37125Y-48672D02*
D03*
Y-45128D02*
D03*
X32600Y-45228D02*
D03*
Y-48772D02*
D03*
X11830Y-48665D02*
D03*
Y-45122D02*
D03*
X7106Y-48665D02*
D03*
Y-45122D02*
D03*
X2775D02*
D03*
Y-48665D02*
D03*
X-15335Y-45244D02*
D03*
Y-48787D02*
D03*
X-32800Y-45228D02*
D03*
Y-48772D02*
D03*
X-38400Y-45228D02*
D03*
Y-48772D02*
D03*
X-44003Y-48770D02*
D03*
Y-45227D02*
D03*
X-49023Y-48770D02*
D03*
Y-45227D02*
D03*
X-54042D02*
D03*
Y-48770D02*
D03*
X-61100Y-26672D02*
D03*
Y-23128D02*
D03*
X-54239Y-7108D02*
D03*
Y-3565D02*
D03*
X-49023Y-7108D02*
D03*
Y-3565D02*
D03*
X-44200D02*
D03*
Y-7108D02*
D03*
X-39180D02*
D03*
Y-3565D02*
D03*
X-29239D02*
D03*
Y-7108D02*
D03*
X-24219D02*
D03*
Y-3565D02*
D03*
X34100Y-3428D02*
D03*
Y-6972D02*
D03*
X38800Y-3428D02*
D03*
Y-6972D02*
D03*
X17688Y-80655D02*
D03*
Y-84199D02*
D03*
X21724Y-80655D02*
D03*
Y-84199D02*
D03*
X25661Y-80655D02*
D03*
Y-84199D02*
D03*
X29900Y-80728D02*
D03*
Y-84272D02*
D03*
X17688Y-74159D02*
D03*
Y-70616D02*
D03*
X21625Y-74159D02*
D03*
Y-70616D02*
D03*
X25858Y-74159D02*
D03*
Y-70616D02*
D03*
X29696Y-74159D02*
D03*
Y-70616D02*
D03*
X34700Y-66472D02*
D03*
Y-62928D02*
D03*
X45500Y-66472D02*
D03*
Y-62928D02*
D03*
X53000D02*
D03*
Y-66472D02*
D03*
D80*
X-19328Y-77200D02*
D03*
X-22872D02*
D03*
X-19528Y-70400D02*
D03*
X-23072D02*
D03*
X36172Y94100D02*
D03*
X32628D02*
D03*
X46872Y94300D02*
D03*
X43328D02*
D03*
X-21072Y96500D02*
D03*
X-17528D02*
D03*
X55128Y-88500D02*
D03*
X58672D02*
D03*
X-45928Y-100176D02*
D03*
X-49472D02*
D03*
X47003Y-97900D02*
D03*
X43460D02*
D03*
D81*
X-34200Y-62753D02*
D03*
Y-69446D02*
D03*
X-24606Y74410D02*
D03*
Y81102D02*
D03*
X53400Y95547D02*
D03*
Y88854D02*
D03*
X-16732Y74410D02*
D03*
Y81102D02*
D03*
D82*
X53031Y43303D02*
D03*
Y32280D02*
D03*
X44371Y43301D02*
D03*
Y32277D02*
D03*
X35712Y43279D02*
D03*
Y32255D02*
D03*
X27048Y43279D02*
D03*
Y32255D02*
D03*
D83*
X19400Y81899D02*
D03*
Y69301D02*
D03*
D84*
X984Y104964D02*
D03*
X-6890D02*
D03*
X-4921D02*
D03*
X-2953D02*
D03*
X-984D02*
D03*
X2953D02*
D03*
X4921D02*
D03*
X6890D02*
D03*
D85*
X12598D02*
D03*
X9449D02*
D03*
X-12598D02*
D03*
X-9449D02*
D03*
D86*
X-51703Y25941D02*
D03*
Y28500D02*
D03*
Y31059D02*
D03*
X-44223D02*
D03*
Y28500D02*
D03*
Y25941D02*
D03*
X-51703Y37341D02*
D03*
Y39900D02*
D03*
Y42459D02*
D03*
X-44223D02*
D03*
Y39900D02*
D03*
Y37341D02*
D03*
X-51703Y3141D02*
D03*
Y5700D02*
D03*
Y8259D02*
D03*
X-44223D02*
D03*
Y5700D02*
D03*
Y3141D02*
D03*
X-51703Y13641D02*
D03*
Y16200D02*
D03*
Y18759D02*
D03*
X-44223D02*
D03*
Y16200D02*
D03*
Y13641D02*
D03*
D87*
X-54121Y-35455D02*
D03*
X-49121D02*
D03*
X-44121D02*
D03*
X-39121D02*
D03*
X-34121D02*
D03*
X-29121D02*
D03*
X-24121D02*
D03*
X-29121Y-13998D02*
D03*
X-34121D02*
D03*
X-39121D02*
D03*
X-44121D02*
D03*
X-49121D02*
D03*
X-54121D02*
D03*
X-24121D02*
D03*
D88*
X-48100Y-72924D02*
D03*
D89*
X-42195D02*
D03*
X-54005D02*
D03*
D90*
X-48100Y-63476D02*
D03*
D91*
X33624Y-36712D02*
D03*
X36183D02*
D03*
X38742D02*
D03*
X41301D02*
D03*
X43860D02*
D03*
X46419D02*
D03*
X48978D02*
D03*
X51537D02*
D03*
X54096D02*
D03*
X56655D02*
D03*
Y-13090D02*
D03*
X54096D02*
D03*
X51537D02*
D03*
X48978D02*
D03*
X46419D02*
D03*
X43860D02*
D03*
X41301D02*
D03*
X38742D02*
D03*
X36183D02*
D03*
X33624D02*
D03*
D92*
X10700Y-176D02*
D03*
X14637Y-9624D02*
D03*
X6763D02*
D03*
X49437Y-72676D02*
D03*
X41563D02*
D03*
X45500Y-82124D02*
D03*
D93*
X26085Y-60600D02*
D03*
X-5411D02*
D03*
X2463D02*
D03*
X10337D02*
D03*
X18211D02*
D03*
X-13873Y125867D02*
D03*
X14473Y112206D02*
D03*
Y125867D02*
D03*
X-13873Y112206D02*
D03*
Y125867D02*
D03*
X14473D02*
D03*
X-13873Y112206D02*
D03*
X14473D02*
D03*
D94*
X-13285Y-60600D02*
D03*
D95*
X-2456Y127206D02*
D03*
X3056D02*
D03*
D96*
X-4818Y114607D02*
D03*
X-2259D02*
D03*
X300D02*
D03*
X2859D02*
D03*
X5418D02*
D03*
D97*
X-51346Y-90100D02*
D03*
X-44653D02*
D03*
X-44729Y-81700D02*
D03*
X-51422D02*
D03*
X-24016Y88583D02*
D03*
X-17323D02*
D03*
X-24446Y-84450D02*
D03*
X-17753D02*
D03*
D98*
X53100Y-44044D02*
D03*
Y-49556D02*
D03*
X54500Y76656D02*
D03*
Y71144D02*
D03*
X-52700Y76556D02*
D03*
Y71044D02*
D03*
X-58600D02*
D03*
Y76556D02*
D03*
D99*
X41870Y86567D02*
D03*
Y62157D02*
D03*
X31870D02*
D03*
X36870Y86567D02*
D03*
X46870D02*
D03*
X36870Y62157D02*
D03*
X46870D02*
D03*
X31870Y86567D02*
D03*
D100*
X-7500Y63339D02*
D03*
X-2500D02*
D03*
X-7500Y85386D02*
D03*
X7500Y63339D02*
D03*
Y85386D02*
D03*
X-2500D02*
D03*
X2500Y63339D02*
D03*
Y85386D02*
D03*
X-46870Y63339D02*
D03*
X-41870D02*
D03*
X-46870Y85386D02*
D03*
X-31870Y63339D02*
D03*
Y85386D02*
D03*
X-41870D02*
D03*
X-36870Y63339D02*
D03*
Y85386D02*
D03*
D101*
X50028Y-88600D02*
D03*
X41012D02*
D03*
D102*
X40507Y-107300D02*
D03*
X53893D02*
D03*
X-53937Y-107100D02*
D03*
X-40551D02*
D03*
D103*
X45232Y-107300D02*
D03*
X-49213Y-107100D02*
D03*
D104*
X49169Y-107300D02*
D03*
X-45276Y-107100D02*
D03*
D105*
X11389Y-79907D02*
D03*
X-10658Y-79907D02*
D03*
Y-69907D02*
D03*
X11389Y-74907D02*
D03*
Y-84907D02*
D03*
X-10658Y-74907D02*
D03*
Y-84907D02*
D03*
X11389Y-69907D02*
D03*
D106*
X59000Y-69400D02*
D03*
D107*
X59200Y-59739D02*
D03*
D108*
X11339Y109748D02*
D03*
X-11417D02*
D03*
X8273Y117402D02*
D03*
X-7476D02*
D03*
D109*
X17028Y107779D02*
D03*
X-17008D02*
D03*
D110*
X-17028Y124236D02*
D03*
X17028D02*
D03*
D111*
X9843Y-112405D02*
D03*
X-9843D02*
D03*
D112*
X3500Y-25300D02*
D03*
X900Y-58400D02*
D03*
X2600Y-51900D02*
D03*
X-34200Y-9700D02*
D03*
X-48900Y-1500D02*
D03*
X-1500Y-93000D02*
D03*
X4000Y-92700D02*
D03*
X-2697Y-10978D02*
D03*
X-7000Y-63300D02*
D03*
X-24600Y-62700D02*
D03*
X-50200Y-51000D02*
D03*
X-44200Y-1400D02*
D03*
X-53300Y-53800D02*
D03*
X34100Y-93500D02*
D03*
X51700Y6900D02*
D03*
X49700Y-94700D02*
D03*
X53700Y-95100D02*
D03*
X52200Y-99200D02*
D03*
X46519Y-101600D02*
D03*
X-16800Y-39200D02*
D03*
X-16400Y-35200D02*
D03*
X-8500Y-34600D02*
D03*
X-4700Y-34700D02*
D03*
X-4400Y-14100D02*
D03*
X-47041Y-28700D02*
D03*
X-41000Y-29000D02*
D03*
X-47200Y8200D02*
D03*
X-47000Y18900D02*
D03*
X-46600Y31200D02*
D03*
X-47900Y41500D02*
D03*
X-40148Y33800D02*
D03*
X9500Y97600D02*
D03*
X-9400Y101800D02*
D03*
X921Y100700D02*
D03*
X4300Y97600D02*
D03*
X6000Y100400D02*
D03*
X-1500Y97500D02*
D03*
X-5000Y97600D02*
D03*
X-41500Y45100D02*
D03*
X-24200Y5400D02*
D03*
X-27700D02*
D03*
X-29700Y9400D02*
D03*
X-34200Y23900D02*
D03*
X-10300Y3900D02*
D03*
X-13900Y4800D02*
D03*
X-14000Y-28200D02*
D03*
X-59800Y54800D02*
D03*
X45700Y-31500D02*
D03*
X44800Y-58800D02*
D03*
X33200Y-53900D02*
D03*
X11700Y-53300D02*
D03*
X-800Y-71900D02*
D03*
X27400Y-91000D02*
D03*
X4500Y-79700D02*
D03*
X-15200Y-79000D02*
D03*
X58100Y-85900D02*
D03*
X33400Y-50000D02*
D03*
X6000Y-68600D02*
D03*
X18000Y-50900D02*
D03*
X-600Y-1400D02*
D03*
X-27700Y-55600D02*
D03*
X45100Y-7300D02*
D03*
X53700Y10500D02*
D03*
X50500Y3400D02*
D03*
X43200Y-29400D02*
D03*
X29100Y-77900D02*
D03*
X21800Y-76700D02*
D03*
X-12200Y-53000D02*
D03*
X43400Y-50600D02*
D03*
X7500Y-37900D02*
D03*
X17805Y-31000D02*
D03*
M02*
