%FSLAX25Y25*%
%MOIN*%
G70*
G01*
G75*
G04 Layer_Color=16711935*
%ADD10C,0.01181*%
%ADD11C,0.00787*%
%ADD12C,0.01969*%
%ADD13C,0.03937*%
%ADD14R,0.03937X0.02756*%
%ADD15R,0.03150X0.05118*%
%ADD16R,0.02362X0.01969*%
%ADD17R,0.01969X0.02362*%
%ADD18R,0.04921X0.02756*%
%ADD19R,0.06693X0.03543*%
%ADD20R,0.06299X0.04921*%
%ADD21R,0.01181X0.03347*%
%ADD22R,0.02362X0.03347*%
%ADD23R,0.01969X0.01575*%
%ADD24R,0.02362X0.05512*%
%ADD25R,0.03150X0.07874*%
%ADD26R,0.02362X0.07874*%
%ADD27O,0.07480X0.12992*%
%ADD28R,0.01575X0.04724*%
%ADD29R,0.03543X0.03937*%
%ADD30O,0.05906X0.07874*%
%ADD31R,0.05906X0.07874*%
%ADD32R,0.04331X0.03937*%
%ADD33R,0.01575X0.06693*%
%ADD34R,0.02756X0.04921*%
%ADD35R,0.03543X0.02362*%
%ADD36O,0.02362X0.07874*%
%ADD37O,0.02362X0.05512*%
%ADD38R,0.05118X0.03150*%
%ADD39R,0.03937X0.02756*%
%ADD40R,0.02362X0.03937*%
%ADD41R,0.01969X0.03937*%
%ADD42O,0.05512X0.02362*%
%ADD43O,0.07874X0.09843*%
%ADD44O,0.09843X0.07874*%
%ADD45C,0.03150*%
%ADD46C,0.07874*%
%ADD47C,0.10000*%
%ADD48C,0.05906*%
%ADD49R,0.15300X0.31300*%
%ADD50R,0.33921X0.10400*%
%ADD51R,0.02874X0.02068*%
%ADD52R,0.11321X0.16200*%
%ADD53R,0.02719X0.08050*%
%ADD54R,0.06858X0.03154*%
%ADD55R,0.16400X0.14144*%
%ADD56R,0.09300X0.06156*%
%ADD57C,0.02559*%
G04:AMPARAMS|DCode=58|XSize=39.37mil|YSize=82.68mil|CornerRadius=17.72mil|HoleSize=0mil|Usage=FLASHONLY|Rotation=180.000|XOffset=0mil|YOffset=0mil|HoleType=Round|Shape=RoundedRectangle|*
%AMROUNDEDRECTD58*
21,1,0.03937,0.04724,0,0,180.0*
21,1,0.00394,0.08268,0,0,180.0*
1,1,0.03543,-0.00197,0.02362*
1,1,0.03543,0.00197,0.02362*
1,1,0.03543,0.00197,-0.02362*
1,1,0.03543,-0.00197,-0.02362*
%
%ADD58ROUNDEDRECTD58*%
G04:AMPARAMS|DCode=59|XSize=39.37mil|YSize=62.99mil|CornerRadius=17.72mil|HoleSize=0mil|Usage=FLASHONLY|Rotation=180.000|XOffset=0mil|YOffset=0mil|HoleType=Round|Shape=RoundedRectangle|*
%AMROUNDEDRECTD59*
21,1,0.03937,0.02756,0,0,180.0*
21,1,0.00394,0.06299,0,0,180.0*
1,1,0.03543,-0.00197,0.01378*
1,1,0.03543,0.00197,0.01378*
1,1,0.03543,0.00197,-0.01378*
1,1,0.03543,-0.00197,-0.01378*
%
%ADD59ROUNDEDRECTD59*%
%ADD60C,0.11811*%
%ADD61C,0.02362*%
%ADD62C,0.11811*%
%ADD63R,0.65400X0.19300*%
%ADD64R,0.65700X0.19200*%
%ADD65R,0.23000X0.09900*%
%ADD66R,0.11700X0.10615*%
%ADD67C,0.00197*%
%ADD68C,0.00394*%
%ADD69C,0.01000*%
%ADD70C,0.00984*%
%ADD71C,0.02362*%
%ADD72C,0.00500*%
%ADD73C,0.00800*%
%ADD74C,0.00591*%
%ADD75C,0.00400*%
%ADD76C,0.09843*%
%ADD77R,0.04331X0.03150*%
%ADD78R,0.03950X0.05918*%
%ADD79R,0.03162X0.02769*%
%ADD80R,0.02769X0.03162*%
%ADD81R,0.05721X0.03556*%
%ADD82R,0.07493X0.04343*%
%ADD83R,0.07099X0.05721*%
%ADD84R,0.01981X0.04147*%
%ADD85R,0.03162X0.04147*%
%ADD86R,0.02769X0.02375*%
%ADD87R,0.03162X0.06312*%
%ADD88R,0.03950X0.08674*%
%ADD89R,0.03162X0.08674*%
%ADD90O,0.08280X0.13792*%
%ADD91R,0.02375X0.05524*%
%ADD92R,0.04343X0.04737*%
%ADD93O,0.06706X0.08674*%
%ADD94R,0.06706X0.08674*%
%ADD95R,0.05131X0.04737*%
%ADD96R,0.02375X0.07493*%
%ADD97R,0.03556X0.05721*%
%ADD98R,0.04343X0.03162*%
%ADD99O,0.03162X0.08674*%
%ADD100O,0.03162X0.06312*%
%ADD101R,0.05918X0.03950*%
%ADD102R,0.04737X0.03556*%
%ADD103R,0.03162X0.04737*%
%ADD104R,0.02769X0.04737*%
%ADD105O,0.06312X0.03162*%
%ADD106O,0.08674X0.10642*%
%ADD107O,0.10642X0.08674*%
%ADD108C,0.03359*%
G04:AMPARAMS|DCode=109|XSize=47.37mil|YSize=90.68mil|CornerRadius=21.72mil|HoleSize=0mil|Usage=FLASHONLY|Rotation=180.000|XOffset=0mil|YOffset=0mil|HoleType=Round|Shape=RoundedRectangle|*
%AMROUNDEDRECTD109*
21,1,0.04737,0.04724,0,0,180.0*
21,1,0.00394,0.09068,0,0,180.0*
1,1,0.04343,-0.00197,0.02362*
1,1,0.04343,0.00197,0.02362*
1,1,0.04343,0.00197,-0.02362*
1,1,0.04343,-0.00197,-0.02362*
%
%ADD109ROUNDEDRECTD109*%
G04:AMPARAMS|DCode=110|XSize=47.37mil|YSize=70.99mil|CornerRadius=21.72mil|HoleSize=0mil|Usage=FLASHONLY|Rotation=180.000|XOffset=0mil|YOffset=0mil|HoleType=Round|Shape=RoundedRectangle|*
%AMROUNDEDRECTD110*
21,1,0.04737,0.02756,0,0,180.0*
21,1,0.00394,0.07099,0,0,180.0*
1,1,0.04343,-0.00197,0.01378*
1,1,0.04343,0.00197,0.01378*
1,1,0.04343,0.00197,-0.01378*
1,1,0.04343,-0.00197,-0.01378*
%
%ADD110ROUNDEDRECTD110*%
%ADD111C,0.12611*%
%ADD112C,0.03162*%
%ADD113R,0.10982X0.13159*%
%ADD114R,0.17890X0.17757*%
D10*
X-68900Y-124700D02*
Y124513D01*
X68895Y-124700D02*
Y124513D01*
X-68900Y-124700D02*
X68895D01*
X-68900D02*
X-61026D01*
X-68900D02*
X-61026D01*
X-20475Y116836D02*
Y134355D01*
X-38979Y116836D02*
Y124513D01*
X20470Y116836D02*
Y134355D01*
X-68900Y124513D02*
X-38979D01*
X38974Y116836D02*
Y124513D01*
X-20475Y134355D02*
X20470D01*
X38974Y124513D02*
X68895D01*
D68*
X-38979Y116836D02*
G03*
X-20475Y116836I9252J0D01*
G01*
X20470D02*
G03*
X38974Y116836I9252J0D01*
G01*
X69092Y124513D02*
G03*
X69092Y124513I-197J0D01*
G01*
X-68703D02*
G03*
X-68703Y124513I-197J0D01*
G01*
X69092D02*
G03*
X69092Y124513I-197J0D01*
G01*
D02*
G03*
X69092Y124513I-197J0D01*
G01*
X-17719Y21202D02*
X-17717Y21200D01*
X-17719Y21202D02*
Y50497D01*
X-17710Y50488D01*
X17805D01*
X17717Y50400D02*
X17805Y50488D01*
X17717Y21200D02*
Y50400D01*
X-17717Y21200D02*
X17717D01*
M02*
