%FSLAX25Y25*%
%MOIN*%
G70*
G01*
G75*
G04 Layer_Color=32896*
%ADD10C,0.01181*%
%ADD11C,0.00787*%
%ADD12C,0.01969*%
%ADD13C,0.03937*%
%ADD14R,0.03937X0.02756*%
%ADD15R,0.03150X0.05118*%
%ADD16R,0.02362X0.01969*%
%ADD17R,0.01969X0.02362*%
%ADD18R,0.04921X0.02756*%
%ADD19R,0.06693X0.03543*%
%ADD20R,0.06299X0.04921*%
%ADD21R,0.01181X0.03347*%
%ADD22R,0.02362X0.03347*%
%ADD23R,0.01969X0.01575*%
%ADD24R,0.02362X0.05512*%
%ADD25R,0.03150X0.07874*%
%ADD26R,0.02362X0.07874*%
%ADD27O,0.07480X0.12992*%
%ADD28R,0.01575X0.04724*%
%ADD29R,0.03543X0.03937*%
%ADD30O,0.05906X0.07874*%
%ADD31R,0.05906X0.07874*%
%ADD32R,0.04331X0.03937*%
%ADD33R,0.01575X0.06693*%
%ADD34R,0.02756X0.04921*%
%ADD35R,0.03543X0.02362*%
%ADD36O,0.02362X0.07874*%
%ADD37O,0.02362X0.05512*%
%ADD38R,0.05118X0.03150*%
%ADD39R,0.03937X0.02756*%
%ADD40R,0.02362X0.03937*%
%ADD41R,0.01969X0.03937*%
%ADD42O,0.05512X0.02362*%
%ADD43O,0.07874X0.09843*%
%ADD44O,0.09843X0.07874*%
%ADD45C,0.03150*%
%ADD46C,0.07874*%
%ADD47C,0.10000*%
%ADD48C,0.05906*%
%ADD49R,0.15300X0.31300*%
%ADD50R,0.33921X0.10400*%
%ADD51R,0.02874X0.02068*%
%ADD52R,0.11321X0.16200*%
%ADD53R,0.02719X0.08050*%
%ADD54R,0.06858X0.03154*%
%ADD55R,0.16400X0.14144*%
%ADD56R,0.09300X0.06156*%
%ADD57C,0.02559*%
G04:AMPARAMS|DCode=58|XSize=39.37mil|YSize=82.68mil|CornerRadius=17.72mil|HoleSize=0mil|Usage=FLASHONLY|Rotation=180.000|XOffset=0mil|YOffset=0mil|HoleType=Round|Shape=RoundedRectangle|*
%AMROUNDEDRECTD58*
21,1,0.03937,0.04724,0,0,180.0*
21,1,0.00394,0.08268,0,0,180.0*
1,1,0.03543,-0.00197,0.02362*
1,1,0.03543,0.00197,0.02362*
1,1,0.03543,0.00197,-0.02362*
1,1,0.03543,-0.00197,-0.02362*
%
%ADD58ROUNDEDRECTD58*%
G04:AMPARAMS|DCode=59|XSize=39.37mil|YSize=62.99mil|CornerRadius=17.72mil|HoleSize=0mil|Usage=FLASHONLY|Rotation=180.000|XOffset=0mil|YOffset=0mil|HoleType=Round|Shape=RoundedRectangle|*
%AMROUNDEDRECTD59*
21,1,0.03937,0.02756,0,0,180.0*
21,1,0.00394,0.06299,0,0,180.0*
1,1,0.03543,-0.00197,0.01378*
1,1,0.03543,0.00197,0.01378*
1,1,0.03543,0.00197,-0.01378*
1,1,0.03543,-0.00197,-0.01378*
%
%ADD59ROUNDEDRECTD59*%
%ADD60C,0.11811*%
%ADD61C,0.02362*%
%ADD62C,0.11811*%
%ADD63R,0.65400X0.19300*%
%ADD64R,0.65700X0.19200*%
%ADD65R,0.23000X0.09900*%
%ADD66R,0.11700X0.10615*%
%ADD67C,0.00197*%
%ADD68C,0.00394*%
%ADD69C,0.01000*%
%ADD70C,0.00984*%
%ADD71C,0.02362*%
%ADD72C,0.00500*%
%ADD73C,0.00800*%
%ADD74C,0.00591*%
%ADD75C,0.00400*%
%ADD76C,0.09843*%
%ADD77R,0.04331X0.03150*%
%ADD78R,0.03950X0.05918*%
%ADD79R,0.03162X0.02769*%
%ADD80R,0.02769X0.03162*%
%ADD81R,0.05721X0.03556*%
%ADD82R,0.07493X0.04343*%
%ADD83R,0.07099X0.05721*%
%ADD84R,0.01981X0.04147*%
%ADD85R,0.03162X0.04147*%
%ADD86R,0.02769X0.02375*%
%ADD87R,0.03162X0.06312*%
%ADD88R,0.03950X0.08674*%
%ADD89R,0.03162X0.08674*%
%ADD90O,0.08280X0.13792*%
%ADD91R,0.02375X0.05524*%
%ADD92R,0.04343X0.04737*%
%ADD93O,0.06706X0.08674*%
%ADD94R,0.06706X0.08674*%
%ADD95R,0.05131X0.04737*%
%ADD96R,0.02375X0.07493*%
%ADD97R,0.03556X0.05721*%
%ADD98R,0.04343X0.03162*%
%ADD99O,0.03162X0.08674*%
%ADD100O,0.03162X0.06312*%
%ADD101R,0.05918X0.03950*%
%ADD102R,0.04737X0.03556*%
%ADD103R,0.03162X0.04737*%
%ADD104R,0.02769X0.04737*%
%ADD105O,0.06312X0.03162*%
%ADD106O,0.08674X0.10642*%
%ADD107O,0.10642X0.08674*%
%ADD108C,0.03359*%
G04:AMPARAMS|DCode=109|XSize=47.37mil|YSize=90.68mil|CornerRadius=21.72mil|HoleSize=0mil|Usage=FLASHONLY|Rotation=180.000|XOffset=0mil|YOffset=0mil|HoleType=Round|Shape=RoundedRectangle|*
%AMROUNDEDRECTD109*
21,1,0.04737,0.04724,0,0,180.0*
21,1,0.00394,0.09068,0,0,180.0*
1,1,0.04343,-0.00197,0.02362*
1,1,0.04343,0.00197,0.02362*
1,1,0.04343,0.00197,-0.02362*
1,1,0.04343,-0.00197,-0.02362*
%
%ADD109ROUNDEDRECTD109*%
G04:AMPARAMS|DCode=110|XSize=47.37mil|YSize=70.99mil|CornerRadius=21.72mil|HoleSize=0mil|Usage=FLASHONLY|Rotation=180.000|XOffset=0mil|YOffset=0mil|HoleType=Round|Shape=RoundedRectangle|*
%AMROUNDEDRECTD110*
21,1,0.04737,0.02756,0,0,180.0*
21,1,0.00394,0.07099,0,0,180.0*
1,1,0.04343,-0.00197,0.01378*
1,1,0.04343,0.00197,0.01378*
1,1,0.04343,0.00197,-0.01378*
1,1,0.04343,-0.00197,-0.01378*
%
%ADD110ROUNDEDRECTD110*%
%ADD111C,0.12611*%
%ADD112C,0.03162*%
%ADD113R,0.10982X0.13159*%
%ADD114R,0.17890X0.17757*%
D10*
X-68151Y-62773D02*
G03*
X68045Y-62888I68151J62573D01*
G01*
X69000Y71800D02*
G03*
X-67966Y72516I-68859J-71698D01*
G01*
X9449Y-200D02*
G03*
X9449Y-200I-9449J0D01*
G01*
X67964Y62576D02*
G03*
X-68034Y62500I-67964J-62776D01*
G01*
X-68106Y-72614D02*
G03*
X68859Y-71898I68106J72414D01*
G01*
D68*
X0Y-111617D02*
G03*
X1657Y-112407I653J-764D01*
G01*
X-1635Y-112408D02*
G03*
X21Y-111592I1004J51D01*
G01*
X1657Y-112407D02*
X2756D01*
X-2733Y-112408D02*
X-1635D01*
D69*
X-16299Y-23621D02*
X-20298D01*
Y-26620D01*
X-18298D01*
X-20298D01*
Y-29619D01*
X-13300D02*
X-11301D01*
X-10301Y-28620D01*
Y-26620D01*
X-11301Y-25620D01*
X-13300D01*
X-14300Y-26620D01*
Y-28620D01*
X-13300Y-29619D01*
X-8302Y-25620D02*
Y-29619D01*
Y-27620D01*
X-7302Y-26620D01*
X-6302Y-25620D01*
X-5303D01*
X-21000Y-35802D02*
X-19001D01*
X-20000D01*
Y-41800D01*
X-21000D01*
X-19001D01*
X-16002Y-43799D02*
Y-37801D01*
X-13003D01*
X-12003Y-38801D01*
Y-40800D01*
X-13003Y-41800D01*
X-16002D01*
X-10004Y-35802D02*
Y-41800D01*
Y-38801D01*
X-9004Y-37801D01*
X-7005D01*
X-6005Y-38801D01*
Y-41800D01*
X-3006D02*
X-1006D01*
X-7Y-40800D01*
Y-38801D01*
X-1006Y-37801D01*
X-3006D01*
X-4005Y-38801D01*
Y-40800D01*
X-3006Y-41800D01*
X1993D02*
Y-37801D01*
X4992D01*
X5991Y-38801D01*
Y-41800D01*
X10990D02*
X8990D01*
X7991Y-40800D01*
Y-38801D01*
X8990Y-37801D01*
X10990D01*
X11989Y-38801D01*
Y-39801D01*
X7991D01*
X19987Y-35802D02*
X23986Y-41800D01*
Y-35802D02*
X19987Y-41800D01*
X-16299Y-48202D02*
X-17299Y-47202D01*
X-19298D01*
X-20298Y-48202D01*
Y-49201D01*
X-19298Y-50201D01*
X-17299D01*
X-16299Y-51201D01*
Y-52200D01*
X-17299Y-53200D01*
X-19298D01*
X-20298Y-52200D01*
X-14300Y-53200D02*
Y-49201D01*
X-12300Y-47202D01*
X-10301Y-49201D01*
Y-53200D01*
Y-50201D01*
X-14300D01*
X-8302Y-53200D02*
Y-47202D01*
X-4303Y-53200D01*
Y-47202D01*
X1695Y-48202D02*
X695Y-47202D01*
X-1304D01*
X-2304Y-48202D01*
Y-49201D01*
X-1304Y-50201D01*
X695D01*
X1695Y-51201D01*
Y-52200D01*
X695Y-53200D01*
X-1304D01*
X-2304Y-52200D01*
X3694Y-47202D02*
Y-52200D01*
X4694Y-53200D01*
X6693D01*
X7693Y-52200D01*
Y-47202D01*
X9692Y-53200D02*
Y-47202D01*
X13691Y-53200D01*
Y-47202D01*
X19689Y-48202D02*
X18690Y-47202D01*
X16690D01*
X15690Y-48202D01*
Y-52200D01*
X16690Y-53200D01*
X18690D01*
X19689Y-52200D01*
Y-50201D01*
X17690D01*
X-20276Y-18700D02*
X-18609D01*
X-19443D01*
Y-13702D01*
X-20276Y-14535D01*
X-16110D02*
X-15277Y-13702D01*
X-13611D01*
X-12778Y-14535D01*
Y-17867D01*
X-13611Y-18700D01*
X-15277D01*
X-16110Y-17867D01*
Y-14535D01*
X-11112Y-13702D02*
Y-18700D01*
X-9446Y-17034D01*
X-7780Y-18700D01*
Y-13702D01*
M02*
